<svg xmlns="http://www.w3.org/2000/svg" viewBox="0 0 2004.77 375.78"><defs><style>.cls-1{fill:#3eb489;}.cls-2{fill:#c78457;}.cls-3{fill:#424a4c;}</style></defs><title>Asset 1</title><g id="Layer_2" data-name="Layer 2"><g id="Layer_1-2" data-name="Layer 1"><path class="cls-1" d="M88.31,300.37A92.71,92.71,0,0,1,44,289.62a82.5,82.5,0,0,1-32.08-30.1Q0,240.17,0,214.38q0-26.13,11.91-45.48A81.38,81.38,0,0,1,44,139a94,94,0,0,1,44.32-10.58q23.14,0,40.19,9.1t26.62,28.28q9.58,19.19,9.59,48.62t-9.59,48.45q-9.6,19-26.62,28.28T88.31,300.37Zm8.27,75.41a190.14,190.14,0,0,1-48.46-6.12Q24.81,363.54,9.26,351.3l20.51-37.37Q41.33,323.52,58.38,329a112.53,112.53,0,0,0,34.56,5.46q27.12,0,39.69-12.24t12.57-36.38V259.36l3.31-45-1-45.32V131h49V279.2q0,49.28-25.8,72.93T96.58,375.78Zm2.31-117.42A50.69,50.69,0,0,0,123,252.74a41.66,41.66,0,0,0,16.54-15.54,43.51,43.51,0,0,0,5.95-22.82q0-13.23-5.95-23a39.84,39.84,0,0,0-16.54-15,53.28,53.28,0,0,0-24.15-5.29,53.54,53.54,0,0,0-24,5.29,40.64,40.64,0,0,0-16.86,15q-6.13,9.75-6.12,23a41.82,41.82,0,0,0,23,38.36A50.94,50.94,0,0,0,98.89,258.36Z"/><path class="cls-1" d="M332.4,311.61q-30.43,0-53.25-11.9t-35.39-32.58Q231.19,246.46,231.19,220t12.07-47.3A84.93,84.93,0,0,1,277,140.12q21.66-11.73,48.78-11.74,26.13,0,47.14,11.25a84.43,84.43,0,0,1,33.24,31.75q12.22,20.51,12.23,49.28c0,2-.11,4.25-.33,6.78s-.44,4.91-.66,7.11H272.86v-30.1H390.28l-20.18,8.93q.33-13.89-5.29-24.14a41.12,41.12,0,0,0-15.54-16q-9.93-5.79-23.15-5.79a46,46,0,0,0-23.32,5.79,40.37,40.37,0,0,0-15.71,16.2q-5.64,10.42-5.63,24.64V222q0,14.88,6.62,25.8a43.55,43.55,0,0,0,18.19,16.7q11.58,5.79,27.78,5.79a65.86,65.86,0,0,0,24.64-4.3,60.53,60.53,0,0,0,19.68-12.9l27.46,29.77a80,80,0,0,1-30.76,21.33Q356.53,311.61,332.4,311.61Z"/><path class="cls-1" d="M537.13,311.61q-28.11,0-50.11-11.9a89.47,89.47,0,0,1-34.56-32.58Q439.89,246.46,439.89,220q0-26.79,12.57-47.46A88.28,88.28,0,0,1,487,140.12q22-11.73,50.11-11.74,28.44,0,50.61,11.74a88.08,88.08,0,0,1,34.73,32.42Q635,193.21,635,220t-12.56,47.3a89.65,89.65,0,0,1-34.73,32.41Q565.57,311.62,537.13,311.61Zm0-42.33a46,46,0,0,0,23.32-5.79,42.48,42.48,0,0,0,16.21-17q6.11-11.25,6.12-26.46,0-15.54-6.12-26.46a43.17,43.17,0,0,0-16.21-16.71,45.46,45.46,0,0,0-23-5.78,46.33,46.33,0,0,0-23.15,5.78,42.66,42.66,0,0,0-16.37,16.71q-6.12,10.91-6.12,26.46,0,15.21,6.12,26.46a42,42,0,0,0,16.37,17A45.58,45.58,0,0,0,537.13,269.28Z"/><path class="cls-2" d="M921.9,307.87V62.45h51.6V166l-3.31,52.58,1,52.92v36.39Zm104.85,2.64q-22.82,0-39.85-9.75t-26-30.27Q952,250,952,218.9q0-31.43,9.43-51.6t26.29-30.1q16.88-9.91,39-9.92,25.47,0,45.48,11.41A84.13,84.13,0,0,1,1104,170.61q11.73,20.5,11.74,48.29T1104,267.18a84.06,84.06,0,0,1-31.75,31.92Q1052.21,310.52,1026.75,310.51Zm-8.6-42.33a45.37,45.37,0,0,0,23-5.79,42.6,42.6,0,0,0,16.21-17q6.11-11.25,6.11-26.46,0-15.56-6.11-26.46a43.1,43.1,0,0,0-16.21-16.71,45.47,45.47,0,0,0-23-5.79A46.33,46.33,0,0,0,995,175.73a42.53,42.53,0,0,0-16.37,16.71q-6.14,10.91-6.12,26.46,0,15.21,6.12,26.46a42,42,0,0,0,16.37,17A46.23,46.23,0,0,0,1018.15,268.18Z"/><path class="cls-2" d="M1234.79,310.51q-28.11,0-50.11-11.9A89.4,89.4,0,0,1,1150.12,266q-12.57-20.67-12.57-47.13,0-26.79,12.57-47.47A88.19,88.19,0,0,1,1184.68,139q22-11.75,50.11-11.74,28.44,0,50.6,11.74a88,88,0,0,1,34.73,32.41q12.57,20.69,12.57,47.47t-12.57,47.29a89.53,89.53,0,0,1-34.73,32.42Q1263.23,310.51,1234.79,310.51Zm0-42.33a46,46,0,0,0,23.32-5.79,42.51,42.51,0,0,0,16.2-17q6.12-11.25,6.12-26.46,0-15.56-6.12-26.46a43,43,0,0,0-16.2-16.71,45.47,45.47,0,0,0-23-5.79,46.33,46.33,0,0,0-23.15,5.79,42.53,42.53,0,0,0-16.37,16.71q-6.13,10.91-6.12,26.46,0,15.21,6.12,26.46a42,42,0,0,0,16.37,17A45.58,45.58,0,0,0,1234.79,268.18Z"/><path class="cls-2" d="M1442.17,310.51q-22.5,0-39.69-8.6a60.81,60.81,0,0,1-26.79-26.46q-9.6-17.85-9.59-45V129.92h51.59v92.61q0,22.5,9.43,32.91t26.63,10.42a41.9,41.9,0,0,0,21.17-5.29,37.42,37.42,0,0,0,14.71-15.88q5.46-10.58,5.46-26.46V129.92h51.27v178h-48.95V258.59l8.93,14.55a63.21,63.21,0,0,1-26.46,27.95A77.24,77.24,0,0,1,1442.17,310.51Z"/><path class="cls-2" d="M1702.13,127.28q21.16,0,37.88,8.43t26.29,25.8q9.59,17.37,9.59,44.49V307.87h-51.6V213.93q0-21.5-9.42-31.75t-26.63-10.25a45.43,45.43,0,0,0-22,5.29A37,37,0,0,0,1651,192.77q-5.44,10.24-5.45,27.12v88H1594v-178h49.28v49.29L1634,164.32a65.93,65.93,0,0,1,27.45-27.45Q1679.31,127.28,1702.13,127.28Z"/><path class="cls-2" d="M1899.92,310.51q-25.14,0-45.31-11.41a82.5,82.5,0,0,1-31.76-31.92q-11.58-20.49-11.57-48.28t11.57-48.29a82.57,82.57,0,0,1,31.76-31.92q20.16-11.41,45.31-11.41,22.49,0,39.36,9.92t26.13,30.1q9.25,20.17,9.26,51.6,0,31.08-8.93,51.59t-25.64,30.27Q1923.41,310.51,1899.92,310.51Zm8.6-42.33a46.26,46.26,0,0,0,23.15-5.79,42.17,42.17,0,0,0,16.37-17q6.12-11.25,6.12-26.46,0-15.56-6.12-26.46a42.66,42.66,0,0,0-16.37-16.71,46.36,46.36,0,0,0-23.15-5.79,45.68,45.68,0,0,0-22.82,5.79,42.62,42.62,0,0,0-16.38,16.71q-6.12,10.91-6.11,26.46,0,15.21,6.11,26.46a42.13,42.13,0,0,0,16.38,17A45.58,45.58,0,0,0,1908.52,268.18Zm47,39.69V271.48l1-52.92L1953.17,166V62.45h51.6V307.87Z"/><g id="swygEs.tif"><path class="cls-3" d="M767.86,299c-20.21-35.5-39.37-69.13-58.5-102.78-9.33-16.42-18.92-32.69-27.84-49.33-19.74-36.8-18.26-73.23,6.72-106.53,25.67-34.21,61.51-47,103-37.12C832.44,13,857.75,40.41,866,82.05a89.77,89.77,0,0,1-7.4,57.25c-2.57,5.37-5.59,10.53-8.55,15.71C823,202.47,795.89,249.91,767.86,299ZM823.3,97.8C823.58,67.11,799,42.34,768,42.1c-30.59-.23-56.11,24.73-56.25,55s24.92,55.62,55.56,55.85A55.7,55.7,0,0,0,823.3,97.8Z"/></g></g></g></svg>