<svg xmlns="http://www.w3.org/2000/svg" viewBox="0 0 826 632"><defs><style>.cls-1{fill:#33a5ac;}.cls-2{fill:#4c4c4c;}.cls-3{fill:#57abae;}.cls-4{fill:#c7c7c8;}.cls-5{fill:#c5c7c7;}.cls-6{fill:#f5bfae;}.cls-7{fill:#e7cdab;}.cls-8{fill:#f1999c;}.cls-9{fill:#c3c6c6;}.cls-10{fill:#7f9091;}.cls-11{fill:#7f9090;}.cls-12{fill:#88908f;}.cls-13{fill:#948291;}.cls-14{fill:#938293;}.cls-15{fill:#938292;}.cls-16{fill:#928290;}.cls-17{fill:#ca0f36;}.cls-18{fill:#f8f8f8;}.cls-19{fill:#f2f2f2;}.cls-20{fill:#fdefe6;}.cls-21{fill:#ebded7;}.cls-22{fill:#5e442a;}.cls-23{fill:#56abae;}.cls-24{fill:#5f4329;}.cls-25{fill:#7c9432;}.cls-26{fill:#526627;}.cls-27{fill:#526628;}.cls-28{fill:#7a9437;}.cls-29{fill:#7b9335;}.cls-30{fill:#cd0b2e;}.cls-31{fill:#cf0a32;}.cls-32{fill:#5aa8aa;}.cls-33{fill:#44494b;}.cls-34{fill:#57aaaf;}.cls-35{fill:#6a6e88;}.cls-36{fill:#a97232;}.cls-37{fill:#e6cdac;}.cls-38{fill:#fbc357;}.cls-39{fill:#aa562e;}.cls-40{fill:#fcefe6;}.cls-41{fill:#56abad;}.cls-42{fill:#efa648;}.cls-43{fill:#5f4428;}.cls-44{fill:#fbfbfb;}.cls-45{fill:#fafafa;}.cls-46{fill:#ececec;}.cls-47{fill:#ebebeb;}.cls-48{fill:#eaeaea;}.cls-49{fill:#f3f3f3;}.cls-50{fill:#f1f1f1;}.cls-51{fill:#f6f6f6;}.cls-52{fill:#f0f0f0;}.cls-53{fill:#fcfcfc;}.cls-54{fill:#f7f7f7;}.cls-55{fill:#f9f9f9;}.cls-56{fill:#f4f4f4;}.cls-57{fill:#f5f5f5;}.cls-58{fill:#ddd;}.cls-59{fill:#c7c9ca;}.cls-60{fill:#edd596;}.cls-61{fill:#efa647;}.cls-62{fill:#444f4e;}.cls-63{fill:#516527;}.cls-64{fill:#43414f;}.cls-65{fill:#555062;}.cls-66{fill:#4b4050;}.cls-67{fill:#574d5f;}.cls-68{fill:#95652a;}.cls-69{fill:#a97332;}.cls-70{fill:#ebded6;}.cls-71{fill:#526528;}.cls-72{fill:#a97331;}.cls-73{fill:#956529;}.cls-74{fill:#454746;}.cls-75{fill:#493c4d;}.cls-76{fill:#634a5d;}.cls-77{fill:#a77233;}.cls-78{fill:#553744;}.cls-79{fill:#5a4960;}.cls-80{fill:#8c8659;}.cls-81{fill:#d3cab2;}.cls-82{fill:#7a5738;}.cls-83{fill:#c6c4ae;}.cls-84{fill:#c7bdaa;}.cls-85{fill:#9a8592;}.cls-86{fill:#99848f;}.cls-87{fill:#978390;}.cls-88{fill:#948390;}.cls-89{fill:#938390;}.cls-90{fill:#958391;}.cls-91{fill:#928492;}.cls-92{fill:#928392;}.cls-93{fill:#92828f;}.cls-94{fill:#928291;}.cls-95{fill:#859091;}.cls-96{fill:#869090;}.cls-97{fill:#888f90;}.cls-98{fill:#81908e;}.cls-99{fill:#ab552d;}.cls-100{fill:#516827;}.cls-101{fill:#536628;}.cls-102{fill:#6a9d70;}.cls-103{fill:#526725;}.cls-104{fill:#c9c7ae;}.cls-105{fill:#6b9d87;}.cls-106{fill:#fbfaf9;}.cls-107{fill:#7b9334;}.cls-108{fill:#506628;}.cls-109{fill:#526625;}.cls-110{fill:#7c9334;}.cls-111{fill:#526626;}.cls-112{fill:#7b9433;}.cls-113{fill:#eda649;}.cls-114{fill:#484745;}.cls-115{fill:#484d47;}.cls-116{fill:#7c9332;}.cls-117{fill:#f6eae0;}.cls-118{fill:#938490;}.cls-119{fill:#948492;}.cls-120{fill:#928493;}.cls-121{fill:#91a8a6;}.cls-122{fill:#91a7a6;}.cls-123{fill:#90a7a5;}.cls-124{fill:#90a7a6;}.cls-125{fill:#92a7a6;}.cls-126{fill:#92a7a7;}.cls-127{fill:#91a7a9;}.cls-128{fill:#90a8a6;}.cls-129{fill:#91a7a4;}.cls-130{fill:#91a7a8;}.cls-131{fill:#91a7a5;}.cls-132{fill:#8fa7a4;}.cls-133{fill:#8fa7a6;}.cls-134{fill:#8fa8a4;}.cls-135{fill:#90a6a7;}.cls-136{fill:#649992;}.cls-137{fill:#659e9d;}.cls-138{fill:#5ea39c;}.cls-139{fill:#649e90;}.cls-140{fill:#96733c;}.cls-141{fill:#689587;}</style></defs><title>Splash</title><g id="Layer_2" data-name="Layer 2"><g id="Layer_1-2" data-name="Layer 1"><path class="cls-1" d="M1,24V1H827V633H621a5.64,5.64,0,0,1-2.13-4.32c-.23-8.14-.41-16.28.14-24.42a4.64,4.64,0,0,1,.88-2.29c2.49-2.58,5.76-2.21,8.87-2.22,22.41-.07,44.82-.29,67.22.09,9.36.16,16.08-3,20.3-11.32,1.49-2.88,4.06-3.59,7.08-3.69,4-.13,8,.32,11.89-.84,5.63-1.66,9.67-7,9.38-12.54s-4.54-10.84-10.19-11.19c-5.93-.37-8.91-3.11-11.77-8.09-6.49-11.29-20.76-13.18-32.19-4.85-2.23,1.61-4.27,3.29-7.21,1.87-2.72-2-4.49-4.84-6.86-7.15-16.45-16.1-42.76-10-52.32,8a20.18,20.18,0,0,0-1.54,3.13c-1.61,5-4.61,6.58-10.11,6.34-13.2-.58-22.6,10.77-20.65,24,.35,2.36.71,4.69-1.87,6.16-2.25.8-4.59.67-6.91.67-21.08,0-42.17.09-63.23,0-3.65,1-.87,2.16,0,3.25a3.45,3.45,0,0,1,.59,1.43c.28,6.34.16,12.66.09,19-.05,5-1.72,6.33-6.56,5.21-9.21-2.14-18.41-4.32-27.55-6.77-10.43-2.79-21-5.24-31.41-7.92-14.3-3.67-28.69-7.08-42.93-10.94-13.29-3.6-26.6-7.16-39.94-10.47-17.4-4.3-34.64-9.24-52.14-13.2-11-2.48-21.9-5.47-32.73-8.64a22.85,22.85,0,0,0-6.85-1.22c-5.94.12-11.93,1.3-17.75-.85-1.81-3.35.54-3.46,2.83-3.64,3.61-.28,6.92,1.5,9.76,1.13a149.54,149.54,0,0,1-31.73-6.45,42,42,0,0,1-9.08-3.78,7.69,7.69,0,0,0-6.08-1,6.55,6.55,0,0,1-4.41.16c-12.85-3.41-25.56-7.39-38.58-10.12-7.32-1.54-14.43-3.87-21.73-5.5-6.1-1.36-11.92-3.76-18.32-4.26-2.41-.18-6.45-1.67-6.08-4.88.39-3.48,4.27-2.19,6.68-2.19q210.47-.1,420.92-.06,82.72,0,165.46,0a42.68,42.68,0,0,0,14.7-2.44c11.38-3.38,17.76-11.08,19.81-22.65a84.66,84.66,0,0,0,1-14.91q0-103.62,0-207.23c0-8.17-.51-16.29-1.2-24.4-1-11.6-13.42-22.06-26.77-22.52-8.49-.28-17,0-25.47-.09a50.69,50.69,0,0,1-9-.45c-5.85-3.69-12.68-4.16-19.18-5.55-4.59-1-8.38-2.65-10.92-6.69-.29-8.19-.75-16.37.24-24.53,1.72-4.1,5.45-3,8.63-3.23,5.29-.33,6-1,3.21-5.46-4.19-6.67-7.13-14.16-12.51-20.53-3,2.56-4.33,5.55-6,8.33-2.3,3.85-4.49,7.76-6.9,11.55-3.05,4.81-2.35,5.81,3.26,6.12,3.32.18,7.23-1.08,9.25,3.11.68,11.46,1.31,22.9-.33,34.32a2.78,2.78,0,0,1-1.32,1.07c-2.87-.52-2.9-2.86-2.95-5-.08-3.15-1.55-4.67-4.61-5.47-14.24-3.71-28.39-7.77-42.59-11.65q-12-3.27-23.73-7.23a3.35,3.35,0,0,1-1-1.12c-1.47-5.5-2.07-11.21-6.58-15.62-6.42-6.29-13.44-6.52-20-.33-2.46,2.31-3.61,6.09-7.46,6.91-5.13-.8-10.66-.68-13.86-6-2.67-5.64-5.93-10.38-12.2-13-5.61-2.38-10-1.37-14.27,2.11-2.08,1.68-3.9,3.69-6.87,3.62-7.09-.28-13.6-2.63-20-5.55a19.19,19.19,0,0,1-2.87-4.46,48.67,48.67,0,0,0-3.33-6.1c-4.62-6.4-12.53-7.68-19.39-3.55-2.59,1.57-4.13,5-7.84,4.66-17.75-2.85-34.68-8.92-52-13.48-8.49-2.24-17-4.48-25.39-7.13-12.82-4.06-26-6.88-38.82-10.81-10.93-3.34-22-6.41-33.05-9.3q-17.82-4.63-35.5-9.94c-4-1.18-6.48-3.77-6-8.49.57-6.08-1-12.32,1.27-18.3,2-2.92.06-5.42-.89-8-4-10.88-4-10.88-15.68-10.88-20.14,0-40.29.11-60.43-.08-5,0-8,1.51-9.78,6.43-1.37,3.79-2.4,8.06-6.24,10.5-6.56,1.08-12.29-2.22-18.27-3.82C142.75,66,123.2,60.19,103.55,54.77,84.22,49.43,64.94,43.94,45.64,38.54,32.87,35,19.94,31.93,7.33,27.78A13,13,0,0,1,1,24Z" transform="translate(-1 -1)"/><path class="cls-1" d="M73,633H1V280c1.26-1.34,2.91-1.48,4.61-1.48l4,0H702.94a38.62,38.62,0,0,1,6,.18c1.42.22,2.53.88,2.67,2.49s-.84,2.39-2.24,2.84c-6.17,2-12.36,3.94-18.55,5.87-16.49,5.15-33,10.21-49.46,15.48-8.83,2.82-17.84,5.29-26.77,7.92-2.07.61-3.92-.43-5.85-.82-3.33-.87-5.37-3.75-8.26-5.33-6.44-3.54-12.94-6.75-20.61-4.15-9.29,1.29-15.45,7.44-21,14.12-3.27,3.9-6.69,7.87-8.31,12.93a7.18,7.18,0,0,1-3.28,3.3c-7.12,3.25-14.68,5.28-22.12,7.6Q499,349.12,472.77,357c-21.76,6.6-43.4,13.61-65.14,20.26-24.29,7.43-48.51,15.08-72.85,22.3a107.16,107.16,0,0,1-26.63,4.75c-1.52.17-3.11,0-4.47,1s-1.14,3-2.68,3.81c-10,4.53-20.49,7.49-31.05,10.28-2.44.65-4.72.33-6.1-2a6.23,6.23,0,0,0-3-2.46c-2.1-.77-4.28-.6-6.43-.6q-40.17,0-80.33,0c-1,0-2,0-3,.05-1.45.13-3.25-.18-3.84,1.6-.52,1.61,1.27,2.11,2.05,3.1a6.42,6.42,0,0,1,1,1.72c1.75,8.83,1.13,17.69.45,26.56-2.68,4.58-7.52,5.27-12,6.84-8,2.82-16.77,3.25-24.23,7.75-10.31.78-20.64,0-30.95.43-12.18.47-21.26,5.82-26.37,17.27-1.7,3.8-1.92,7.7-1.92,11.71q0,66.18,0,132.35C75.24,626.91,76.07,630.46,73,633Z" transform="translate(-1 -1)"/><path class="cls-2" d="M100,633H79c-2.92-2.38-2.26-5.75-2.27-8.83-.09-25.83,0-51.66,0-77.5,0-19-.15-38,.08-57,.13-10.71,5.64-18.15,14.91-23,3-1.6,6.34-1.9,9.71-1.91,20.5-.06,41-.66,61.49.13,30.49,1.17,61,.87,91.45.54,149-1.63,298-.18,446.93-.7,13.42,0,13.43,0,13.43-13.44q0-81.75,0-163.5c0-10.75,0-10.75-10.74-10.75q-347,0-694,0c-3.09,0-6.45.81-9-2V254c1.66-1.33,1.66-2.67,0-4V229c1.35-1.76,3.26-2.14,5.33-2.21,2.83-.11,5.66-.1,8.49-.1h203.8c4,0,8,0,12-.12a29.14,29.14,0,0,0,15.64.07A10.58,10.58,0,0,1,248,227a30.37,30.37,0,0,0,6.45.52q47.63,0,95.25,0c3.64,0,7.46.21,9.19-4.12.05-.61.1-1.22.11-1.84a75.39,75.39,0,0,1-.14-10.94c.14-2,.31-4,2.67-4.83,2.24.59,2.44,2.44,2.61,4.29.19,2.15.13,4.31.15,6.46.05,8.61.05,8.61,8.56,9.91,4.33.38,8.67.27,13,.27q175.19,0,350.38,0c6.6,0,13,.31,18.58,4.4,6.41,4.7,10.33,10.79,10.44,18.89.19,15.66.07,31.32.07,47q0,96.22,0,192.44c0,12.22-5.57,20.07-16.91,24.47a21,21,0,0,1-7.31,1.42c-3.83.06-7.66.06-11.5.06H140.25c-12.93,0-12.93,0-12.94,12.91,0,31.82,0,63.64,0,95.46,0,3.23.79,6.78-2.26,9.32H104a7.44,7.44,0,0,1-2-2.6A7.44,7.44,0,0,1,100,633Z" transform="translate(-1 -1)"/><path class="cls-3" d="M1,24a16.19,16.19,0,0,1,3.92.54A152.8,152.8,0,0,0,26.81,31.1c6.29,1.47,12.35,3.69,18.68,5.07,8.21,1.8,16.1,5,24.3,6.86,6.29,1.43,12,4.87,18.62,5,2.43,0,4.39,1.44,6.63,2.05q21.75,5.92,43.43,12.1c12.06,3.46,24.1,7,36.27,10,1.74.44,3.07,2.08,5.08,1.77,1.92,2.33,6.1,1.85,6.9,5.58a29.11,29.11,0,0,1,.58,7.95q0,62.42,0,124.84c0,3.46.47,7-1.65,10.18a5.31,5.31,0,0,1-4,1.59q-13.62.51-27.24,0a5.57,5.57,0,0,1-3.69-1.22,6,6,0,0,1-1.71-4c-.25-10-.86-20,.36-30a9.23,9.23,0,0,1,3.09-6.55c2.47-2.45,4.94-4.91,7.36-7.41,4.56-4.73,4.32-8.56-1.2-12.43a47.07,47.07,0,0,1-7-5.6c-2.46-2.52-4.63-2.71-7.18-.08-2.88,3-5.84,5.89-8.79,8.8-2.41,2.39-2.24,4.46.08,6.81,3.16,3.18,6.37,6.3,9.45,9.56,1.75,1.85,3.29,3.78,2.89,6.59.41,9.25.21,18.5.15,27.74,0,2.33-.2,4.64-1.87,6.51-2.14,1.74-4.74,1.41-7.19,1.41q-65.17.15-130.35,0c-2.77,0-5.76.35-7.82-2.27Z" transform="translate(-1 -1)"/><path class="cls-4" d="M125,633c.08-1.83.22-3.65.22-5.48q0-54,0-108c0-7.63-.59-6.55,6.8-6.55q302.22,0,604.44,0c5.06,0,10-.22,14.53-2.76,7.59-4.24,11.76-10.6,12.24-19.3.12-2.16.07-4.33.07-6.5q0-114.49,0-229c0-3.49.18-7-.92-10.41-3.3-10.24-11.66-16.32-23.11-16.35-26.66-.08-53.33,0-80,0q-139.5,0-279,0c-2.79,0-5.67.61-8.38-.63a5.28,5.28,0,0,1-2-3.8c.09-6-1.47-12,1.17-17.85,1.79-1.39,2.67-.06,3.45,1.26a6.42,6.42,0,0,1,.6,3.38c-.22,9.91.51,8.6,9.7,8.7,4.8.05,9.59-.11,14.39-.18,10.15.12,20.3.41,30.45.09,1.86.49,3.81,0,5.66.51,11.13-.63,22.26-.42,33.39-.44a61.43,61.43,0,0,1,8.47.37c1.25.05,2.49,0,3.73,0,1.55-.11,3.1-.06,4.65-.08,12.31-.54,24.61-.51,36.92,0a52.78,52.78,0,0,1,8.34,0c1.55-.05,3.11,0,4.67,0,12.23-.53,24.47-.51,36.71,0a11.79,11.79,0,0,0,4.39-.35,33.11,33.11,0,0,1,6.82.46c23.09-.82,46.18-.27,69.27-.42,4.48,0,9-.06,13.46.08,2.2.06,4.33.29,5.82,2.22a.68.68,0,0,0,.62,0,6.25,6.25,0,0,1,4.43-1.81A76.71,76.71,0,0,1,705,222c11.65.06,23.31.06,35,.18a30.36,30.36,0,0,1,27.88,19.11c2.1,5.4,1.41,11.18,1.84,16.79.3,3.81.07,7.65.07,11.48q0,107.64,0,215.26c0,5.82-.1,11.65-2.73,17.08-4,8.21-10,14-19,16.33-2.78,1.48-5.78,1.31-8.79,1.31H145c-1.82,0-3.7-.29-5.48.17-4.26,1.11-6.18,4-6.2,9.55-.08,22,0,44,0,66,0,10.16.07,20.32-.05,30.49,0,2.63.22,5.41-2.26,7.32Z" transform="translate(-1 -1)"/><path class="cls-5" d="M1,275l405.39,0q151.7,0,303.41,0c8.2,0,7.22-1,7.23,7.12q0,89,0,178c0,1.33-.06,2.66,0,4,.09,1.94-.84,2.71-2.7,2.66-1.67-.05-3.33,0-5,0H111.51c-3.33,0-6.67-.06-10,.06A23,23,0,0,0,79,489.54c-.08,2.83,0,5.67,0,8.5q0,67.48,0,135H73c0-5-.14-10-.14-15,0-42.17.43-84.34-.21-126.5C72.38,473.57,87,459.53,104,460c10.32.32,20.66-.05,31-.12a83.7,83.7,0,0,1,34.09-1.18c3.14,2.5,6.74,3,10.68,3q14.18,0,28.35.52c14.41.55,28.84-1,43.28-.6,2.79.08,4.56-1.71,6.68-2.92a12.25,12.25,0,0,1,4.34-.94c22-.07,44-.51,66.06.23,1.3,0,2.59,0,3.89,0q29.56-.87,59.15,0c1.28,0,2.57,0,3.85,0,17.34-.61,34.69-.56,52,0,1.57,0,3.14,0,4.71,0,3.42-.18,6.84-.61,10.27-.06,14.33-.27,28.65-.74,43,.18a29.4,29.4,0,0,0,5.55,0c1.54-.14,3.08-.13,4.63-.13A191.77,191.77,0,0,1,539,458a226.85,226.85,0,0,1,25.55,0c1.57,0,3.13,0,4.7,0a103.61,103.61,0,0,1,16,0q28.77-.76,57.54,0a235.75,235.75,0,0,1,25.08,0c11-.61,22-.14,33-.31,6.81-.11,7.73-1,7.76-7.92.07-21.17,0-42.33,0-63.49,0-3.34,0-6.67.32-10-.47-7.25-.19-14.51-.59-21.76,1.51-2.55.34-5.21.33-7.82-.09-18.5-.14-37,0-55.48a16.26,16.26,0,0,1,2.07-7.62c1.3-2.45.95-4.24-2.43-4.11-1.33.06-2.67,0-4,0q-348.39,0-696.78-.05c-2.39,0-5.56,1.38-6.64-2.45Z" transform="translate(-1 -1)"/><path class="cls-3" d="M131,633q.09-24,.17-48c0-19.82,0-39.64,0-59.46,0-6.48.06-6.52,6.77-6.53q19.49-.06,39,0H730.09c6,0,12,.22,17.91-.81-1.17,1.84-3,1.8-4.89,1.81l-10.5,0H140.38c3.11,2.22,6.13,4.36,10.11,4,3.22-.31,6.37.06,9,2,2.89,2.14,6.41,1.49,9.52,2.5,13.21,4.33,27.07,6.19,40.27,10.74,5.07,1.75,10.65,2.41,15.81,4.26a4,4,0,0,0,3.76-.68l.78.45c2.45,4.2,1.28,8.63.87,13-.7,1.49-2.1,2-3.5,2.56-9.25,3.69-14.33,11.54-19.29,19.49-1,15.45-.13,30.89-.47,46.32-.07,2.93.51,6.09-2.27,8.3H183c-.37-.37-1.05-.3-1.3-.58-4.17-4.73-8-2.8-11.7.58Z" transform="translate(-1 -1)"/><path class="cls-3" d="M281.2,558c4.65-.72,8.92,1.31,13.09,2.51,16,4.58,32.25,8,48.22,12.48,11.93,3.37,24,6.22,36,9.4,8.29,2.19,16.78,4,25,6.23,13,3.49,26,6.85,39,10.18,11.08,2.84,22,6.17,33.18,8.71,13.41,3.07,26.66,6.75,40,9.91,2.74.64,3.24-.58,3.26-2.78q.09-10.24.22-20.49c2.76.26,2.86,2.43,2.93,4.37.34,9.9.28,19.79,0,29.69A5.91,5.91,0,0,1,520,633H359c-2.46-1.89-2.18-4.65-2.27-7.28-.3-8.93.48-17.88-.48-26.79-.71-4.88-5.36-7-7.66-10.74-.85-1.38-2.46-2.3-3.3-3.72-2.05-3.47-5.14-4.29-8.9-4.25-8.65.09-17.3.06-25.95,0-2.32,0-4.68.17-6.86-.89-1.46-1-2.78-3.07-4.75-.66a2.83,2.83,0,0,1-2.06-.18c-2.07-1.37-1.64-3.71-2.21-5.9-.8,2.54-.27,5.53-3.25,6.78-3.67,1.15-7.26,1.38-10.7-.73a4,4,0,0,1-1.18-2.64c-1-4.4-.72-8.87-.58-13.32A5.63,5.63,0,0,1,281.2,558Z" transform="translate(-1 -1)"/><path class="cls-3" d="M1,277c1,1.13,2.16,2,3.86,1.89,1.15-.1,2.33,0,3.49,0H696.66c3.5,0,7-.09,10.5,0,4.45.05,4.75.34,4.64,4.94-.08,3.49-.51,7-.53,10.47-.08,18.16,0,36.32-.15,54.48,0,2.07.72,4.38-1.09,6.17-2.36.29-3.47-1.43-4.83-2.89-8-8.58-16.64-16.05-28.44-18.9a69.53,69.53,0,0,0-8.81-1.28c-14.12.84-25.15,7.76-34.56,17.75-1.65,1.74-3.09,3.54-5.85,2.87a5.08,5.08,0,0,1-2.61-3.93c-1.19-6.28-3.49-12.24-5.25-18.36a70.41,70.41,0,0,0-9.76-14.63c-1.32-1.59-3.19-3-1.89-5.55,3.26,1.89,6.2.81,9.62-.15,7.18-2,14.09-4.84,21.51-6.29,4.34-.85,8.77-2.75,13.12-4.27,10.65-3.74,21.52-6.8,32.25-10.21,8.55-2.72,17.06-6,26.07-7.61,0-1.52-1.37-1.34-2.44-1.41-1.5-.09-3,0-4.5,0H1Z" transform="translate(-1 -1)"/><path class="cls-6" d="M280.87,576.23c.16.61.33,1.21.49,1.82,2.81,3.2,1.69,7.12,1.91,10.77a76.63,76.63,0,0,1-.26,8.3c.56,9.88.26,19.76.23,29.63,0,2.33-.13,4.66-2.24,6.25h-7c-5-6.22-5-6.22-10,0h-7c-5-6.22-5-6.22-10,0h-8c-5-6.22-5-6.22-10,0h-7c-5-6.22-5-6.22-10,0h-7q0-25.8,0-51.6c0-1.8-.26-3.64.46-5.39a21.75,21.75,0,0,1,10.05-2.35c19.06.06,38.13,0,57.2.08C275.62,573.76,278.83,573.2,280.87,576.23Z" transform="translate(-1 -1)"/><path class="cls-7" d="M520,633l.09-34.2c0-1.6.54-3.32-.91-4.64L519,594a1.57,1.57,0,0,1,.31-1.83c1.95-1.72,4.39-1.41,6.67-1.42q44.21-.15,88.4,0c2.44,0,5.06-.32,7.11,1.62,2,3.33,2.49,6.6-.5,9.68q-.69,15.47,0,30.94Z" transform="translate(-1 -1)"/><path class="cls-8" d="M281,633l.12-36.2c1.7-2,4.06-2,6.39-2,21.05-.11,42.11-.06,63.16,0a14.84,14.84,0,0,1,8,2.36c.92,12,.17,24,.37,35.94h-8c-1.75-1.26-2.07-3.18-2.45-5.11a2.45,2.45,0,0,0-2.79-2.15,2.42,2.42,0,0,0-2.31,2.15c-.37,1.94-.7,3.85-2.45,5.11h-7c-1.77-1.27-2.07-3.21-2.44-5.16a2.6,2.6,0,0,0-5.13,0c-.34,2-.66,3.89-2.43,5.16h-7a6.36,6.36,0,0,1-2.33-4.72c-.2-1.67-1.14-2.77-3-2.67-1.61.09-2.29,1.23-2.41,2.66A6.18,6.18,0,0,1,307,633h-8c-1.81-1.28-2.09-3.24-2.42-5.23a2.44,2.44,0,0,0-2.83-2.18,2.39,2.39,0,0,0-2.34,2.18c-.3,2-.6,4-2.41,5.23Z" transform="translate(-1 -1)"/><path class="cls-9" d="M1,222l145.3,0c1.52-1.64,3.09-1.39,4.67-.11q16.93.48,33.86,0c1.73-1.87,4-2.12,6.37-2.14,11.58-.07,23.16-.1,34.73,0,2.35,0,4.63.31,6.56,1.83,1.57,2.27,1.72,4.4-.65,6.26-2,1.35-4.2.8-6.31.8q-109,0-218.07,0c-2.16,0-4.33-.26-6.46.3Z" transform="translate(-1 -1)"/><path class="cls-10" d="M289,633c0-1.65.07-3.31.1-5,.08-4.85.21-5,5-5s5,.14,5.06,5c0,1.65-.09,3.3-.14,5Z" transform="translate(-1 -1)"/><path class="cls-11" d="M307,633c-.05-1.47-.13-3-.13-4.42,0-5.07,3.67-7.29,8.37-5.17a2.7,2.7,0,0,1,1.68,2.71c0,2.29.05,4.59.08,6.88Z" transform="translate(-1 -1)"/><path class="cls-12" d="M324,633c0-1.65-.13-3.3-.1-5,.08-4.33.91-5.1,5.31-5,4,0,4.63.65,4.79,4.54.07,1.81,0,3.63,0,5.45Z" transform="translate(-1 -1)"/><path class="cls-10" d="M341,633c0-1.8-.05-3.6,0-5.4.11-3.59,1.07-4.48,4.74-4.56,3.92-.09,5.15,1,5.27,4.56.06,1.8,0,3.6,0,5.4Z" transform="translate(-1 -1)"/><path class="cls-13" d="M264,633c0-1-.11-2-.11-3,0-5.08.15-5.2,5.25-5.16,4.6,0,4.62.05,4.75,4.67,0,1.15.07,2.29.11,3.44Z" transform="translate(-1 -1)"/><path class="cls-14" d="M247,633c-.07-1-.19-2-.19-3,0-5,.18-5.19,5.29-5.16,4.63,0,4.63,0,4.77,4.66,0,1.15.09,2.3.13,3.45Z" transform="translate(-1 -1)"/><path class="cls-15" d="M229,633c0-1,.09-2,.12-3,.12-5.19.17-5.24,5.25-5.16s5.06.1,4.63,8.11Z" transform="translate(-1 -1)"/><path class="cls-16" d="M212,633c0-1,0-2,0-3,.1-5.16.14-5.2,5.26-5.14,4.62.05,4.69.11,4.77,4.65,0,1.15,0,2.3-.07,3.45Z" transform="translate(-1 -1)"/><path class="cls-17" d="M170,633c1-1.85,1.95-3.76,3.06-5.55,1.64-2.65,3.78-2.73,5.83-.41,1.61,1.83,2,4.5,4.11,6Z" transform="translate(-1 -1)"/><path class="cls-18" d="M100,633c0-2.32.1-4.63,0-7,0-1.69.7-2.37,2.36-2.33s1.8,1.11,1.77,2.35c-.05,2.31-.12,4.62-.18,6.93Z" transform="translate(-1 -1)"/><path class="cls-19" d="M1,250a4.32,4.32,0,0,1,1.42-.26c1.39.22,3.52-1,3.71,1.77.21,3-2,2.26-3.67,2.38L1,254Z" transform="translate(-1 -1)"/><path class="cls-3" d="M429.89,221.92l-27.88.17c-1.18,0-2.35,0-3.12-1.14-1.79-1.12-2-2.94-2.06-4.78-.1-7.61-.49-15.23.29-22.82.34-.55-.21.1.16-.45,4.89-7.25,4.87-7.21-3.07-11.29s-16-8.08-23.71-12.71c-2.7-1.63-4.94-1.26-7.45.1-8.91,4.81-17.91,9.46-26.91,14.1-4.6,2.37-4.76,3.59-1.31,7.33a8.33,8.33,0,0,1,2,2.81c.81,8.1.4,16.2.31,24.29a7,7,0,0,1-1.76,5c-1.62,1.14-3.49.93-5.29.93q-26.12,0-52.23,0c-1.8,0-3.68.27-5.28-.92-1.84-2-1.86-4.56-1.87-7.05q-.14-65.37,0-130.72c0-2.3-.17-4.71,1.6-6.62a1.69,1.69,0,0,1,2.63.2c-1.75,6.22-.76,12.58-.81,18.87,0,3.42,3.3,3.87,5.67,4.64,4.56,1.5,9.31,2.45,13.9,3.89,6.48,2,13,4.12,19.56,5.51,11.19,2.36,22,6,32.91,9.12,7.9,2.25,15.91,4.43,23.79,6.84,5.46,1.67,11.07,3.34,16.7,4.59,7.44,1.65,14.72,3.86,22,6,7.8,2.36,15.66,4.4,23.54,6.43,7.67,2,15.25,4.34,22.86,6.57a17.94,17.94,0,0,0,5.84,1.15c1.41-.06,2.69.21,3,1.9,1.54,1.86.62,3.78.17,5.7-.61,2.56-1.74,5.06-1,7.8s-.87,5.63.24,8.41c.29,2.26-.71,4.44-.44,6.7a14.38,14.38,0,0,1,.07,4.72c-.23,2.88,1.56,3.38,3.83,3.08s4.37-.6,5.62,1.9a3.6,3.6,0,0,0,1.49,2c5.92,2.57,6,7.56,5.64,12.89-.22,3.31-.06,6.64,0,10,0,1.85.08,3.68-1.58,5H435.14c-1.74-2.14-.54-4,1.2-4.82,2.5-1.2,3.75-3.52,5.71-5.16,2.48-1.25,5.8.19,7.85-2.45,3.29-8-.72-14.68-4.86-20.63-3.77-5.41-10.3-5.4-16.35-4.49-4.32.66-11.19,8.78-11.4,13.16-.11,2.32-.42,4.61-.63,6.91-.47,6.11-.47,6.11,6.76,7.28C425.67,215.13,429.1,217.68,429.89,221.92Z" transform="translate(-1 -1)"/><path class="cls-20" d="M577.8,86.27c7.71-4.74,14.86-5.72,22-.6a17.76,17.76,0,0,1,6.85,19.44,18.16,18.16,0,0,1-16.23,12.74c-5,.19-10,.09-15,.09-25.14,0-50.27,0-75.4-.07a22.44,22.44,0,1,1,1.82-44.82c3.78.32,5.39-.34,6.78-4,5.44-14.54,19.57-23.49,35.18-22.83,14.8.62,28.36,11.41,32.55,26C577.65,76.53,577.57,81.06,577.8,86.27Z" transform="translate(-1 -1)"/><path class="cls-20" d="M621,602.06l0-8.89c.41-3.24-1.94-2.88-3.88-2.9-6.79,0-13.58.1-20.36-.09-2.2-.06-4.83.45-5.86-2.51-6.59-15.33,6.39-32.39,23.34-30.36,3.39.4,4.4-.52,5.57-3.47,9.94-25.19,40.79-31.4,59.61-12.12a18.55,18.55,0,0,1,4.55,6.46c2.07,1.9,2.72,4.05,1.44,6.71a19.58,19.58,0,0,0-1,3.34c-2.19,8-2.19,8-10.29,8.14-5.4.08-9,2.89-9.58,7.56s2.34,8.88,7.49,10.26a27.13,27.13,0,0,0,7,.54c11.15.06,22.31-.13,33.47.13,2.25,0,5.34-.63,5.63,3.19-1.79,8.58-8.27,14-17.32,14C674.17,602.12,647.6,602.06,621,602.06Z" transform="translate(-1 -1)"/><path class="cls-21" d="M718.06,588.05c-1.69-1.55-3.78-1-5.73-1-12.32,0-24.65,0-37,0-4.68,0-8.66-1.26-11.58-5.51-2.5-3.65-2.3-7.28-.92-10.88A9.64,9.64,0,0,1,672,564a31.44,31.44,0,0,1,3.5,0c4.93.39,4.94.41,6.14-4.53.54-2.26.78-4.69,2.16-6.6,1.21-1.68.46-3.15.15-4.73,1.71,1.36,2.66.09,3.71-1a23.61,23.61,0,0,1,39.2,8c.86,2.17,1.88,2.53,4,2.44,9.22-.42,15.9,5.45,16.09,13.85.2,8.83-6,15.15-15.29,15.42-3,.08-6,0-9,0C721.08,586.85,719.4,586.78,718.06,588.05Z" transform="translate(-1 -1)"/><path class="cls-22" d="M275,78.37l-1.92-.12c-1.78,1.84-4.1,2-6.45,2q-37.58.13-75.15,0c-2.35,0-4.67-.15-6.47-2a13.73,13.73,0,0,0-2.47-.16c-3.74.42-3.73-1.52-2.69-4.16,2.86-4.27,4.66-9.1,6.49-13.81,1.39-3.57,3.38-4.24,6.74-4.2C205,56.1,217,56,229,56s24,.08,35.95-.07c3.32,0,5.42.54,6.68,4.16,2,5.75,4.76,11.22,7.1,16.6C277.69,78.5,276.1,77.81,275,78.37Z" transform="translate(-1 -1)"/><path class="cls-23" d="M672,222l-88.91,0c-1.51-2-.28-3.18,1.34-3.86,2.33-1,3.46-3,4.94-4.77a4,4,0,0,1,2.22-1c4.21-.11,5.6-2.64,5.62-6.41-.05-2.2-.85-4.34-.49-6.56,1-2.41-.94-5.78,2.39-7.45,4.06-.14,7.81,1.09,11.65,2.29,8.86,2.77,17.86,5.12,26.8,7.63,5.07,1.43,10.14,2.89,15.23,4.26,6.22,1.68,12.47,3.29,19.21,5.06Z" transform="translate(-1 -1)"/><path class="cls-3" d="M531.18,221.83a34,34,0,0,1-8.12.17c-1.94-1.48-2.84-3.56-3.64-5.78-2.61-7.24-7.73-11.53-15.49-11.86-6.62-.28-12.79,4.82-15.58,12.41A10,10,0,0,1,484.8,222l-3.75-.1a4.66,4.66,0,0,1-1.56-4c0-6.49.16-13-.11-19.48a4.55,4.55,0,0,1,2.57-4.49,11.27,11.27,0,0,0,4.15-4.19,4.12,4.12,0,0,1,1.68-1c7-1.91,7.49-2.68,7.73-10.06.11-3.47-1-6.88-.48-10.31.29-1.83,0-4.06,2-5.32,6.95.81,13.35,3.83,20.19,5.08,2.76,3.14.34,6-.75,8.69-1.58,4-2.54,7.82-.41,11.84,2,3,6.09.7,8.32,3.2,1.61,3,2.87,6.34,6.53,7.63.6.21,1,.88,1.32,1.45C534.43,204.55,533.74,218.38,531.18,221.83Z" transform="translate(-1 -1)"/><path class="cls-24" d="M280.87,576.23l-69.92,0c-1.83,0-3.65-.17-5.48-.25,4-4.58,8.23-9,12-13.79,3-3.85,6.55-5.83,11.46-5,2.24,1.52,3.42-1,5.19-1.35a3.66,3.66,0,0,1,2,.31c2.06,1.46,3.41-1,5.23-1,7.18-.55,14.42-1.9,21.16,2,6.2,1.1,12.49-.2,18.69.76Z" transform="translate(-1 -1)"/><path class="cls-3" d="M576.89,222c-14,.27-28,.33-41.94,0a4.57,4.57,0,0,1-1.58-3.92,85.22,85.22,0,0,0-.33-14.81c-.43-3.38.42-6.13,4-7.62a9.32,9.32,0,0,0,3.56-3.34,4.36,4.36,0,0,1,2.89-1.72c6.14-1.34,6.14-1.34,5.8-7.79-.25-2.52-1.09-5.21,2.05-6.67a11.69,11.69,0,0,0,8.6,4c1.77,0,3.3.43,4.16,2.16a3.35,3.35,0,0,1,1.34,2.13c-.38,5.56-.63,11.14-.8,16.71-.28,8.77.2,9.26,8.24,11.74C573.82,216,577.91,217.85,576.89,222Z" transform="translate(-1 -1)"/><path class="cls-25" d="M551.33,176l-.21,7.91c-1.71,2.34-4.21,2.27-6.7,2.14-7.55-.4-15.09,0-22.63.18-3.15.06-5.84.51-6.52,4.32a1.44,1.44,0,0,1-1.88,1.1c-.52-7.32-1.3-14.66,3.3-21.2a6.54,6.54,0,0,0,.51-2.37c2.25-.84,3.4-3,5.27-4.34,5.2-3.69,10.32-4.78,16.55-2C545.59,164.7,549.64,169.19,551.33,176Z" transform="translate(-1 -1)"/><path class="cls-26" d="M461.22,166.88c-.69-4.65.68-8.87,2.73-12.95a17,17,0,0,1,16.41-8.78c6.48.4,11.28,4.22,14,10.34.47,1,1.11,2,1.67,3,.09.14.25.27.27.42,1.05,9.41.72,9.67-8.83,9.89-6.28.14-12.57,0-18.85.14C466,169,463.23,169.14,461.22,166.88Z" transform="translate(-1 -1)"/><path class="cls-27" d="M563.94,184.43l.15-2.28a37.48,37.48,0,0,1,5.79-8.46c8.33-8.61,23.41-4.33,27.47,7.54a21.37,21.37,0,0,1,1.44,9.69c-3.2,3-7.22,2.17-10.9,2-5.63-.28-11.23.05-16.85,0C563.74,192.9,562.88,192,563.94,184.43Z" transform="translate(-1 -1)"/><path class="cls-28" d="M563.94,184.43v5.43c6.35,1.22,12.36.27,18.33.62,5.5.31,11-.57,16.52.44l.33,1.05-.38,8c-4.25,2.09-8.78.81-13.17,1-5.27.21-10.55-.38-15.82.09-1.25.11-3.1-.14-2.87,1.77.19,1.61,1.94,1.5,3.25,1.49,7.74-.07,15.48.27,23.21,0,2.38-.08,4.21.58,5.45,2.66.4,7.73-.25,8.25-9,7.22-6,5.24-12.72,5.31-17,.18-2.31-.08-4.63-.19-7-.22-1.75,0-2.87-.61-2.83-2.57.18-8.77-.36-17.55.32-26.31C563.43,185,563.76,184.7,563.94,184.43Z" transform="translate(-1 -1)"/><path class="cls-29" d="M461.22,166.88c5.15-1,10.35-.14,15.52-.39,6.27-.32,12.58.39,18.88-.45.83-2.58.23-5.08.38-7.53,1.41,1.27.55,3,1,4.52,0,6.75-.12,13.49-.11,20.24,0,7.12-3.07,9.33-9.82,7-2.54,2.1-5.31,3.56-8.75,3.16-2.22-.53-4-2.29-6.47-2.14a15.31,15.31,0,0,0-1.52-.37c-3.45.15-7,.52-9.27-2.94.05-1.67.1-3.34.14-5,1.24-2.08,3.08-2.67,5.45-2.68,7.57,0,15.15.17,22.72,0,1.48,0,3.52.32,3.7-1.48.21-2.19-2-1.73-3.36-1.75-7.09-.14-14.18-.09-21.27-.06-2.45,0-5,.5-7.23-1Z" transform="translate(-1 -1)"/><path class="cls-30" d="M590.89,587.67H624c.89,3.22,1.11,5.61-3,5.5-25.44-.06-50.88-.17-76.33-.14-8.47,0-16.95-.42-25.42.27-3.18-.72-4-2.46-2.24-5.27q33.21-.07,66.4-.16C585.9,587.87,588.39,587.74,590.89,587.67Z" transform="translate(-1 -1)"/><path class="cls-31" d="M672.63,186.08c-3.83-.06-7.66-.09-11.48-.2s-5.43-2.37-3.57-5.38c4.86-7.86,9.38-15.92,14-23.92,1.95-3.38,3.73-3.18,5.88.35q6.67,11,13.24,22.09a10.25,10.25,0,0,1,1.27,3.69c.27,1.84-.22,3.22-2.61,3.18-4.16,0-8.31.1-12.47.16C675.48,187.36,674.06,187,672.63,186.08Z" transform="translate(-1 -1)"/><path class="cls-32" d="M262.51,557.25c-7.57.25-15.15.18-22.71-.31a3.72,3.72,0,0,1-2-2.12c-.46,1-.68,2.13-1.91,2.46l-2-.33c-3.06-1-2.83-3.52-2.94-6-.12-2.66.93-5.63-1.73-7.74l-.36-.34c2.63-1.32,4.41-1.41,6.55,1.58,1.76,2.47,5.7,2.59,8.74,3.54,9,2.79,18.31,4.14,27.11,7.47,2.7,1,5.58,0,8.26,1.79Z" transform="translate(-1 -1)"/><path class="cls-33" d="M672.63,186.08l4.26,0,.16,26c1.69,3.32,3.58,6.64-.08,9.92a10.25,10.25,0,0,1-4.34.09Z" transform="translate(-1 -1)"/><path class="cls-34" d="M677,221.93c0-3.31,0-6.61.08-9.92,3.23,2.42,6.88,3.43,10.88,4.15,5.56,1,11,2.94,16.41,4.55.32.09.45.83.67,1.26C695.66,222.25,686.31,222.29,677,221.93Z" transform="translate(-1 -1)"/><path class="cls-35" d="M517,588c-.59,2.33.51,3.93,2.24,5.27a.88.88,0,0,1-.21.7c-1.63-.08-3.58.27-3.83-2.11C515,590.34,514.42,588.38,517,588Z" transform="translate(-1 -1)"/><path class="cls-3" d="M391.81,460l-59.51,0a4,4,0,0,1-1.79-3.33c-.07-10,.1-20.09-.19-30.13-.05-1.58.11-3.35,1.58-4.5a64.56,64.56,0,0,1,13.67-1c2.68.87,5.26-.23,7.88-.44a2.76,2.76,0,0,0,2.67-2.56c.12-2.61,1.72-5.08.75-7.77.24-3.88-1.47-5.68-5.43-5.08-4-.95-7.91.57-11.87.16-4.39-2.65-8.8,0-13.21,0-4.45-1.05-8.86.49-13.3.15-1.94-1.23-5.47.46-6.05-3.27a11,11,0,0,1,2.47-.22c9.1,1.3,17.21-2.25,25.55-4.95,9.78-3.17,19.68-5.94,29.5-9,10.59-3.27,21.09-6.89,31.75-9.92,11.63-3.32,23-7.37,34.76-10.43,4.4-1.15,8.8-2.8,13.16-4.34,11.41-4,23.07-7.28,34.62-10.82q16.59-5.1,33.28-9.93c11.62-3.36,23-7.49,34.73-10.63,3.33,3.65.27,7.28-.31,10.74-1.55,9.11-4.12,18-5.69,27.16-1,5.7-1.19,11.51-2.56,17.14-.44,1.81-.86,3.55-2.25,4.88a2.68,2.68,0,0,1-1.47.58c-2.55-.57-3.07-2.71-3.72-4.79a20.52,20.52,0,0,0-6-9.6c-10.57-9.35-25.46-3.51-29.24,11.41-.68,2.68-1.42,5.51-.54,8.36.58,3-.86,6,.24,9,.16,2.7-.31,5.38-.38,8.06-.27,4.84,1.41,7.78,6.87,7.64a5.3,5.3,0,0,1,5,3.49c9.23,5.4,5.81,14.14,5.85,22a16.07,16.07,0,0,0-2.34,6.86c-.39,2.91-2,4.54-5.15,2.54-1.87-1.36-2.23-3.63-3.29-5.48-4.09-7.14-10.08-11.91-18.43-11.52-7.76.37-13.64,4.52-16.88,12-1.13,2.64-1.42,5.93-4.42,7.54l-10.27,0a5.79,5.79,0,0,1-1.89-4.86c.07-4.78.06-9.55,0-14.33,0-2.89.91-5.27,3.63-6.46,3.51-1.54,5.25-4.32,6.2-7.8.81-1.51,2.24-1.75,3.8-1.87,7-.51,7-.53,7.27-7.08.91-11.19-3.74-20-12.7-24.07-10.79-4.88-25.41,3.16-26.81,14.92-.34,2.79-.88,5.49-1.48,8.2a18.28,18.28,0,0,1,.27,1.95c.25,6,.33,6.15,6.64,6.19,1.7,0,3.3,0,4.51,1.44a6.56,6.56,0,0,0,2,2.19c6.17,3.59,7.41,9.13,6.72,15.71a84.87,84.87,0,0,0,0,10.46c0,2.06-.15,4-1.88,5.4l-53.05,0c-2-2-1.76-4.49.32-5.49,4.25-2.05,5.77-6.19,8.49-9.41a3,3,0,0,1,.88-.43c8.17-1.84,9-2.44,8.61-11-.29-6.83.44-13.78-1.47-20.5-1.13-6.67-3.92-12.28-10.21-15.55C395,394,387.9,395,382.52,400.25a23.53,23.53,0,0,0-7.41,19.68c.55,3-1,6,.22,8.91.25,2.71-.44,5.35-.6,8,1,6.7,1,6.7,7.84,7.85a5.51,5.51,0,0,1,2.28.86,17.51,17.51,0,0,0,5.24,4.47C394.28,452.58,394.69,455.57,391.81,460Z" transform="translate(-1 -1)"/><path class="cls-36" d="M534.9,391.92c1.85-9.33,2.43-18.89,4.43-28.16,1.57-7.29,2.91-14.67,5-21.89.94-3.2,2.2-6.46,2.48-9.88l2.15-3c4.79-4.91,6.65-5.19,12.37-1.16,2.81,2,5.65,2.43,8.31.47,5.92-4.37,11.29-4,16.43,1.17a4.51,4.51,0,0,1,1.13,3.36c.18,25.19.07,50.38,0,75.56,0,2.3.18,4.66-.83,6.84-2.36,2.95-4.59,1.3-7-.12-3.44-2.07-6.18-5.11-11-5-5.46.1-10.12,1.24-14.09,5a8.53,8.53,0,0,1-6.78,2.52c-4.84-.58-9.74-.82-14.25-3-2.06-2.54-1.74-5.64-2-8.59C532.62,401.34,532.76,396.38,534.9,391.92Z" transform="translate(-1 -1)"/><path class="cls-37" d="M258.05,460c1.06,2.25,1.06,3.93-2.09,4h-2q-40,0-79.92,0c-2.92,0-5.51,0-5.1-4.05-3.65-4-2.1-8-.06-12q.06-13.46.11-26.9c1.31-2.25,3.56-2.27,5.71-2.29,26.1-.16,52.19-.2,78.29,0,2.34,0,4.72.16,6.08,2.6,1.55,3.64,1.2,7.51,1.22,11.31,0,7,.08,14-.05,20.95C260.2,456,260.12,458.37,258.05,460Z" transform="translate(-1 -1)"/><path class="cls-23" d="M258.05,460c-.27-12.68-.5-25.36.13-38,3-2.64,1.69-7.4,4.9-9.92,2.05.35,1.86,2,2,3.45.18,2.3,1.58,2.7,3.47,2.11,9.23-2.88,18.46-5.74,27.65-8.73A14.75,14.75,0,0,1,301,408a2.06,2.06,0,0,1,1.33,2.41c-1.45,3.52.52,6.69.69,10,.16,3.05,1.95,4.38,4.33,5.34,2.54,1,4-.72,5.45-2.37a5,5,0,0,1,1.62-1.14,35,35,0,0,1,5.84-.93,29.82,29.82,0,0,0,4.44-.2c3.53,0,5.45,1.61,5.59,5.37.36,9.41.18,18.82.24,28.22,0,2,.21,4-1.74,5.37Z" transform="translate(-1 -1)"/><path class="cls-38" d="M121,347c.12-17.39,12.45-28.25,27.27-28.48,15.38-.24,27.6,10.85,27.7,27.43.1,16.14-11.84,27.27-26.18,27.89A27.68,27.68,0,0,1,121,347Z" transform="translate(-1 -1)"/><path class="cls-39" d="M263.08,412.06c.06,1.46.15,2.92.16,4.39,0,4.91,0,4.91-5.06,5.53-1.13-1-2.5-.77-3.82-.78q-41.93-.17-83.87-.29a12.59,12.59,0,0,0-1.49.17,2.55,2.55,0,0,0-2.27-.76c-3.18.34-3.84-1.26-3.9-4.14-.06-3.08.57-4.46,4-4.44C198.94,411.93,231,412,263.08,412.06Z" transform="translate(-1 -1)"/><path class="cls-21" d="M586.19,331.83l-1.27-1.48a12,12,0,0,1-2.2-7.49c0-3-.15-6,0-8.94.29-4.9-.08-9.53-4-13.08,9.81-2.69,18.16.56,25.87,6.37,1.18.89,2.32,1.85,3.47,2.77,4.89,5.76,10.15,11.26,13,18.48-2.05,5.69-8.4,8-13.55,4.09-4.36-3.29-7.85-3.06-12.08-.22C592.39,334.31,589,335.56,586.19,331.83Z" transform="translate(-1 -1)"/><path class="cls-40" d="M578.69,300.84a17,17,0,0,0,2.46.13c3.14-.25,3.92,1.42,3.88,4.22-.11,8.38-.09,16.77-.11,25.16-6.76-4.42-7.66-4.42-14,.12-3.48,2.48-7,2.58-10.33-.4-3.73-3.4-7.43-3.9-11.6-1.11C555.29,315.79,563.72,304.86,578.69,300.84Z" transform="translate(-1 -1)"/><path class="cls-41" d="M168.89,448l.06,12-34,0c2.56-2.64,6.18-2.76,9.36-3.89C152.47,453.15,161,451.61,168.89,448Z" transform="translate(-1 -1)"/><path class="cls-3" d="M314,423.9a10.82,10.82,0,0,1-1.1,1.63c-1.69,1.75-3.2,3.94-6.14,3.32-1.62-.34-5.58-5.48-5.71-7.45s.05-4.23-1.45-6.08a2.4,2.4,0,0,1,.31-3.17A5.71,5.71,0,0,0,301,408c.21-1.74-.56-3.76,1.44-5,2.76.65,2.61,2.89,2.66,5,0,1.75-.59,3.5,0,5.24a3.16,3.16,0,0,1,.06,1.92c-1.7,4.16.12,5.75,4.14,5.76C310.69,422.16,313.19,421.71,314,423.9Z" transform="translate(-1 -1)"/><path class="cls-42" d="M303.65,414.28c-1.5-1.89-.56-4.06-.75-6.1-.15-1.72.52-3.54-.49-5.18,1.36-1.28,3.1-.3,4.6-.79,1.91,1.43,4.69,0,6.45,2A11.82,11.82,0,0,1,303.65,414.28Z" transform="translate(-1 -1)"/><path class="cls-40" d="M335,222l-.17-29.94c-.49-2.57,1.41-3.59,3.15-4.47,8-4.06,15.74-8.68,23.85-12.56,3.63-1.74,7-1.89,10.46.12,7.61,4.46,15.66,8.1,23.24,12.61,1.74,1,3.51,2,3.46,4.45q-.06,14.37-.1,28.75c-1.41,1.08-3.06,1.13-4.74,1.13H373.51c-.74-3.43-.21-6.91-.39-10.34-.1-1.95.48-4-1.07-5.71a75.2,75.2,0,0,0-10.07.12c-1.71,3.39-.48,7-.82,10.53-.17,1.79-.14,3.59-.2,5.38a4.52,4.52,0,0,1-3.61,1.4A132.12,132.12,0,0,0,338,224.54a4.16,4.16,0,0,1-2.51-.92A1.63,1.63,0,0,1,335,222Z" transform="translate(-1 -1)"/><path class="cls-43" d="M231.84,227.86c-.11-1.91-.23-3.82-.34-5.73-3.11-6.86-2.35-14-.59-20.85.94-3.68,5.84-5.68,9.4-5.08a9.51,9.51,0,0,1,7.72,8.66,103.27,103.27,0,0,1-.07,17c.06,2.29,0,4.54-1.94,6.21C241.91,231,234.81,230.87,231.84,227.86Z" transform="translate(-1 -1)"/><path class="cls-44" d="M235.66,487.16c.38,5.77.38,5.77-5,5.77H196c-1.44-1.84-.76-3.65-.72-5.78Z" transform="translate(-1 -1)"/><path class="cls-45" d="M667.84,248.7a15.37,15.37,0,0,1-.17,6.19H652.33c-7.47,0-15,0-22.42.05-2.35,0-2.7-1.16-2.7-3.1s.27-3.18,2.64-3.17C642.43,248.72,655,248.7,667.84,248.7Z" transform="translate(-1 -1)"/><path class="cls-45" d="M667.74,234.75a15.38,15.38,0,0,1,.14,5.61c-2.16,1-4.34.51-6.45.53-10.13.06-20.26,0-30.39.05-2.12,0-3.86.14-3.89-3,0-2.83,1.19-3.28,3.58-3.26C643,234.79,655.25,234.75,667.74,234.75Z" transform="translate(-1 -1)"/><path class="cls-45" d="M667.85,262.74c.25,2.39.47,4-.21,5.91-5.68.58-11.46.19-17.22.25-6.81.07-13.62,0-20.43.05-2.26,0-2.83-1-2.79-3,0-1.85.16-3.23,2.57-3.22C642.36,262.77,655,262.74,667.85,262.74Z" transform="translate(-1 -1)"/><path class="cls-45" d="M195.63,478.91c-.84-2.12-.43-3.75-.48-5.25,1-1.2,2.22-.92,3.34-.92,11.3,0,22.6,0,33.91,0,2.27,0,3.77.18,3.62,3.17-.13,2.43-1,3.11-3.27,3.07-6.31-.11-12.63,0-18.95,0Z" transform="translate(-1 -1)"/><path class="cls-45" d="M195.52,500.83h39.63c1.56,5.87,1.44,6.06-4.21,6.07q-15.45,0-30.92,0C194.82,506.9,194.82,506.9,195.52,500.83Z" transform="translate(-1 -1)"/><path class="cls-24" d="M362,206.14c3.8-4.29,5.73-4.32,10.07-.12.11,7.34.74,14.68-.13,22C362,227.79,362,227.79,362,218Q362,212.06,362,206.14Z" transform="translate(-1 -1)"/><path class="cls-4" d="M335.2,222.82,337,223a124.37,124.37,0,0,1,24,.05c.25,5.68.25,5.7-4.92,5.7q-52.16,0-104.31,0c-1.63,0-3.34.39-4.87-.57l.49-.72c1.28-1,2.82-.9,4.3-.87,19.29.42,38.56-.28,57.82-.93,12.9-.43,25.54,2.53,37.18,1.94-3.27.25-7.74-.19-12.2-.4-1.58-.07-4.3.64-4.36-1.93s2.51-2,4.25-2.27Z" transform="translate(-1 -1)"/><path class="cls-4" d="M246,228l.27-5.95c.32-.38.55-1,1-1.07,8.71-1.66,17.42-3,26,.88,20.59.42,41.17.22,61.76.1a4.78,4.78,0,0,1,.2.83l-.2.18c-18,4.32-36,2.28-54,.63-.67,0,.09,1.06-.06.41-.08-.32,0-.47.2-.46,3.94.16,5.33.48,7.82,1.76-.24,1.58-1.51,1.63-2.64,1.6-11.09-.27-22.18,1.51-33.27.07a11.23,11.23,0,0,0-5.83.88l-.34.22-.43,0Z" transform="translate(-1 -1)"/><path class="cls-19" d="M431.54,492.16c-1.8-.93-5.09,1.41-5.2-2.1-.14-4,3.37-2.12,5.21-2.13s5-1.67,5.12,1.75C436.86,493.82,433.15,491,431.54,492.16Z" transform="translate(-1 -1)"/><path class="cls-46" d="M246.69,253.91c-1.34-.69-4.7,1.54-4.5-2.26.19-3.53,3.3-1.51,5.09-2a12.79,12.79,0,0,1,3,0c1.51,0,2.55.44,2.48,2.26s-1.33,2-2.74,2Z" transform="translate(-1 -1)"/><path class="cls-47" d="M678,253.91c-1.34-.77-4.68,1.67-4.59-2.18.09-3.65,3.25-1.57,5-2a10.92,10.92,0,0,1,3,0c1.45,0,2.6.28,2.55,2.19s-1.22,2.08-2.66,2.06Z" transform="translate(-1 -1)"/><path class="cls-46" d="M371.15,249.66c1.36.7,4.65-1.58,4.64,2.12s-3.2,1.65-5,2.09a12.87,12.87,0,0,1-3,0c-1.47,0-2.59-.22-2.6-2.12s1.16-2.12,2.6-2.13Z" transform="translate(-1 -1)"/><path class="cls-48" d="M596.41,254.11c-1.78-1-5.43,1.48-5.14-2.61.24-3.37,3.4-1.73,5.18-1.73s5-1.61,5.14,1.8C601.79,255.68,598.14,253.08,596.41,254.11Z" transform="translate(-1 -1)"/><path class="cls-48" d="M21.91,253.9c-1.16,0-2.31,0-3.46,0-1.37,0-2.13-.54-2.18-2s.58-2.18,2-2.2c2.13,0,4.27,0,6.41,0,1.32,0,2.18.47,2.18,2s-.51,2.19-2,2.21h-3Z" transform="translate(-1 -1)"/><path class="cls-47" d="M554.76,253.9c-1.35-.7-4.69,1.6-4.56-2.2.12-3.56,3.27-1.58,5-2a12.36,12.36,0,0,1,3,0c1.46,0,2.56.3,2.49,2.21s-1.21,2.07-2.66,2C557.07,253.88,556.07,253.9,554.76,253.9Z" transform="translate(-1 -1)"/><path class="cls-19" d="M719.14,492c-1,0-2,0-2.94,0-1.57,0-1.82-1-1.82-2.3a1.63,1.63,0,0,1,1.79-1.83c2.12-.05,4.25,0,6.38,0,1.21,0,2.27.17,2.32,1.81s-.62,2.41-2.29,2.34C721.44,491.91,720.29,492,719.14,492Z" transform="translate(-1 -1)"/><path class="cls-19" d="M678.58,492a3.62,3.62,0,0,1-1,0c-1.59-.47-4.45,1.34-4.37-2.18.07-3.07,2.6-1.69,4.14-1.93a29,29,0,0,1,4,0c1.49,0,2.57.32,2.48,2.21s-1.35,2-2.74,1.95Z" transform="translate(-1 -1)"/><path class="cls-19" d="M143.47,492H140c-1.46,0-2-.76-2-2.18s.85-2,2.16-2c1.81,0,3.62,0,5.42,0,1.52,0,3-.09,3,2.19s-1.74,1.91-3.15,2C144.78,492,144.12,492,143.47,492Z" transform="translate(-1 -1)"/><path class="cls-49" d="M637.29,492.17c-1.69-1.12-5.36,1.63-5.15-2.51.18-3.43,3.36-1.73,5.08-1.72s5.33-1.83,5.15,2.17C642.22,493.58,639,491.18,637.29,492.17Z" transform="translate(-1 -1)"/><path class="cls-19" d="M184.64,487.55c1.68,1.05,5-1.44,5.07,2.19,0,3.93-3.43,2.05-5.3,2.08s-5,1.65-5.06-1.83C179.3,486.07,182.91,488.68,184.64,487.55Z" transform="translate(-1 -1)"/><path class="cls-19" d="M616.46,487.32c1.88,1.48,5.58-1.43,5.39,2.74-.16,3.44-3.34,1.8-5.05,1.75s-5.3,2-5.2-2.11C611.71,485.93,615.19,489,616.46,487.32Z" transform="translate(-1 -1)"/><path class="cls-50" d="M287.91,487.79c1.3.72,4.49-1.56,4.62,2,.14,3.74-3.08,1.66-4.79,2.12a12.41,12.41,0,0,1-2.93.06c-1.41,0-2.58-.11-2.67-2s1-2.19,2.45-2.19Z" transform="translate(-1 -1)"/><path class="cls-19" d="M575,492c-1.36-.72-4.64,1.63-4.67-2.05s3.18-1.62,4.94-2.07a11.7,11.7,0,0,1,3,0c1.38,0,2.63.08,2.63,2s-1.11,2.14-2.57,2.11Z" transform="translate(-1 -1)"/><path class="cls-19" d="M328.62,487.43c1.94,1.12,5.32-1.27,5.13,2.55-.18,3.51-3.33,1.88-5.07,1.84s-5.42,1.82-5.29-2.08S327.25,489.07,328.62,487.43Z" transform="translate(-1 -1)"/><path class="cls-51" d="M533.85,492c-1.31-.82-4.58,1.71-4.61-2s3.13-1.6,4.85-2.08a11.45,11.45,0,0,1,2.93,0c1.41,0,2.59.13,2.6,2s-1,2.15-2.52,2.11C536.11,491.93,535.13,492,533.85,492Z" transform="translate(-1 -1)"/><path class="cls-52" d="M472.89,492.28c-2-1.06-5.24,1.29-5.34-2.22-.12-3.91,3.34-2.13,5.18-2.15s4.89-1.63,5,1.79C478,493.93,474.17,490.76,472.89,492.28Z" transform="translate(-1 -1)"/><path class="cls-52" d="M206.21,254.08c-1.7-.94-5.06,1.45-5-2.34.07-3.61,3.28-1.94,5-1.94s5-1.69,5.21,1.75C211.66,255.69,207.94,253,206.21,254.08Z" transform="translate(-1 -1)"/><path class="cls-50" d="M720,249.68a2.77,2.77,0,0,1,.5,0c1.65.4,4.5-1.14,4.34,2.3-.15,3-2.69,1.63-4.25,1.87a27.06,27.06,0,0,1-3.49,0c-1.47,0-2.62-.22-2.67-2.08s1.12-2.15,2.58-2.14Z" transform="translate(-1 -1)"/><path class="cls-53" d="M288.24,254c-1.73-.86-5.07,1.32-4.89-2.38.17-3.46,3.33-1.81,5.08-1.8s5-1.63,5.06,1.8C293.56,255.64,289.94,253,288.24,254Z" transform="translate(-1 -1)"/><path class="cls-53" d="M329.17,253.83h-3c-1.57,0-1.83-1.05-1.84-2.33s.81-1.7,1.88-1.74c2-.06,3.95,0,5.92,0,1.4,0,2.63.13,2.6,2.06s-1.21,2.07-2.64,2.07h-3Z" transform="translate(-1 -1)"/><path class="cls-52" d="M63.34,249.68c1.28.72,4.61-1.58,4.45,2.29-.14,3.32-3,1.48-4.7,1.88a14.88,14.88,0,0,1-3,0c-1.48.05-2.58-.21-2.67-2.08s1.11-2.12,2.55-2.13Z" transform="translate(-1 -1)"/><path class="cls-50" d="M103.67,254.08c-1.77-.87-5,1.34-5.11-2.14-.07-3.86,3.36-2.13,5.22-2.12s4.91-1.68,5,1.8C109,255.72,105.32,253,103.67,254.08Z" transform="translate(-1 -1)"/><path class="cls-49" d="M514.46,254.18c-1.88-1.15-5.54,1.51-5.3-2.63.2-3.32,3.34-1.73,5.09-1.74s5-1.64,5.2,1.69C519.76,255.69,516,252.86,514.46,254.18Z" transform="translate(-1 -1)"/><path class="cls-54" d="M245.71,491.93c-.83,0-1.66,0-2.49,0-1.37.05-2.16-.4-2.2-2s.48-2.17,2-2.15q3.25,0,6.49,0c1.49,0,2.05.73,2,2.18s-.87,2-2.26,1.93C248.05,491.89,246.88,491.93,245.71,491.93Z" transform="translate(-1 -1)"/><path class="cls-19" d="M390.21,487.55c1.69,1.16,5.33-1.54,5.21,2.49-.11,3.46-3.35,1.86-5.06,1.78s-5.33,2-5.2-2.1C385.26,486.13,388.54,488.61,390.21,487.55Z" transform="translate(-1 -1)"/><path class="cls-49" d="M412.29,249.68c1.3.78,4.59-1.64,4.55,2.11s-3.18,1.59-4.92,2.05a13.79,13.79,0,0,1-2.95,0c-1.5.05-2.54-.35-2.56-2.14s1.2-2.06,2.61-2.06Z" transform="translate(-1 -1)"/><path class="cls-54" d="M410.57,491.91c-1,0-2,0-3,0-1.61,0-1.79-1-1.79-2.3a1.58,1.58,0,0,1,1.79-1.78l5.92,0c1.4,0,2.57.1,2.54,2.05s-1.08,2.12-2.55,2.07c-1,0-2,0-2.95,0Z" transform="translate(-1 -1)"/><path class="cls-55" d="M451.41,491.93c-1.31-.71-4.6,1.61-4.45-2.25.13-3.36,3-1.34,4.64-1.81a10.81,10.81,0,0,1,3-.05c1.36,0,2.65,0,2.65,2,0,1.83-1,2.23-2.51,2.16C453.71,491.89,452.72,491.93,451.41,491.93Z" transform="translate(-1 -1)"/><path class="cls-54" d="M369.81,492.15c-1.7-1-5,1.48-5.1-2.19s3.21-2.06,4.88-2c1.82.05,5.34-2,5.26,2.06C374.79,493.67,371.44,491.13,369.81,492.15Z" transform="translate(-1 -1)"/><path class="cls-18" d="M493.56,491.89c-1.33,0-2.66,0-4,0s-1.53-.95-1.56-2,.33-1.94,1.6-2c2,0,4-.07,6-.05,1.31,0,2.71-.17,2.82,1.84.13,2.23-1.24,2.35-2.86,2.27-.66,0-1.33,0-2,0Z" transform="translate(-1 -1)"/><path class="cls-18" d="M513.77,492.14c-1.68-1-5,1.51-5-2.25S512,488,513.7,488s4.93-1.71,5.17,1.65C519.17,493.82,515.44,491.05,513.77,492.14Z" transform="translate(-1 -1)"/><path class="cls-18" d="M349.16,492.19c-1.64-1.12-5,1.5-5-2.16-.09-4,3.41-2,5.21-2.06,1.63-.05,4.92-1.81,4.81,2S350.74,491,349.16,492.19Z" transform="translate(-1 -1)"/><path class="cls-54" d="M555.35,492.35c-2-1.25-5.24,1.31-5.38-2.28-.16-4.11,3.39-2.05,5.19-2.1,1.64-.05,4.9-1.81,4.88,1.94C560,493.82,556.51,490.66,555.35,492.35Z" transform="translate(-1 -1)"/><path class="cls-55" d="M308.42,487.82c.66,0,1.32,0,2,0,1.27.05,2.68-.23,2.76,1.83s-1.24,2.33-2.86,2.28-3.3-.05-4.95,0-2.52-.25-2.51-2.13,1.24-2,2.61-2Z" transform="translate(-1 -1)"/><path class="cls-18" d="M595.7,491.92h-3c-1.6,0-1.77-1.06-1.78-2.32s.67-1.74,1.81-1.76c2,0,3.94,0,5.91,0,1.42,0,2.59.1,2.56,2s-1.12,2.12-2.58,2.07c-1,0-2,0-3,0Z" transform="translate(-1 -1)"/><path class="cls-18" d="M266.73,492.15c-1.65-1-5,1.5-4.93-2.32.09-3.64,3.3-1.86,5-1.87s4.94-1.72,5.11,1.7C272.12,493.81,268.42,491,266.73,492.15Z" transform="translate(-1 -1)"/><path class="cls-18" d="M163.65,491.94c-1.32-.82-4.55,1.71-4.69-2s3.14-2.07,4.77-2c1.79.07,5-2,5.28,2C169.14,491.92,168.91,491.94,163.65,491.94Z" transform="translate(-1 -1)"/><path class="cls-18" d="M657.49,491.93h-3c-1.63,0-1.71-1.14-1.72-2.37s.72-1.71,1.85-1.72h6.42c1.42,0,2,.59,2,2.09s-.71,2.06-2.11,2C659.8,491.91,658.64,491.93,657.49,491.93Z" transform="translate(-1 -1)"/><path class="cls-54" d="M123,492.29c-1.9-1.14-5.23,1.35-5.25-2.4s3.25-1.93,5-1.94,4.92-1.72,5.19,1.63C128.23,493.89,124.32,490.78,123,492.29Z" transform="translate(-1 -1)"/><path class="cls-18" d="M699,487.57c1.65,1.09,5-1.49,5.07,2.14.09,4-3.44,2-5.27,2.09-1.65.06-4.93,1.77-4.81-2S697.36,488.67,699,487.57Z" transform="translate(-1 -1)"/><path class="cls-54" d="M100.19,487.81c2.59.66,5.42-1.72,7,1.64.56,1.19-3.6,5.57-5,5.56C100,495,100,494.86,100.19,487.81Z" transform="translate(-1 -1)"/><path class="cls-54" d="M742.4,390.53c-.95,1.69,1.41,5-2.24,5s-2-3.18-2-4.89-1.76-4.87,1.91-4.91S741.4,389,742.4,390.53Z" transform="translate(-1 -1)"/><path class="cls-56" d="M104.19,510.18c0,.66,0,1.32,0,2-.06,1.29.17,2.69-1.87,2.76-2.24.08-2.28-1.34-2.26-2.92s0-3.3,0-4.95c0-1.32.37-2.14,1.91-2.23,1.83-.1,2.3.81,2.23,2.39C104.15,508.2,104.19,509.19,104.19,510.18Z" transform="translate(-1 -1)"/><path class="cls-18" d="M100.07,529.57c0-.5,0-1,0-1.5.05-1.61-.4-3.54,2.3-3.38,2.44.14,1.7,2,1.8,3.33s0,2.67,0,4,0,2.71-2,2.69-2.16-1.15-2.12-2.64c0-.83,0-1.67,0-2.5Z" transform="translate(-1 -1)"/><path class="cls-18" d="M741.68,492.21c-2.34-1.29-5.68,2-6.64-2.34-.3-1.37,4.15-5.42,5.47-5.23C742.38,484.91,742.51,485.61,741.68,492.21Z" transform="translate(-1 -1)"/><path class="cls-49" d="M494.54,249.69c1.28.75,4.59-1.59,4.4,2.29-.17,3.32-3,1.44-4.64,1.86a14.49,14.49,0,0,1-2.95,0c-1.46,0-2.6-.22-2.63-2.07s1.06-2.16,2.54-2.12C492.25,249.71,493.23,249.69,494.54,249.69Z" transform="translate(-1 -1)"/><path class="cls-19" d="M473.81,249.69c1.33.69,4.63-1.57,4.45,2.26-.15,3.2-3,1.56-4.67,1.9a16.23,16.23,0,0,1-3,0c-1.41,0-2.6-.09-2.61-2s1-2.17,2.51-2.15C471.52,249.7,472.51,249.69,473.81,249.69Z" transform="translate(-1 -1)"/><path class="cls-57" d="M742.19,371c-1,1.28,1.89,5-2.26,4.8-3.4-.18-1.34-3.35-1.84-5.13a12.69,12.69,0,0,1,0-2.47c-.11-1.67.6-2.38,2.3-2.35s1.85,1,1.83,2.27Z" transform="translate(-1 -1)"/><path class="cls-18" d="M104.37,549.5c-1,1.62,1.47,5-2.33,4.81-3.51-.15-1.86-3.29-1.86-5s-1.65-4.94,2-4.79S103.43,547.85,104.37,549.5Z" transform="translate(-1 -1)"/><path class="cls-56" d="M575.73,253.81c-1.15,0-2.31.06-3.45,0-1.33-.08-1.42-1.11-1.46-2.13s.39-1.9,1.64-1.92c2.14,0,4.28,0,6.42,0,1.31,0,2.18.35,2.21,1.91,0,1.74-.79,2.34-2.4,2.26-1,0-2,0-3,0Z" transform="translate(-1 -1)"/><path class="cls-50" d="M452.94,249.45c1.71,1,5.05-1.37,4.89,2.43-.16,3.57-3.3,1.86-5,1.88s-5,1.62-5.06-1.86C447.64,247.82,451.31,250.64,452.94,249.45Z" transform="translate(-1 -1)"/><path class="cls-49" d="M431.83,249.32c2,1.15,5.24-1.26,5.33,2.39s-3.16,2.09-4.85,2-5.3,1.9-5.21-2.14C427.18,247.78,430.7,251,431.83,249.32Z" transform="translate(-1 -1)"/><path class="cls-57" d="M104.42,569.2c-1.11,1.52,1.58,4.85-2.28,4.83s-2-3.21-2-4.91-1.71-4.93,2-4.93S103.39,567.51,104.42,569.2Z" transform="translate(-1 -1)"/><path class="cls-56" d="M738.09,469.45c0-1,0-2,0-3,0-1.63,1.19-1.7,2.4-1.7s1.71.7,1.7,1.87c0,2,0,3.94,0,5.91,0,1.27-.24,2.24-1.86,2.26s-2.32-.84-2.27-2.42c0-1,0-2,0-3Z" transform="translate(-1 -1)"/><path class="cls-51" d="M742.62,350.78c-1.27,1.85,1.33,5.19-2.51,5.13-3.65-.07-1.9-3.25-1.91-4.94s-1.72-4.9,2-4.89C744.19,346.1,740.82,349.64,742.62,350.78Z" transform="translate(-1 -1)"/><path class="cls-49" d="M390.71,253.85h-3c-1.6,0-1.81-1-1.81-2.32a1.58,1.58,0,0,1,1.8-1.8l5.94,0c1.42,0,2.61.14,2.59,2.06s-1.09,2.17-2.58,2.12c-1,0-2,0-3,0Z" transform="translate(-1 -1)"/><path class="cls-56" d="M617.34,249.69a4.57,4.57,0,0,1,1,0c1.39.31,3.57-.94,3.76,1.8.22,3-2,2.29-3.71,2.37-1.31.06-2.63,0-3.94,0-1.47,0-2.54-.21-2.56-2.08s1.07-2.13,2.52-2.11Z" transform="translate(-1 -1)"/><path class="cls-54" d="M104.16,589.32c0,1,0,2,0,3,0,1.22-.69,1.7-1.87,1.73-1.38,0-2.23-.42-2.22-1.93,0-2,0-4,0-5.94,0-1.36.4-2.11,1.93-2.19,1.86-.11,2.27.84,2.19,2.4,0,1,0,2,0,3Z" transform="translate(-1 -1)"/><path class="cls-56" d="M349.83,253.86c-1,0-2,0-3,0-1.53,0-1.92-.85-1.94-2.2,0-1.53.81-2,2.15-2,2,0,4,0,5.93,0,1.3,0,2.19.33,2.2,1.91s-.78,2.36-2.41,2.27c-1,0-2,0-3,0Z" transform="translate(-1 -1)"/><path class="cls-49" d="M534.6,253.86c-1,0-2,0-3,0-1.55,0-1.89-1-1.88-2.27a1.61,1.61,0,0,1,1.77-1.84c2,0,4,0,5.94,0,1.38,0,2.62,0,2.62,2,0,1.82-1,2.24-2.51,2.17-1,0-2,0-3,0Z" transform="translate(-1 -1)"/><path class="cls-56" d="M309.43,249.73h3c1.21,0,1.72.66,1.71,1.86s-.27,2.28-1.85,2.27c-2,0-3.94,0-5.91,0-1.56.05-2.46-.4-2.47-2.18,0-2,1.24-2,2.61-2h2.95Z" transform="translate(-1 -1)"/><path class="cls-56" d="M698.66,253.85h-3c-1.61,0-1.77-1.11-1.77-2.36s.67-1.76,1.84-1.76c2,0,4,0,5.94,0,1.45,0,2.58.19,2.54,2.11s-1.15,2.11-2.61,2.07c-1,0-2,0-3,0Z" transform="translate(-1 -1)"/><path class="cls-57" d="M742.42,331.29c-1,1.62,1.46,4.93-2.45,4.76-3.33-.15-1.86-3.06-1.78-4.61.09-1.86-1.86-5.38,2.16-5.22C743.86,326.36,741.41,329.64,742.42,331.29Z" transform="translate(-1 -1)"/><path class="cls-56" d="M267.69,253.87c-.83,0-1.65-.05-2.47,0-1.65.1-2.41-.57-2.41-2.27s.94-1.9,2.22-1.9c1.81,0,3.63,0,5.44,0,1.38,0,2.65,0,2.66,2,0,1.78-.89,2.29-2.47,2.21C269.67,253.83,268.68,253.87,267.69,253.87Z" transform="translate(-1 -1)"/><path class="cls-51" d="M742.66,449.94c-1.37,1.72,1.32,5.14-2.57,5-3.62-.12-1.88-3.28-1.9-5s-1.67-4.94,2-4.87S741,448.63,742.66,449.94Z" transform="translate(-1 -1)"/><path class="cls-49" d="M226.89,254.06c-1.7-.92-5,1.42-5.07-2.21s3.19-2.09,4.86-2c1.84.07,5.35-1.94,5.26,2.1C231.87,255.55,228.55,253.09,226.89,254.06Z" transform="translate(-1 -1)"/><path class="cls-54" d="M742.17,311.54v3c0,1.23-.67,1.73-1.87,1.74-1.36,0-2.25-.4-2.23-1.94,0-2,0-4,0-6,0-1.47.72-2.05,2.16-2.05,1.6,0,2,.93,1.94,2.25C742.17,309.54,742.18,310.54,742.17,311.54Z" transform="translate(-1 -1)"/><path class="cls-56" d="M185.58,253.86h-3c-1.56,0-1.86-1-1.86-2.28a1.61,1.61,0,0,1,1.76-1.84c2,0,3.94,0,5.91,0,1.38,0,2.6.06,2.59,2s-1,2.22-2.49,2.16c-1,0-2,0-2.95,0Z" transform="translate(-1 -1)"/><path class="cls-19" d="M164.87,253.86h-3c-1.55,0-1.86-1-1.86-2.29a1.62,1.62,0,0,1,1.77-1.85c2,0,3.94,0,5.92,0,1.4,0,2.64.12,2.63,2s-1,2.22-2.54,2.16c-1,0-2,0-3,0Z" transform="translate(-1 -1)"/><path class="cls-50" d="M144.47,253.88c-1.37-.69-4.58,1.55-4.74-2-.17-3.74,3.08-1.71,4.82-2.18a8.77,8.77,0,0,1,2.46,0c1.49,0,3-.1,2.94,2.21s-1.75,1.92-3.17,2C146.13,253.91,145.47,253.88,144.47,253.88Z" transform="translate(-1 -1)"/><path class="cls-56" d="M104.19,609.22c0,.66,0,1.32,0,2,0,1.32.11,2.69-1.91,2.71-1.78,0-2.28-.89-2.24-2.46,0-1.81,0-3.62,0-5.43,0-1.38.47-2.08,2-2.17,1.87-.11,2.25.86,2.17,2.41,0,1,0,2,0,3Z" transform="translate(-1 -1)"/><path class="cls-49" d="M124.11,254.05c-1.64-1-4.89,1.51-5-2.18s3.16-2.08,4.83-2.05c1.86,0,5.39-1.89,5.33,2.09C129.19,255.41,125.87,253.18,124.11,254.05Z" transform="translate(-1 -1)"/><path class="cls-54" d="M741.89,250.13c-.73,2.44,2.45,5.63-1.62,6.82-1.14.34-5.62-4.26-5.23-5.37C736.37,247.68,739.4,250.58,741.89,250.13Z" transform="translate(-1 -1)"/><path class="cls-58" d="M82.7,254c-.82,0-1.65,0-2.48,0-1.65.09-2.4-.64-2.38-2.33,0-1.5.78-2,2.15-2,2,0,4,0,6,0,1.61,0,2.46.54,2.41,2.31s-1.24,2.06-2.67,2C84.69,253.94,83.69,254,82.7,254Z" transform="translate(-1 -1)"/><path class="cls-56" d="M742.44,271.74c-1,1.67,1.44,4.91-2.22,5s-2-3.15-2-4.82-1.77-4.86,1.85-5C744,266.79,741.35,270.19,742.44,271.74Z" transform="translate(-1 -1)"/><path class="cls-56" d="M42.29,254.23c-1.93-1.13-5.18,1.32-5.24-2.4s3.16-2.06,4.81-2,5.29-2,5.19,2.11C47,255.68,43.5,252.68,42.29,254.23Z" transform="translate(-1 -1)"/><path class="cls-54" d="M742.19,410.67c0,.82,0,1.64,0,2.45,0,1.31-.35,2.17-1.9,2.19-1.73,0-2.28-.8-2.23-2.4.07-1.8,0-3.6,0-5.4,0-1.34.44-2.13,1.93-2.22,1.87-.12,2.2.95,2.18,2.43C742.17,408.71,742.18,409.69,742.19,410.67Z" transform="translate(-1 -1)"/><path class="cls-57" d="M742.2,430.36a1.6,1.6,0,0,1,0,.49c-.46,1.58,1.3,4.46-2.25,4.26-3-.16-1.59-2.65-1.84-4.18a33,33,0,0,1-.06-3.45c-.1-1.68.62-2.39,2.3-2.37s1.84,1,1.84,2.29v3Z" transform="translate(-1 -1)"/><path class="cls-18" d="M742.2,291.76a12.18,12.18,0,0,1,0,1.48c-.16,1.34.58,3.18-1.82,3.3-2.61.12-2.3-1.73-2.3-3.37,0-1.48,0-3,0-4.44s.68-2,2.11-2,2,.72,2,2.1c0,1,0,2,0,3Z" transform="translate(-1 -1)"/><path class="cls-59" d="M361,223,337,223c2.08-1.5,4.47-.82,6.72-.86,5.76-.09,11.52,0,17.29,0A.9.9,0,0,1,361,223Z" transform="translate(-1 -1)"/><path class="cls-60" d="M273.24,221.89l-27,.19c-.08-5.61-.09-11.23-.25-16.84-.11-3.59-2.14-5.84-5.51-6.77s-5.8.47-7.72,3.08c-1.15,1.55-1.09,3.41-1.12,5.24q-.09,7.67-.19,15.34l-46.67-.24q0-68.8.07-137.63c0-2,0-4,.08-6l88.07,0,.12,135.17C273.18,216.24,273.22,219.07,273.24,221.89Z" transform="translate(-1 -1)"/><path class="cls-61" d="M146.81,187.1c-4.48-4.45-9-8.86-13.44-13.37-3.42-3.49-3.44-5.34-.12-8.74q5.48-5.6,11.14-11c3.18-3,5.23-3.24,7.9-.14,3.82,4.45,9.16,7.25,12.46,12.28,2,3,2.42,4.31-.29,7.11-4.19,4.34-8.57,8.48-12.85,12.73a5.62,5.62,0,0,0-.73,1.24C149.49,188.41,148.09,189.94,146.81,187.1Z" transform="translate(-1 -1)"/><path class="cls-62" d="M146.81,187.1c1.33,1.05,2.71.07,4.07.11l.09,34.66a9.59,9.59,0,0,1-4.67.11q0-15.75-.07-31.48A6.15,6.15,0,0,1,146.81,187.1Z" transform="translate(-1 -1)"/><path class="cls-63" d="M484.8,222c.75-7.12,3.44-13.11,9.76-17.06a17.63,17.63,0,0,1,25,6.29A22.39,22.39,0,0,1,523.06,222Q503.92,222.48,484.8,222Z" transform="translate(-1 -1)"/><path class="cls-64" d="M542.09,192.17a7.6,7.6,0,0,1-4.24,5.27c-2.69,1.19-3.05,3-3,5.53.12,6.31.08,12.62.11,18.93a5.27,5.27,0,0,1-3.77-.07,85.62,85.62,0,0,0,.17-17.46c-.17-1.55-.29-3-1.93-3.73-3.72-1.65-5.19-5-6.28-8.55,1-1.63,2.48-1.74,4.12-1.29,1.26.75,2.45,2.38,3.94.28C534.94,190.31,538.78,188.68,542.09,192.17Z" transform="translate(-1 -1)"/><path class="cls-65" d="M471.1,190.12a5.56,5.56,0,0,0,.91.14c2.13.1,3.5,2.94,6,1.66a41.53,41.53,0,0,1,9.05-1.69A5.52,5.52,0,0,1,484,195c-2.77,1.34-3.13,3.37-3.08,6,.14,6.95.12,13.91.16,20.86a6,6,0,0,1-3.12.15c0-6.5-.07-13,0-19.48,0-2.17-.41-3.77-2.54-4.9a9.6,9.6,0,0,1-4.66-5.64C470.47,191.31,470.37,190.64,471.1,190.12Z" transform="translate(-1 -1)"/><path class="cls-66" d="M442.86,212.77c-1.39,2.79-3,5.33-6.15,6.51a2.57,2.57,0,0,0-1.57,2.75,14.48,14.48,0,0,1-5.25-.11c-3.47-2.16-5.24-5.54-6.66-9.19,1.49-1.83,1.49-1.83,4.52-.19,1.52,2.58,3.06,1.23,4.6,0,2.44-1,5.12-.64,7.64-1.3C441.13,210.93,442.7,210.79,442.86,212.77Z" transform="translate(-1 -1)"/><path class="cls-67" d="M572.87,214.34c5.68,2.59,11.32,1.28,17-.18-.68,2.8-2.66,4.5-5.08,5.69-1,.49-1.68,1-1.65,2.12a18.76,18.76,0,0,1-6.21,0C575.3,219.55,572.47,217.79,572.87,214.34Z" transform="translate(-1 -1)"/><path class="cls-68" d="M586.19,331.83c3.84,1,7-.05,10.06-2.61,3.45-2.88,6.21-2.83,9.54-.67,7.82,5.08,8,5.08,15.19-.09,3.24,5.9,4.43,12.45,6,18.87.39,1.56,0,3.32,1.35,4.6a5.56,5.56,0,0,1,2.66,3.39c1.29,6.42,2.9,12.76,4.37,19.14-.62,4.4.78,8.58,1.47,12.83q3.85,23.9,6.5,47.95c.55,5,.9,9.94,1.53,14.89.44,3.36,1.35,7-1.86,9.81q-29,.51-58,0c-2.35-1.71-2.16-4.28-2.23-6.74a31.65,31.65,0,0,0-.61-6.38c-.06-.82,0-1.86.66-2.22,3.91-2,4.25-5.59,4.16-9.37.11-4.76,0-9.47-2.35-13.81-1-1.88-1.21-3.71.36-5.42q0-39,0-78C585,335.91,584.42,333.63,586.19,331.83Z" transform="translate(-1 -1)"/><path class="cls-68" d="M711,376.06q-.06,39.62-.13,79.22c0,4.89-.06,4.91-5,4.89q-18.93-.09-37.86-.23c-2.15-1.6-2.21-4-2.22-6.3-.11-24.37-.15-48.74,0-73.11,0-2,0-4,1.43-5.65.45-.47,1-1.1,1.61-1.05,6.68.58,11.88-2.51,17.22-6a10.49,10.49,0,0,1,10.53-.14C701.36,370.48,706.41,372.87,711,376.06Z" transform="translate(-1 -1)"/><path class="cls-69" d="M669.19,374.87C667.39,376.66,668,379,668,381q-.07,39.45,0,78.9c-8.32.32-16.64.3-25,0-.12-10.43-1.79-20.72-2.77-31.08-1.09-11.51-3.44-22.86-4.37-34.4-.35-4.26-1.56-8.45-2.45-12.66-.56-2.65-.79-5.25.57-7.74,7.28.22,13.12-3.24,19.39-6.45,5.23-2.68,11-.59,15,4.35A2.65,2.65,0,0,1,669.19,374.87Z" transform="translate(-1 -1)"/><path class="cls-70" d="M669.19,374.87l-1.28-1.54a12.19,12.19,0,0,1-2.18-7.52c-.06-9.8-.11-19.6,0-29.41,0-2.33,0-4.71,2.24-6.3,10.37-.62,19.1,3.54,27.14,9.51A64.54,64.54,0,0,1,710,354.9c1.9,4.8.65,9.81,1,14.72.14,2.14,0,4.29,0,6.44a14.67,14.67,0,0,1-11.31-3.89c-5.59-5-10.64-5-16.32.05C679,376.05,674.48,377,669.19,374.87Z" transform="translate(-1 -1)"/><path class="cls-71" d="M462.14,460c.85-8.48,4.63-15,12.23-19.3,11.65-6.64,24,.19,28.94,9.21a68.66,68.66,0,0,1,2.75,6.41c.65,1.21,1,2.43,0,3.66C491.43,460.36,476.79,460.27,462.14,460Z" transform="translate(-1 -1)"/><path class="cls-72" d="M539,460c-8,.31-16,.29-24,0a5.12,5.12,0,0,1-2-4.3c.15-6.23-.35-12.48.26-18.7,2.37-3.78,5.81-4.41,9.36-2.31,2.8,1.66,4.85,1.63,7.69,0,5-2.77,9.07-.63,10.84,5.09.18,4.81.15,9.61.06,14.41C541.18,456.39,541,458.51,539,460Z" transform="translate(-1 -1)"/><path class="cls-73" d="M539,460c0-5.27,0-10.54,0-15.81,0-1.77-.41-3.66,1-5.17,1.28-2.12,2.93-3.27,5.47-2.12.49.42,1.07.9,1.14,1.52.42,4.23,2.87,5.78,6.9,5.52a5.52,5.52,0,0,1,4.1,1.24,13,13,0,0,0,5.12,4.53c4.9,2.49,5.52,5.73,2.24,10.36Z" transform="translate(-1 -1)"/><path class="cls-74" d="M328.76,460.06c-.09-11.31-.24-22.62-.2-33.93,0-2.26-.85-3-2.86-3.05-1.83,0-3.68-.18-5.4.68-2-1.42-1-3.14,0-4.28,5-5.53,10.93-10.15,16.31-15.33a2.49,2.49,0,0,1,2.39-.28c4.35-1.61,8.75-1.3,13.17-.29-.12.66.21-.15.06.5-1.11,4.71-13.86,17.07-18.58,18-1.61,1.36-1.47,3.24-1.47,5.06q0,16.41.11,32.84Z" transform="translate(-1 -1)"/><path class="cls-75" d="M448.14,460c0-7-.09-14,.06-20.95.06-2.92-.44-5-3.45-6.35a8.85,8.85,0,0,1-5.06-6.44c1.46-2.51,3.77-2.41,6-1.61,1.85.67,3.75,1.07,5.6,1.65,1.69.86,3.3,3,5.22.3,1.49-1.18,3-2.24,4.7-.34a10.32,10.32,0,0,1-6.07,9.52c-2.76,1.38-3.3,3.2-3.26,5.89.1,6.11,0,12.23,0,18.34A6.85,6.85,0,0,1,448.14,460Z" transform="translate(-1 -1)"/><path class="cls-76" d="M514.94,436.26q0,11.85,0,23.7a8.72,8.72,0,0,1-3.87.05c-2.42-4-1.28-8-.15-12,.06-2.67,0-5.33.19-8,.27-4.72.49-9.3-5-11.59-.76-.32-1.14-1.57-1.7-2.38,2.31-3.25,5.45-3.59,9-2.57,1.94-.39,3.17,4.21,5.53.75,1.61-1.34,3.22-1.56,4.84,0,1.14,5-.22,7.68-4.91,9.39A7.45,7.45,0,0,0,514.94,436.26Z" transform="translate(-1 -1)"/><path class="cls-77" d="M583,446c2.23.54,2,2.34,2,4,0,3.33,0,6.65,0,10a116.32,116.32,0,0,1-16.06,0c-2.95-3.63-1-6,2.16-7.9,2.5-1.5,4.56-3.16,4.73-6.33C578.34,442,580.7,442.73,583,446Z" transform="translate(-1 -1)"/><path class="cls-78" d="M577.26,446c.07,3.83-2.34,6.24-5.26,7.85a5.36,5.36,0,0,0-3.07,6.07,8.56,8.56,0,0,1-3.93.1c0-1.32-.13-2.65-.06-4,.11-2.22-.48-3.57-2.91-4.41A8.46,8.46,0,0,1,556.8,446c3.15-3.31,7-2,10.65-1.51,2,1.44,3.83,3.49,6.43,1A2.59,2.59,0,0,1,577.26,446Z" transform="translate(-1 -1)"/><path class="cls-79" d="M391.81,460c.29-3.73.49-7.19-4.16-8.86a6.07,6.07,0,0,1-3.58-5.08c3.64-2,7.19-1.6,10.66.43,1.48,1.06,3,2,4.57.16,1.4-1,2.79-2.16,4.48-.5a11.34,11.34,0,0,1-6.28,9c-2.23,1.11-2.65,2.71-2.41,4.84A6.4,6.4,0,0,1,391.81,460Z" transform="translate(-1 -1)"/><path class="cls-80" d="M511,448l.15,12-5,0,0-3.66c2.54,1.61,2.33-.56,2.76-2C509.48,452.2,507.94,449.31,511,448Z" transform="translate(-1 -1)"/><path class="cls-81" d="M229.24,543.21c2.8-.58,3.94.56,4,3.4,0,3.46-.66,7,.71,10.34-.84,1.18-.49,2.54-.57,3.82s-.24,2.27-1.86,2.29-2.39-.7-2.36-2.35c0-1.15-.13-2.29-.2-3.44Q229.09,550.24,229.24,543.21Z" transform="translate(-1 -1)"/><path class="cls-82" d="M358.63,597.06q-37.53,0-75.06.08a17,17,0,0,1-2.45-.34l.24-18.75,10.61,0c1.67.58,1.81,2.19,2.46,3.78.83-1.45.82-3.31,2.57-3.88l2,0c1.22.39,1.62,1.46,2,2.51.49-1,.86-2.1,2.12-2.43,12.1,0,24.21,0,36.32-.08a7.2,7.2,0,0,1,6.67,3.28C350,586.78,355.11,591.28,358.63,597.06Z" transform="translate(-1 -1)"/><path class="cls-83" d="M297,578c-.09,2.3-.19,4.61-.27,6.91-.05,1.59-.74,2.46-2.43,2.37-1.45-.08-2-1-2-2.27-.11-2.3-.2-4.61-.29-6.91,0-2.46.06-4.92.16-7.38.08-1.69.28-3.52,2.48-3.61,2.45-.09,2.25,1.87,2.29,3.51C297,573.05,297,575.51,297,578Z" transform="translate(-1 -1)"/><path class="cls-84" d="M303.12,578.09c-.1,2.31-.18,4.62-.3,6.93-.05,1.05-.34,2-1.58,2.14-1.55.13-1.93-1-2-2.22-.12-2.31-.2-4.62-.29-6.93.06-1.47.08-2.94.18-4.4.08-1,.51-2,1.67-2.08,1.49-.13,1.95.93,2.06,2.17C303,575.16,303,576.63,303.12,578.09Z" transform="translate(-1 -1)"/><path class="cls-20" d="M668,330.1l-.09,43.23c-.94-.66-1.9-1.3-2.82-2-5.27-3.85-9.83-3.84-14.86.37-3,2.5-5.94,4.62-10.16,4.32-2.27-.16-4-1.37-6.07-2a9,9,0,0,1-2.45-4.71c-1-5.82-2.13-11.61-3.2-17.42,5.66-6.61,11.87-12.62,19.62-16.76C654.2,331.84,660.73,329.45,668,330.1Z" transform="translate(-1 -1)"/><path class="cls-85" d="M246.77,610.5c-.23-5.16-.23-5.16,3.84-5.3,5.54-.18,6.1.21,6.26,4.4.24,6.28-.22,7-4.64,7.2C247.47,617,247,616.52,246.77,610.5Z" transform="translate(-1 -1)"/><path class="cls-86" d="M229.11,610.81c.06-5,4.7-7.61,8.83-5.25a2.27,2.27,0,0,1,1.19,2c0,1.17.05,2.33,0,3.5,0,5.19-3.1,7.31-8,5.51C228,615.45,229.59,612.64,229.11,610.81Z" transform="translate(-1 -1)"/><path class="cls-87" d="M273.91,610.82c0,5.45-.41,6-4.72,6-4.72,0-5.3-.69-5.31-6s.16-5.56,5-5.52S273.88,605.51,273.91,610.82Z" transform="translate(-1 -1)"/><path class="cls-88" d="M256.86,591.84c0,5.24-.11,5.33-5.13,5.3-4.82,0-4.92-.15-4.92-5.57s.12-5.59,5.45-5.52C256.89,586.12,256.89,586.12,256.86,591.84Z" transform="translate(-1 -1)"/><path class="cls-89" d="M239.16,591.68c0,5.39-.08,5.46-5.11,5.45s-4.94,0-4.93-5.62c0-5.35.1-5.47,5.09-5.46S239.19,586.18,239.16,591.68Z" transform="translate(-1 -1)"/><path class="cls-14" d="M222.08,592c0,5.05-.07,5.09-4.93,5.11-5.1,0-5.16-.06-5.09-6,.05-5.07.1-5.12,4.91-5.14C222,586,222.11,586.15,222.08,592Z" transform="translate(-1 -1)"/><path class="cls-13" d="M263.89,591.45c0-5.3.15-5.44,5.11-5.39,4.64,0,4.91.35,4.9,5.75,0,5.22-.15,5.37-5.18,5.32C263.93,597.09,263.87,597,263.89,591.45Z" transform="translate(-1 -1)"/><path class="cls-90" d="M222.08,611c0,4.88-.75,5.72-5.14,5.68s-5.05-.82-4.83-5.9c.09-2-1.58-5.78,2.77-5.37C222.41,606.14,222,605.18,222.08,611Z" transform="translate(-1 -1)"/><path class="cls-91" d="M597.68,602.05a27.05,27.05,0,0,1,3.49,0c2.19.32,5.38-1.27,6.35,1.23,1.25,3.18.78,6.87.13,10.31-.21,1.12-1.49,1.19-2.48,1.2q-7.73,0-15.44,0c-1.55,0-2.53-.69-2.57-2.36,0-.34,0-.67,0-1C586.37,602.05,586.37,602.05,597.68,602.05Z" transform="translate(-1 -1)"/><path class="cls-92" d="M543.59,602.07c2.33,0,4.67.06,7,0s3.25.66,3.46,3.09c.83,9.54.76,9.71-8.88,9.71-2.34,0-4.67,0-7,0-4.65-.09-5-.32-5-4.72,0-9.3-.8-7.95,7.92-8.08h2.5Z" transform="translate(-1 -1)"/><path class="cls-91" d="M570.65,602.08c2.32,0,4.64.08,7,0,2.61-.12,3.46,1.09,3.44,3.58-.1,11.08.86,9-8.73,9.21-2.81.06-5.62,0-8.44,0-2.38,0-3.79-.84-3.74-3.44,0-2.15,0-4.31,0-6.46s1-2.94,3.07-2.9C565.69,602.11,568.17,602.08,570.65,602.08Z" transform="translate(-1 -1)"/><path class="cls-93" d="M570.49,631.11a25.51,25.51,0,0,1-3.5,0c-2.19-.31-5.29,1.27-6.39-1.27-1.22-2.85-.63-6.23-.2-9.37.16-1.2,1.26-1.46,2.29-1.47,5.16,0,10.32,0,15.49,0,1.81,0,2.81.79,2.8,2.68,0,.33,0,.66,0,1,0,10.14.64,8.32-8,8.5C572.15,631.12,571.32,631.11,570.49,631.11Z" transform="translate(-1 -1)"/><path class="cls-94" d="M543.23,631.12h-4c-6.09,0-6.09,0-6.09-6,0-6.24,0-6.24,6.31-6.24,3.83,0,7.65,0,11.48,0,2,0,2.87.84,3.09,2.94.91,8.8.56,9.26-8.3,9.24Z" transform="translate(-1 -1)"/><path class="cls-94" d="M597.45,618.92h4c6.61,0,6.61,0,6.58,6.49,0,5.67,0,5.69-5.85,5.71-4,0-8,0-12,0-2.06,0-2.86-.91-3.09-3C586.1,619.19,586.34,618.93,597.45,618.92Z" transform="translate(-1 -1)"/><path class="cls-95" d="M299.21,608.38c-.24,6.71-.36,6.83-5.89,6.62-4.27-.15-4.46-.46-4.27-6.74.13-4.34.41-4.26,6.64-4.39C299.92,603.79,299.75,606,299.21,608.38Z" transform="translate(-1 -1)"/><path class="cls-96" d="M306.88,609.53c0-5.51,0-5.51,5-5.55s5.16.07,5.15,5.93c0,4.91-.15,5.05-5,5.1S306.89,614.92,306.88,609.53Z" transform="translate(-1 -1)"/><path class="cls-97" d="M334,609.76c-.06,5.06-.33,5.32-5.38,5.25-4.64-.06-4.86-.36-4.75-6.38.07-4.56.25-4.71,5.38-4.65C334,604,334.09,604.15,334,609.76Z" transform="translate(-1 -1)"/><path class="cls-98" d="M351,609.57c0,5.34-.09,5.44-5.12,5.4-4.81,0-4.9-.13-4.93-5.15,0-5.75,0-5.8,4.67-5.83C351,604,351,604,351,609.57Z" transform="translate(-1 -1)"/><path class="cls-99" d="M399,192.2q-14.67-7.89-29.32-15.79c-1.49-.81-2.84-1.43-4.62-.49-10.07,5.37-20.47,10.14-30.22,16.13-4.27.51-4.56-3.34-5.52-5.71-1.07-2.64,1.89-3.36,3.7-4.31,9.76-5.08,19.59-10,29.27-15.22,3.45-1.85,6-2,9.68.21,8.54,5.17,17.6,9.5,26.45,14.17.87.46,2,.65,2.6,1.35,1.15,1.44,4.7,1.23,3.64,3.89C403.67,188.91,403.07,192.48,399,192.2Z" transform="translate(-1 -1)"/><path class="cls-25" d="M414.82,204.87c0-2.16.1-4.33,0-6.48-.18-3.91,1.71-6.68,4-9.71,5-6.6,11.68-7.82,19-6.59,5.89,1,10.16,4.87,12.35,10.31,2.47,6.14,3.85,12.61,2,19.3-4.07-6.71-10.74-4.85-16.66-4.77-5.13.06-10.25-.15-15.37-.08C418.28,206.87,416.13,206.79,414.82,204.87Z" transform="translate(-1 -1)"/><path class="cls-100" d="M414.82,204.87c3.16-1.18,6.5-.46,9.64-.34,5.49.22,11,.13,16.43-.11,2.75-.12,5.41,1.11,8.27.07,1.34-.48,2.71,1,2.84,2.75.11,1.48.14,3,.2,4.46-1.65,1.86-6.1,2.38-9.34,1.07-3.42,1.62-7.1,1.07-10.69,1.28a4,4,0,0,1-5,0c-1.6.4-2.12-2.35-3.93-1.34-1.27.74-2.56,1.8-4.11.92s-2.84-.47-4.48,0C413.75,210.5,413.49,207.69,414.82,204.87Z" transform="translate(-1 -1)"/><path class="cls-101" d="M461.22,176c2.61-3.14,6.42-1.49,9.3-1.49,7.48,0,15,.12,22.44-.23a2.59,2.59,0,0,1,3,2.59,10.87,10.87,0,0,1-.36,5.22c-7.82.81-15.77.52-23.71.48-3.56,0-7.15-.58-10.68.38C461.22,180.61,461.22,178.3,461.22,176Z" transform="translate(-1 -1)"/><path class="cls-102" d="M471.1,190.12l-.36,1.9c-1.94-.82-3.9,0-5.84,0-3,0-4.36-1-3.83-4.09C464.55,188,467.41,191,471.1,190.12Z" transform="translate(-1 -1)"/><path class="cls-103" d="M598.79,206.94c-5.13-1.34-10.34-.12-15.52-.34-6.26-.26-12.56,0-18.8-.44-.87-1.92-.56-3.74-.38-5.53a2.44,2.44,0,0,1,2.64-2.41c8.38.17,16.77.26,25.15.62,2.28.1,5-1.77,6.86,1.1C598.76,202.27,598.77,204.6,598.79,206.94Z" transform="translate(-1 -1)"/><path class="cls-27" d="M527.88,192.15l-4.74-.06c-3.3,1.08-6.53.48-9.75-.41a16.82,16.82,0,0,0,.51-2.4c.32-5.27.37-4.52,5.64-5a104.74,104.74,0,0,1,14.9-.46c3.5.17,7-1.31,10.55.31,1.89.87,4-1.84,6.13-.19,1.52,2.62.5,5.35.75,8.47-3.53-.59-6.63.94-9.78-.24-3.67-.51-7.36,1.71-11-.07A2.19,2.19,0,0,1,527.88,192.15Z" transform="translate(-1 -1)"/><path class="cls-104" d="M235.93,557.28c0-2.32,0-4.64.11-7,.05-1.26-.17-3,1.72-3,1.58,0,1.34,1.58,1.44,2.69.21,2.3.4,4.61.6,6.91-1.3,1.39-.57,3.11-.81,4.68-.1.65-.2,1.3-1.07,1.35s-1.59-.31-1.68-1.3C236.1,560.21,236,558.75,235.93,557.28Z" transform="translate(-1 -1)"/><path class="cls-105" d="M478,191.92c-.12,1.29.1,3-2.12,2-1.71-.75-2.78-2.27-3.9-3.7C474.26,189.93,476.49,189.64,478,191.92Z" transform="translate(-1 -1)"/><path class="cls-106" d="M674.6,162.28,684.87,180H664.61C667.49,173.92,670.94,168.62,674.6,162.28Z" transform="translate(-1 -1)"/><path class="cls-25" d="M428.54,417c-.48-6.88.45-13.57,4.73-19.1a22.23,22.23,0,0,1,11.63-7.71c9.46-2.6,20.88,2,25.22,10.43a27.86,27.86,0,0,1,2.7,17.28c-6.12,2-12.35,1.2-18.59.94-5.75-.25-11.51.48-17.28.16C434,418.84,430.93,419.37,428.54,417Z" transform="translate(-1 -1)"/><path class="cls-26" d="M493.13,396.91c-.87-8.32,1.5-15.51,8-20.92,12.32-10.32,27.4-2.68,31.65,9.85a49.77,49.77,0,0,1,1.28,6.34c.8,5.61.62,6.22-4.29,6.41-10.7.43-21.41-.12-32.12,0C496.06,398.57,494.23,398.53,493.13,396.91Z" transform="translate(-1 -1)"/><path class="cls-26" d="M373.23,418.91c-.84-7.75,1.86-14.14,7-19.86,9.3-10.31,27.54-6.74,32.7,8.38.53,1.56.79,3.21,1.17,4.82.9,7.63.67,8.41-6.16,8.33-10.38-.12-20.77-.19-31.15-.44C375.46,420.11,374.13,420.18,373.23,418.91Z" transform="translate(-1 -1)"/><path class="cls-107" d="M373.23,418.91a25.71,25.71,0,0,1,12.68-.6c2.77.48,5.65-1.8,8.36.31,5.67-2.05,11.69,1.55,17.36-1.05.44-.2,1.1.72,1.95.38,1-1.76.19-3.8.54-5.7,1.12,1.47.75,3.19.76,4.81,0,8.31,0,16.62,0,24.93,0,2.42-.24,3.69-3.28,4.25a21.52,21.52,0,0,1-7.85-.12c-1.5,0-2.36,1.19-3.51,1.83-1.83,1.19-3.61-.26-5.42-.1-3.45-1.46-7.41.1-10.78-1.82-3.39,2.75-6.62-.33-9.94-.34-1.08,0-1.11-1.46-1.1-2.42,0-1.79.14-3.58.22-5.37,1.32-2.52,3.31-3,6.16-3.08,9.27-.27,18.53-.42,27.79.21a4.37,4.37,0,0,0,1.94-.38c1.27-.5,2.61-1,2.33-2.74-.23-1.41-1.33-1.74-2.59-1.86-4.3-.4-8.62,0-12.92-.12-7.58-.24-15.22.69-22.73-1A55.78,55.78,0,0,1,373.23,418.91Z" transform="translate(-1 -1)"/><path class="cls-108" d="M428.54,417c3.74-1.68,7.92-.66,11.48-.33,4.12.38,8.08-1.23,12.18,0s8.33-.77,12.44.55a2.69,2.69,0,0,0,2.38-.29c2.27-1.47,4.05-.43,5.8,1a38.15,38.15,0,0,1-.15,9.33c-3.76-2.26-7.76,1.5-11.48-1-1.64-.27-2.67.76-3.7,1.77a14.23,14.23,0,0,1-5.92,0c-2.28,0-4.54.15-6.62-1.22-1.59-1.05-3.47-.68-5.26-.52-2.38.58-4.64,2.28-7.21.14-1.06-.89-2.24,1.24-3.91.54A19.2,19.2,0,0,1,428.54,417Z" transform="translate(-1 -1)"/><path class="cls-109" d="M533,406.06c1.52,2.53.59,5.43,1.17,8.1a1.8,1.8,0,0,1,0,2.09c-4.18,2.19-8.73,1.73-13.14,1.5-6.63-.35-13.22.11-19.83.2-2.87,0-5.63-.32-8.07-2v-9.05c.82-2,2-3.33,4.39-3.39,10.37-.27,20.75.11,31.12-.1A4.44,4.44,0,0,1,533,406.06Z" transform="translate(-1 -1)"/><path class="cls-110" d="M533,406.06c-3.27-1.66-6.76-.26-10.13-.53a107.29,107.29,0,0,0-12,0c-3.26.12-6.89-1.51-10.06.73a1.88,1.88,0,0,1-2.31-.33c-2.16-1.75-3.69-.13-5.34.92,0-3.33,0-6.65,0-10,3.67-1.79,7.54.18,11.29-.6,3.91-.82,8,1.18,11.9-.69.27-.13.73-.26.94-.13,4.2,2.62,8.7.09,12.93.78,4,.65,3.95-1.43,3.84-4.09a5.13,5.13,0,0,1,.87-.26C534.82,396.7,535.93,401.65,533,406.06Z" transform="translate(-1 -1)"/><path class="cls-111" d="M373.23,428.92c1.68-1.12,2.81-2.61,5.62-1.44,2.64,1.11,6,.18,9.12.24,7.64.16,15.3-.27,22.95-.35,1.92,0,3,1.21,3.09,3.19s0,4,0,5.87c-4.3,1.63-8.79.9-12.82.75-3.07-.12-6.6,1.43-9.7-.67-2.06-1.4-4.12.73-6.36.76-3.86,0-8.12-1.87-11.89.63Z" transform="translate(-1 -1)"/><path class="cls-112" d="M493.15,415.94c3.38-2.15,7,.23,10.63-.53,4.08-.85,8.51.69,12.82-.8,1.82-.62,4,.69,6,1,3.84.57,7.71-2.15,11.33.36,2.72,3.31,2.85,7.46.29,9.57-2.89,2.38-8,1.8-11-1.26-1,.33-2.19,0-3.11.72-2.25,2.44-4.49-1.07-6.73,0-3.06-.48-5.93.64-8.88,1-.67-.62-1.14-2.38-2-1.65-2.83,2.27-5.05-.92-7.66-.51-1.4.22-1.73-1.31-1.75-2.49C493,419.56,493.09,417.75,493.15,415.94Z" transform="translate(-1 -1)"/><path class="cls-113" d="M339,403.87c-5.32,5.33-10.66,10.65-15.95,16-1.12,1.13-2.7,2-2.76,3.88l-6.3.14c-1.8-.52-4.15.55-5.29-1.84-.3-.62-.56-1.4-.16-1.91,5.16-6.58,9.88-13.7,18.46-16.46C331,402.4,335.05,400.74,339,403.87Z" transform="translate(-1 -1)"/><path class="cls-113" d="M333.66,422.1l18.52-18.52c4-2,6.32-.85,6.58,3.29.07,1.14-.07,2.29-.11,3.43-2.3,6.15-7,10-12.51,13.05-3,.43-6.09-.48-9.13.33C335.61,424.05,334.57,423.07,333.66,422.1Z" transform="translate(-1 -1)"/><path class="cls-114" d="M327,403.69l-18.3,18.37c-2.13,1.22-5,2.11-6.18-.1s-1.67-5.49,1.12-7.68l9.81-10.1C317.9,401.87,322.45,402.74,327,403.69Z" transform="translate(-1 -1)"/><path class="cls-115" d="M346.14,423.35c3.32-5.16,8.12-8.91,12.51-13.05a76.93,76.93,0,0,1-.3,9.95c-.23,2.08-1.23,2.86-3.24,2.86C352.12,423.11,349.13,423.26,346.14,423.35Z" transform="translate(-1 -1)"/><path class="cls-116" d="M585,416c.08.65-.07,1.49.28,1.93,4.3,5.36,3.89,11.68,3.79,17.95-4.93,2.8-10.38,1.39-15.5,1.42-6.71,0-13.43.32-20.15,0-3.29-.17-6.61-.11-9.41-2.31-2.52-7.09-1-13.33,3.94-18.86,3.89-.24,5.6-3.88,8.54-5.66,2.72-1.64,5.32-2.09,8.29-2.57,7.33-1.19,12.82,1.75,17.73,6.61A4.46,4.46,0,0,0,585,416Z" transform="translate(-1 -1)"/><path class="cls-117" d="M547.93,416.1c1.09,1.27.45,2.36-.24,3.56A23.72,23.72,0,0,0,545,435a1.36,1.36,0,0,1-.13,2.09c-.75,2.77-2.82,2.25-4.81,1.93-5.1-4.57-5.13-4.61-10.76-.66-2.3,1.62-4.49,1.49-6.25-.47-2.4-2.68-5-2.92-8.08-1.58,0-2,1.62-2.63,3-3.56,3-2,5.22-4.56,5.24-8.44,3.44,1.52,7-.57,10.61.44a28.88,28.88,0,0,0,.13-8.75l.27-1.79A25.82,25.82,0,0,1,547.93,416.1Z" transform="translate(-1 -1)"/><path class="cls-43" d="M221.05,461.55c-4.7,0-8.68-.05-12.65,0-2.21,0-2.84-1.07-2.82-3.1.07-8-.07-16,.13-24,.12-5,3.25-7.84,7.87-7.73,4.34.11,7.34,3,7.43,7.71C221.17,443.3,221.05,452.1,221.05,461.55Z" transform="translate(-1 -1)"/><path class="cls-118" d="M185.73,443.58V433.36c0-.66-.22-1.61.12-1.93,2.82-2.57,6.28-.87,9.44-1.21,2.19-.24,2.62,1.29,2.77,3.21C198.93,444.16,197.74,445.22,185.73,443.58Z" transform="translate(-1 -1)"/><path class="cls-119" d="M228.85,436.59c0-1.32,0-2.65,0-4a2.27,2.27,0,0,1,2.52-2.42c2.31,0,4.62,0,6.93,0a2.36,2.36,0,0,1,2.69,2.74c0,1.16.12,2.33,0,3.47-.23,2.4,1.2,5.62-1,7-2.6,1.68-6.1.63-9.21.54-1.4,0-1.92-1.13-1.95-2.41C228.83,439.89,228.86,438.24,228.85,436.59Z" transform="translate(-1 -1)"/><path class="cls-120" d="M356,195c0,4.93,0,4.93-4.24,5-4.83,0-4.83,0-4.83-4.91s0-5.07,4.77-5C356,190.08,356,190.08,356,195Z" transform="translate(-1 -1)"/><path class="cls-91" d="M387,195c0,4.92,0,4.92-4.31,5-4.79,0-4.79,0-4.79-5s0-4.95,4.34-4.94C387,190,387,190,387,195Z" transform="translate(-1 -1)"/><path class="cls-59" d="M247.21,227.89c1.62-1.56,3.44-2.8,5.78-2,5.37,1.89,11,1.5,16.34.89,6.09-.68,12.19-.55,18.28-1.22-3.85-.57-7.47-2.53-11.62-.91,0-.56.07-1.11.1-1.67H335c-1,1.33-2.93.63-4.31,2.33,4,1.4,8,1.29,11.94,1.65,4.07.38,8.13-.39,12.26-.62-.15,2.13-1.45,1.6-2.25,1.6Q299.92,228,247.21,227.89Z" transform="translate(-1 -1)"/><path class="cls-121" d="M193,139.82c.46-1.61-1.17-4.56,1.58-5.34a16.9,16.9,0,0,1,9.35.13c.8.23.94,1.31,1,2.15,0,1.33,0,2.66,0,4,0,6.39,0,6.39-6.27,6.35C193,147.06,193,147.06,193,139.82Z" transform="translate(-1 -1)"/><path class="cls-122" d="M253,118.86c0-1,.05-1.71,0-2.36-.3-3,.57-4.53,4.05-4.59,8-.12,8-.3,7.86,7.74,0,1.81,1,4.56-1.78,5-3,.51-6.47,1.18-9.24-.54C252.08,123,253.26,120.42,253,118.86Z" transform="translate(-1 -1)"/><path class="cls-123" d="M264.9,185.65c0,1.16,0,2.33,0,3.5,0,1.78-.73,2.85-2.64,2.86-.33,0-.67.06-1,0-2.59-.28-6.13,1.26-7.55-1-1.82-2.91-.75-6.79-.51-10.25.07-1.17,1.13-1.55,2.2-1.62s2-.08,3-.08C264.94,179,264.94,179,264.9,185.65Z" transform="translate(-1 -1)"/><path class="cls-124" d="M213.05,185.62c0-1.33,0-2.66,0-4s.6-2.35,2-2.4c2.66-.09,5.32,0,8,0a1.54,1.54,0,0,1,1.53,1.09,31.36,31.36,0,0,1,0,10.41c-.14.91-1.09,1.17-2,1.21s-2,.07-3,.08C213,192.09,213,192.09,213.05,185.62Z" transform="translate(-1 -1)"/><path class="cls-125" d="M224.91,140.5c0,1.32,0,2.64,0,4s-.47,2.39-1.89,2.45c-2.63.12-5.27.1-7.9,0a1.89,1.89,0,0,1-2-1.83c-.09-3-.08-5.93,0-8.89a1.87,1.87,0,0,1,1.85-2c2.63-.09,5.27-.1,7.9,0,1.39,0,2,1,2,2.32s0,2.63,0,3.95Z" transform="translate(-1 -1)"/><path class="cls-121" d="M193,163.49c0-1.32,0-2.63,0-4s.5-2.39,1.9-2.45c2.63-.11,5.4-.55,7.87.08,3.69,1,1.9,4.4,2,6.75.09,2,1.39,5.11-1.89,5.8-2.52.53-5.25.17-7.88.09-1.41,0-2-1.06-2-2.36S193.05,164.81,193,163.49Z" transform="translate(-1 -1)"/><path class="cls-126" d="M224.88,118.46c0,1.32,0,2.64,0,4s-.58,2.33-2,2.38c-2.64.1-5.63.85-7.83-.13-4.13-1.84-1.42-6.07-2-9.2-.39-2.07.48-3.56,2.95-3.46.82,0,1.65,0,2.47,0C224.93,112,224.93,112,224.88,118.46Z" transform="translate(-1 -1)"/><path class="cls-127" d="M253.06,140.65c0-1.33,0-2.66,0-4s.56-2.36,2-2.41c2.65-.09,5.65-.79,7.9.17,4.06,1.73,1.33,5.85,1.91,8.87.37,1.9-.15,3.73-2.73,3.76l-2.5,0C253,147.15,253,147.15,253.06,140.65Z" transform="translate(-1 -1)"/><path class="cls-128" d="M193,118.57c0-6.69,0-6.69,7-6.58,4.89.09,4.89.09,5,5.1.11,8.12.12,8-7.72,7.92-3.33,0-4.59-1.26-4.21-4.45A16.51,16.51,0,0,0,193,118.57Z" transform="translate(-1 -1)"/><path class="cls-129" d="M224.93,163.2c0,1.15-.05,2.31,0,3.47.11,2.28-.94,3.12-3.22,3.31-8.41.72-8.91.32-8.74-8.25.09-4.57.23-4.71,4.76-4.81h1C225,156.91,225,156.91,224.93,163.2Z" transform="translate(-1 -1)"/><path class="cls-126" d="M244.94,164c-.42,1.65,1.11,4.53-1.32,5.48-2.88,1.13-6.17.69-9.27.13-.91-.16-1.21-1-1.26-1.9-.07-1.32-.1-2.64-.1-4,0-6.9,0-6.9,6.67-6.81C244.94,157,244.94,157,244.94,164Z" transform="translate(-1 -1)"/><path class="cls-130" d="M253,162.79c.44-1.63-1.13-4.53,1.42-5.41a16.56,16.56,0,0,1,9.26,0c1.1.26,1.19,1.47,1.22,2.46q.06,2.48,0,5c-.05,5.11-.05,5.11-5.31,5.17C253,170,253,170,253,162.79Z" transform="translate(-1 -1)"/><path class="cls-131" d="M233,118.34c0-1.16,0-2.32,0-3.48,0-1.79.77-2.59,2.62-2.87,8-1.2,11.54,2.9,9.15,10.68a2.67,2.67,0,0,1-2.41,2.13c-.82.09-1.65.11-2.48.13C233,125.14,233,125.14,233,118.34Z" transform="translate(-1 -1)"/><path class="cls-123" d="M193,184.84c.31-1.64-1-4.36,1.14-5.23,2.88-1.18,6.19-.78,9.28-.06,1.07.25,1.36,1.37,1.42,2.39s.08,2.32.08,3.49c0,6.63,0,6.63-6.42,6.61C193,192,193,192,193,184.84Z" transform="translate(-1 -1)"/><path class="cls-131" d="M233,185c.3-1.66-1-4.37,1.06-5.29,2.84-1.31,6.16-.85,9.25-.2,1.1.24,1.48,1.27,1.54,2.31.08,1.33.09,2.65.09,4,0,6.27,0,6.27-6.26,6.25C233,192,233,192,233,185Z" transform="translate(-1 -1)"/><path class="cls-121" d="M244.94,141.14c-.41,1.65,1.08,4.55-1.4,5.47-2.9,1.08-6.19.78-9.27.06-1.11-.26-1.2-1.46-1.24-2.46,0-1.49-.05-3,0-4.47,0-5.59,0-5.59,5.4-5.62C244.86,134.08,245,134.18,244.94,141.14Z" transform="translate(-1 -1)"/><path class="cls-131" d="M265,208.13c-.31,1.68.92,4.38-1,5.35a12.42,12.42,0,0,1-8.7,1,2.72,2.72,0,0,1-2.2-2.9c0-1.33,0-2.66,0-4,0-5.72,0-5.72,5.87-5.73C265,201.85,265,201.85,265,208.13Z" transform="translate(-1 -1)"/><path class="cls-122" d="M213,207.6c.35-1.58-1-4.3,1.14-5.15,3.05-1.22,6.49-.83,9.73-.11.86.19,1,1.22,1,2.06s0,2,0,3c0,6.31-2.75,8.56-9,7.29C213.19,214.12,213,213.58,213,207.6Z" transform="translate(-1 -1)"/><path class="cls-132" d="M233,96.06c0-6.17,0-6.17,5.91-6.17s6,0,6,6c0,6.23,0,6.23-6.43,6.2C233,102.11,233,102.11,233,96.06Z" transform="translate(-1 -1)"/><path class="cls-133" d="M224.94,96.28c0,5.86,0,5.86-6.11,5.84-5.86,0-5.86,0-5.84-6.65,0-5.61,0-5.61,6.39-5.58C225,89.93,225,89.93,224.94,96.28Z" transform="translate(-1 -1)"/><path class="cls-133" d="M204.92,96c0,6.12,0,6.12-6.39,6.1-5.55,0-5.55,0-5.53-6.42,0-5.83,0-5.83,6.11-5.82C204.93,89.9,204.93,89.9,204.92,96Z" transform="translate(-1 -1)"/><path class="cls-134" d="M264.94,96.12c0,6,0,6-6.1,6-5.85,0-5.85,0-5.84-6.24,0-6,0-6,6.06-6C264.94,89.87,264.94,89.87,264.94,96.12Z" transform="translate(-1 -1)"/><path class="cls-135" d="M198.92,201.89c6,0,6,0,6,6,0,6.32,0,6.32-6.22,6.3-5.75,0-5.75,0-5.72-6.25C193,201.88,193,201.88,198.92,201.89Z" transform="translate(-1 -1)"/><path class="cls-136" d="M527.88,192.15l3.18-.05a15.55,15.55,0,0,1,.62,2.39,11.92,11.92,0,0,1-.28,2.25C528.57,196.21,526.18,195.82,527.88,192.15Z" transform="translate(-1 -1)"/><path class="cls-137" d="M427.16,214.07c1.67-.75,3.34-1.56,5,0-.23,1.13,0,2.35-.77,3.51C429.19,217.4,427.92,216.06,427.16,214.07Z" transform="translate(-1 -1)"/><path class="cls-111" d="M544.84,437,545,435c2.07-.31,4-1.32,6.16.33,1.62,1.26,3.46-1.9,4.48-.94,3.53,3.28,7.75-2.09,11,1.24,3.33-3.19,7.6,2.09,10.93-1.21,3.59,2.25,7.95-1.29,11.47,1.51,0,2.65,0,5.3-.09,7.95a6,6,0,0,1-.37,1.29c-2-.7-4.08-1.29-5.63.85-1.89.82-3.81-2.7-5.7,0a5.68,5.68,0,0,0-3.15.92c-2.06,0-4.2.48-6.05-.94-3.75.09-7.51.73-11.26,0-2.45,0-4.91-.25-7.34-.06-3.43.26-4.79-1.18-4.52-4.53A42.89,42.89,0,0,0,544.84,437Z" transform="translate(-1 -1)"/><path class="cls-138" d="M451.57,428c2-2.76,4-2.08,5.92,0a7,7,0,0,1-.64,1.29c-1,1.27-2,2.82-3.82,2.38S452.16,429.18,451.57,428Z" transform="translate(-1 -1)"/><path class="cls-139" d="M513.34,425c2.25-1.65,4.49-1.1,6.73,0a5,5,0,0,1-4.22,4.21C514,428.38,515.75,425.41,513.34,425Z" transform="translate(-1 -1)"/><path class="cls-140" d="M568.06,446c2.43-2.37,4.42-1.87,6.05.94a9.1,9.1,0,0,1-1.28,1.41C569.4,450.79,568.67,450.42,568.06,446Z" transform="translate(-1 -1)"/><path class="cls-141" d="M394.85,447.85c1.88-3.85,3.64-1.41,5.42.1-1.17,1.62-2.38,3.16-4.62,3.19C394.65,450.18,395.05,448.94,394.85,447.85Z" transform="translate(-1 -1)"/></g></g></svg>