<svg xmlns="http://www.w3.org/2000/svg" viewBox="0 0 793.17 297.02"><defs><style>.cls-1{fill:#8ec643;}.cls-2{fill:#99bc9d;}.cls-3{fill:#e88065;}.cls-4{fill:#d7cdb9;}.cls-5{fill:#889b61;}.cls-6{fill:#3e5058;}.cls-7{fill:#4e936a;}.cls-8{fill:#485c60;}.cls-9{fill:#75c060;}.cls-10{fill:#788087;}.cls-11{fill:#78c494;}.cls-12{fill:#bdd74d;}.cls-13{fill:#7b95a1;}.cls-14{fill:#42b54e;}.cls-15{fill:#94c94d;}.cls-16{fill:#0d8146;}.cls-17{fill:#1f8b55;}.cls-18{fill:#c7dc6e;}.cls-19{fill:#c8b566;}.cls-20{fill:#6f5935;}.cls-21{fill:#837347;}.cls-22{fill:#80cbd4;}.cls-23{fill:#6d7a7b;}.cls-24{fill:#9a9978;}.cls-25{fill:#d29d76;}.cls-26{fill:#fbbc60;}.cls-27{fill:#d89577;}.cls-28{fill:#f6f6f6;}</style></defs><title>Splash</title><g id="Layer_2" data-name="Layer 2"><g id="Layer_1-2" data-name="Layer 1"><path class="cls-1" d="M330.36,217.5q.11-29.48.2-58.95v-5.67h70.83v50.58c-2.42,2.12-5.69,2.25-8.48,3.51a2.46,2.46,0,0,1-3.32-1.26c-1.56-3.77.37-8.14-1.86-12.36-3.42,3.26-.4,8-3.39,10.72a4.76,4.76,0,0,1-4.73.09c-3-2.8-.55-7.14-3.32-11.25-2.41,4.82-.84,9.3-1.56,13.41-1.27,4.2-2.34,8.47-4.4,12.39-1.77.88-3.95-.35-5.62,1.08-1.44,1.64-.34,3.43-.32,5.17-1.38,6.77.52,11.81,7.42,14.3a3.76,3.76,0,0,1,2.58,2.84,17,17,0,0,0,3.79,8c.8,1,.34,1.84-.75,2.38-6.73,1.47-13.54.43-20.31.71-4.77.19-9.57-.25-15.15.37,2.3,1.68,4.24,1.35,6,1.36,11.44.06,22.88,0,34.32.05,2.61,0,5.37-.39,7.57,1.64,1.66,8.37,2.51,16.72-.46,25h-59v-44c0-.16-.21-.4-.15-.46C336.05,230.64,335.21,224.08,330.36,217.5Z"/><path class="cls-2" d="M113.23,133.31c.12-2,.36-4,.36-6,0-16.79-.08-33.57,0-50.36.18-24.57.5-49.15.77-73.72,0-.63.1-1.27.26-3.28,3.84,4.47,7.35,7.91,10.09,11.88,5.09,7.36,9.7,15.05,14.6,22.54a27,27,0,0,0,3.23,3.47c5.75,9.49,9.25,19.92,12.35,30.45a155.7,155.7,0,0,1,6.18,45.88c-.29,29.16-.07,58.33-.1,87.49,0,2.82.34,5.69-.82,8.4-2.55,2-4.78,5-8.66,2.59-1.16-2.71-.82-5.58-.82-8.39q0-52.73,0-105.44c0-2.61.25-5.26-1.1-8.81-1.84,3-1.45,5.38-1.45,7.65q0,57.23,0,114.45c0,4.47.27,9-.77,13.41-1,1.75-2.43,2.13-4.19,1.07-2-2.82-1.42-6.09-1.42-9.2q-.06-70.71,0-141.42c0-2.4.3-4.88-1-7.86-2,3-1.47,5.64-1.47,8.13q-.06,97.44-.06,194.89c0,3.09.7,6.38-1.53,9.14l-2.37-.05c-2.27-2.94-1.5-6.4-1.5-9.65q-.06-108.24-.06-216.47c0-2.68.66-5.6-1.33-7.92-2.09.56-1.93,2.05-2.06,3.32a64,64,0,0,0-.11,6.5q0,107.48,0,215c0,3.1.68,6.38-1.45,9.17l-2.42.16c-2.32-2.92-1.53-6.39-1.53-9.64q-.08-118.74-.06-237.49c0-2.75.47-5.6-1.06-8.89-1.94,2.58-1.41,5.08-1.42,7.38q-.06,59.49,0,119,0,60.49,0,121c0,2.94.61,6.06-1.54,8.64l-6.24-.09c-1.61-1.55-1.61-3.61-1.62-5.59,0-38.56-.14-77.13,0-115.7,0-.33.09-.66.12-1C112.86,149.75,112.2,141.52,113.23,133.31Z"/><path class="cls-3" d="M63.19,192.18q.09-31.19.17-62.38c0-2,0-3.9,0-6.15h42.29v34.2c1.68,2,1.46,4.37,1.46,6.67q.06,54.24,0,108.47c0,2.46.31,5.06-1.66,7.08l-42.14,0a3.61,3.61,0,0,1-1-1.55c-.22-7.64-1.23-15.3.61-22.89,2.63-2.06,5.67-2.23,8.82-1.91,8.87.92,17.8-.14,23.61.32-5.37-.08-13.81.08-22.24,0-2.37-2.53-.18-4.14,1.19-5.91,7-1.33,14.08,0,20-.56-4.86-.39-10.85.74-16.78-.57-1.61-3.77,1-5,3.69-6.29,4.58-.19,9.17-.16,13-.05-3.89-.91-8.83,1.29-13.35-1.16a4.71,4.71,0,0,1,0-4.76c4.83-2.56,10.07-.24,14-1.16-4.06.12-9.15-.12-14.24.11-3.13-.81-6.68-1.07-7-5.45,6.34-1.51,12.79-.12,18.1-.65-5.42-.5-12,.84-18.47-.68-1.38-1.65-2.1-3.42-1-5.51,7-1.86,14.19-.18,20-.79-6.85.26-15-.58-23.12.54-2.17,0-4.34.07-6.13-1.46C61.32,210.5,60.63,201.33,63.19,192.18Z"/><path class="cls-4" d="M327.3,152.46l-.06,5.28a11.54,11.54,0,0,0,0,14.68l0,5.28c-3.57,4.63-3.56,10.55,0,14.79,0,2.1-.07,4.19-.1,6.29-2.61,1.62-2,4.94-3.78,7-2.51.42-4.28-.76-5.69-2.68-2.3-4-3.05-4-5.5,0-1.78,1.84-3,5-6.52,2.65-.77-1.26-.35-3-1.53-4.15-2.86-1.61-3.43,1.47-5,2.54a5,5,0,0,1-4.3.14c-1.27-.51-1.52-2.22-3.21-2.62-3.71,1.51-2.65,5.1-3.11,8-.34,2.13-.43,4.29-.94,6.37-.93,3.83-2.78,4.6-6.88,3.06-1.34-7.24-2.33-14.48.64-21.59q0-50.52,0-101c0-2.15.21-4.29.32-6.44,1.84-.93,3.58-.17,5.28.39,19.16,6.4,38.34,12.71,57.49,19.14,1.56.53,3.19,1,4.28,2.36v37.36h-5.59c-1.49-1.63-1-3.7-1.3-5.62-.21-1.67.24-3.81-2.69-4.11-2.82,2.71,0,7.18-2.82,9.89l-5.24-.21c-1.65-2-1-4.36-1.23-6.6-.23-2.56-1.13-4.11-4.56-2.87C324.79,144.13,323.6,148.57,327.3,152.46Z"/><path class="cls-5" d="M246.63,125.43l6.77.36v50c.23.23.62.45.66.72,1.45,9.8,2.22,19.59-.44,29.33-2.18,1.61-4.73,1.42-7.21,1.42q-25.95.06-51.91,0c-2.47,0-5,.19-7.23-1.35-3-5.41-1.15-11.29-1.54-16.94-.2-2.91-.46-6,1.56-8.55V125.56h6.11a6.82,6.82,0,0,1,3.38-.71c15.31.09,30.61,0,45.91,0A20.79,20.79,0,0,1,246.63,125.43Z"/><path class="cls-6" d="M159.41,210.54c0-34.24.14-68.48,0-102.72-.1-22.27-5.86-43.27-15-63.44-.92-2-1.2-4.32-1.78-6.49h33.9V180.47a7,7,0,0,1,1.52,4.64c0,7.81.49,15.63-.3,23.43-3.13,5.1-7,6.59-12.42,4.45C163.32,212.21,161,212.31,159.41,210.54Z"/><path class="cls-5" d="M212.27,280.1H187.42c-1.55-1.35-1.6-3.23-1.6-5,0-6.29-.32-12.58.19-18.86a31.19,31.19,0,0,1,2.37-8.44c1.05-2.79,2.9-4.81,6.37-3.18,1.83,2.88,1.1,6.12,1.19,9.22.11,4,0,8,0,11.95.07,6.87,1,7.67,7.93,7.21a5.49,5.49,0,0,0,2.92-.79c1.27-1.48,1-3.37,1-5.16q0-18.66,0-37.34c0-1,0-2-.11-3-.22-2.92-1.49-5.21-4.4-6-2.75-.73-4.8.63-6.19,3a9,9,0,0,1-1.49,2c-3.28,1.13-6.19,0-7.69-2.7s-2.62-6.12-.06-9.19a11.67,11.67,0,0,1,5.82-1q26.83-.06,53.66,0c2.15,0,4.34,0,6.2,1.36,1.63,2,1.52,4.36,1.53,6.67q.08,26.24,0,52.48c0,2.3.21,4.72-1.58,6.62l-25.05.11c-2.21-2.14-1.43-4.94-1.61-7.51-.16-2.13.26-4.32-.92-6.61-3.49-1.43-7.17-1.06-10.86-.25C212.33,270.3,215.88,275.91,212.27,280.1Z"/><path class="cls-7" d="M748.35,261.31a4.34,4.34,0,0,0-1.47-.08c-10.17,2.8-14.34.2-15.93-10.17-5.4-1.11-9.49-4-10.12-9.92s2.34-9.81,7.53-12c.24-13.8,11-18.9,21.19-11.54,5.27-6,11.54-3.55,18.27-1.43q.39,5,.83,10.76c5.39,1.81,9.58,4.93,9.79,11.41.21,6.24-3.4,9.75-8.23,11.67-1,2.84-1.5,5.4-2.8,7.4-3.3,5.11-8.66,5.74-15.89,2.3-2.16-2.37-1.55-4.81,0-7.17s2.7-4.49,4.16-6.66c0-.54,1-.8.44-1.57a1,1,0,0,1-.2,1.1c-.24.43-.47.87-.74,1.29-5,7.65-5.13,7.65-10.59.7C747,251.45,751.91,255.17,748.35,261.31Z"/><path class="cls-7" d="M318.4,202.76l5,3.15c2.46,1.35,2.87,3.65,3,6.17.09,1.5-.6,3.31,1.28,4.32l2.67,1.1c7.53,6.23,7.54,13.79,0,20.12l-4,1.61v7.2c-.95,2.9-3.84,3.26-6,4.59-4.64,1.34-9,1.38-12.45-2.7-2.11-5.17,2.2-8.19,4-11.87-1.38,2.21-2.7,4.74-5.86,5.17.36,3.06,1.25,5.87-.42,8.53-4,3.46-8.2,3.25-12.54.78-3.09-1.73-5.68-3.83-6.5-7.56-.69-3.16-3.87-3.78-6-5.51-5.23-7.08-5-13.32.78-18.21l4.35-1.43c.62-3.41,1.17-6.44,1.73-9.48,1.39-3,2.95-5.76,6.95-5.37l4.85-.37c3.15-1,5.35.31,7,2.91l5.38-3.09C313.9,200.65,316.14,200.78,318.4,202.76Z"/><path class="cls-7" d="M378.37,251.35a9.68,9.68,0,0,1-5.11-9.78c-10.9-5.67-12.17-7.9-9.83-17.15.91-3,2.55-5.18,5.84-5.69q2.18-6.07,4.34-12.14a6.66,6.66,0,0,1,6.1-2.92l4.63,0c2.47-.33,4.7,0,6,2.44a21.68,21.68,0,0,0,2.67-.36c2.79-.71,5.57-1.5,8.35-2.26,6.76,1.66,9.27,6.32,8.91,12.78,9,4.75,10.63,7.37,9.53,15.19-1.42,1.8-3.33.84-5.05.87-3.25.06-6.43,1.35-7,4.41-1.11,6.17-6.57,9.65-8.41,15.23-2.69.8-4.78-.14-6.52-2.18a8.19,8.19,0,0,1,.45-7.63c.91-1.72,2.19-3.21,3.09-4.89-1.34,1.71-2.06,4-4.38,4.9-3.11.11-3.46-3-5-4.33,3.14,4.33,5.81,8.91,2,14.47C385.35,253.39,381.62,255.08,378.37,251.35Z"/><path class="cls-8" d="M128.65,280.19q0-52-.07-103.94,0-63,0-125.93V44H135c.11,1.49.3,2.94.3,4.39q0,113.93,0,227.87c0,1.33-.08,2.66-.12,4Z"/><path class="cls-3" d="M622,206.37q.19-18.39.4-36.79c.33-2.66,2.53-2.34,4.19-2.35q25.59-.21,51.17,0a5.08,5.08,0,0,1,4.08,1.43c.15.29.3.59.44.88q.19,18.45.38,36.91c-1.46,1.82-3.55,1.56-5.5,1.57q-24.84.07-49.68,0C625.5,208,623.42,208.19,622,206.37Z"/><path class="cls-6" d="M120.57,280.34c-.06-1.83-.16-3.66-.16-5.49q0-123.71,0-247.42V22.05h6v5.39q0,123.71,0,247.42c0,1.83-.13,3.66-.21,5.49Z"/><path class="cls-3" d="M682.21,208.64l.17,36.93c-1.71,1.8-4,1.42-6.07,1.42q-24.07.07-48.14,0c-2.1,0-4.37.39-6-1.48l.1-36.81c1.29-1.46,3-1.1,4.65-1.1q25.32-.06,50.65,0C679.14,207.6,680.88,207.24,682.21,208.64Z"/><path class="cls-9" d="M531.54,284l-28.32-.14c2.61-3.19.07-7,1.31-10.38.29-1.68,2.41-2.26,2.47-4.38a4.16,4.16,0,0,0-5.37-1.12c-.85,2.66,2,3.32,2.45,5.14,0,2.06-1.12,4,.13,6.27a3.57,3.57,0,0,1-1,4.43H491.51c-.27-2.15-.52-4.2-.77-6.25.45-1.21,1.77-1.81,2.17-3.06.4-1.67-1.26-2.45-1.64-3.78,0-3.33.24-6.67,0-10s.91-5.5,4.18-6.29c8.21-2,16.36-4.35,24.67-5.68,6.34-1,12.9-.68,19.36-.94,1.47,1.38,1.58,3.22,1.6,5q.18,12.87,0,25.74a7.17,7.17,0,0,1-1.66,5.05l-7.74.21c-1.66-2.16.14-5.18-2-7.23C531.74,278.71,530.13,281.68,531.54,284Z"/><path class="cls-3" d="M682.07,248.58v35.07H663.59c-3.23-4.37-1.41-9.3-1.56-14a6.13,6.13,0,0,1,.46-1.51c3.33-2.95,2.68-6.81,2.34-10.58-.15-1.64-1.14-2.29-2.77-1.89a27.58,27.58,0,0,1-3.63.27c-1,.05-2,.06-3,0-1.29,0-2.58,0-3.87,0-1,0-2.06,0-3.09,0s-2,0-3.06,0l-3.7.14c-3.48,3.64-1.79,7.71-.95,11.69.13.6.59,1.17.8,1.8.38,4.8,1.74,9.67-1.11,14.2H622.29V248.62c1.69-1.85,4-1.45,6.06-1.46q23.82-.07,47.65,0C678.1,247.17,680.37,246.77,682.07,248.58Z"/><path class="cls-10" d="M281.43,219.65c-1,2.56-2.93,5.16-2.82,7.67.14,3.46,1.82,6.85,2.84,10.27a6.77,6.77,0,0,1,1.59,4.59q.22,16.62,0,33.23c0,1.84-.28,3.65-1.87,4.93l-13.8.21c-1.58,0-3.07-.26-3.9-1.87a13.32,13.32,0,0,1-.72-5.38c0-19.23-.1-38.46,0-57.68,0-4.94.36-10,5.37-13l13.24-5.06Z"/><path class="cls-1" d="M55.66,255.65V280.3H35.73V259.64H23.39v20.69H3.81v-30H46.27C49.1,252.63,52.53,253.88,55.66,255.65Z"/><path class="cls-8" d="M137.57,280.32c0-2-.16-4-.16-6V66.09h6.16V226.46c.35.57.84,1.25.63,1.84-2,5.81-.63,11.47.64,17.14.12,9.78,0,19.56,0,29.33,0,2,.19,4-1.56,5.53Z"/><path class="cls-6" d="M268.16,202.64c-3.55,5.55-4,11.66-3.9,18.08.23,19.64.14,39.28.18,58.92.23.19.29.36.19.51s-.18.22-.27.22L253.52,280l0-65.29a7.91,7.91,0,0,0,0-9.22q0-14.85-.07-29.68h14.76Z"/><path class="cls-11" d="M399.36,251.57c-.71-4.74,2.27-7.32,5.62-9.56,1-7.32,3-10.35,8-11.08,2.2-.32,4.54.3,6.81.5a6.7,6.7,0,0,0,2.37.61c2.47-.36,4.92-.93,7.38-1.42,2.78-.17,3.92,1.67,4.72,3.9l2.94,4c2.71,1.13,3.52,3.59,4.21,6.12,2.14,4.66.51,8.44-2.78,11.83-.22,1.52-1.21,2.69-1.81,4-3.13,7-6.88,8.55-14.2,6a4.41,4.41,0,0,1-2.12-4.46c-.34,2.16.42,4.34-1.85,5.45-2.77.7-5.53,1.27-7.94-.95l-4.35-7.35.5-.28q-2.7-1.62-5.41-3.23C398.78,255.33,398.43,253.79,399.36,251.57Z"/><path class="cls-11" d="M55.66,255.65c-4.31.32-7.86-.73-9.39-5.33.65-4-3-3.51-4.94-4.79-1.62-.92-3.26-1.83-4-3.72-.6-1.71-2-3.19-1.51-5.23,1.71-3,4.47-5.21,5.58-8.55,1.15-5.34,4.78-8.11,9.78-9.48a4.81,4.81,0,0,1,4.41,1l2.58,1c1.85.32,3.37-1.18,5.21-.94l5.73.1c1,.55,2.42.64,2.84,2l1.8,4.79a1.86,1.86,0,0,1,0,2L80,232.8c1.15.2,1.34.95,1.1,1.94l.35,4.82c.5.76.69,1.44-.4,1.86l-4.11,4.87c-.25,1.34-1.74,1.3-2.4,2.19l-2.19,4.94c0,.82-.71.83-1.22,1.07l-7.68.82a3.08,3.08,0,0,1-2.79-2.11c-.63-2.19-.54-4.25,1.16-6,1-.83,1.35-2.11,2.11-3.11a.74.74,0,0,1,.69-.39q-.44-.19-.66.33c-.79.9-1,2.16-2,3-3.39,1.55-1.27,5.79-3.79,7.75Z"/><path class="cls-12" d="M376.35,116.53c.65-3.45,4-3,6.14-4.27,1.61-.92,4.6-.69,3.75-4.39l-4.32.29,7.37-10.68c-2.33-1.73-2.33-1.73-4.92.7l-3.89-1.76-.92.7c.54,1.81,1.07,3.62,1.74,5.89l-3.53,5-3.57-5.7-1.47.44c.13,1.39-.13,3,.47,4.12,2.16,4.07,1.27,7.27-2.07,10.08-2-1.36-.8-5.77-5.65-4.93,1,3.1,2,6,2.91,8.9-2,3.49-3.9,6.88-6.19,10.93-2.92-8.68-4.38-16.75-2.58-25C360.9,100.93,364.68,96.65,370,94c3.85-2,7.93-3.44,11.92-5.11,4.27-1.81,8.55-3.59,13.49-5.66,4.24,10,4.81,19.84.47,29.81-5.65,13-16.2,19.19-31,21.55,2.23-4.1,3.39-8,5.92-10.4s6.3-3.34,9.45-4.88c.43-3.57-2.25-2.08-3.67-2.56Z"/><path class="cls-11" d="M596.57,254.19c-7.31,2.74-10.67.88-12.45-6.9-8.5-2.78-10.75-11.38-2-17,1.89-10.41,6.53-13.06,15.4-8.79,9.29-5.14,14.39-.89,15,7.17,9.1,3.81,9.72,13.85.64,17.8-2.08,8.24-3.57,9.1-13.72,7.89-1-3.81-.91-4.41,1.75-8.92-.71.43-1.07,1.19-1.72,1.69s-1.53.49-2.22,1C597.19,250.17,598.29,252.35,596.57,254.19Z"/><path class="cls-13" d="M105.45,280.07q0-58.11,0-116.24c0-2,.11-4,.17-6l3.72-.28a3.63,3.63,0,0,1,5,0l-.06,122.71Z"/><path class="cls-14" d="M599.61,265.29c5.33,4.67,8.45,10.53,9.85,18H567.73V250.5a65,65,0,0,1,28.77,11.72c2.85,4.6.47,9.68,1.45,13.71C598.66,272.93,596.51,268.69,599.61,265.29Z"/><path class="cls-14" d="M539.39,283.61l.06-35.82,24.67,1.47v34.35Z"/><path class="cls-15" d="M55.38,177.76V209.1H3.87V177.76Z"/><path class="cls-12" d="M31.36,136.09c1.81-7.13,5.92-11.35,13.38-12.3l-.52-1.37-4.69-2,10.7-5.24-3.89-2.32,5.29-8.63c-2.94-1.77-5.26,4.39-7.68-2.46-.55,5.24,2.07,8.94-2.36,11.13l-3.13-4.17c-1.15,2.9-1.15,2.9.71,8.19a17.13,17.13,0,0,1-1.09,2A22.62,22.62,0,0,1,36.16,121L33,116c-.57,1.5-1.42,2.7-1.13,3.17,3.6,5.71-.72,9.58-2.93,14.11-7.85-12.85-3.54-27.41,9.83-33.36,5.75-2.55,11.66-4.74,17.52-7.1C64.81,105.55,58.52,133,31.36,136.09Z"/><path class="cls-3" d="M622.18,166.47q0-9.9-.08-19.8c-.59-2.61,1.29-3.09,3.12-3.47a30.68,30.68,0,0,1,6.43-.3c14.57,0,29.14-.1,43.71.08,2.77,0,6.33-.65,6.91,3.74l.06,19.81c-1.34,1.38-3.08,1-4.7,1q-25.38.06-50.77,0C625.24,167.55,623.49,167.91,622.18,166.47Z"/><path class="cls-16" d="M246.63,125.43a18,18,0,0,1-4.17,1q-22.12.1-44.25,0a27.79,27.79,0,0,1-4.81-.87V111.83h16.29a49.49,49.49,0,0,1,21.19.13h15.75Z"/><path class="cls-15" d="M55.63,219.57l-5.47.18c-5.19.77-10.48-.08-16,.65A150.74,150.74,0,0,0,34,236.84c.1,3,3,3.22,4.44,4.82l2.91,3.87H3.72V214.12H55.63Z"/><path class="cls-4" d="M281.17,280.34q.13-21.37.28-42.75l5.7,2.12c.93,4.12,1.67,8.46,6.53,10-.08,2.1-2.68,1.64-3.44,3.61,2.08,2.22,4.94,1.64,7.58,1.88,2.83.26,6-.83,8.3,1.82a3.54,3.54,0,0,1,.58,1.89c-.92,7.13-1.33,14.33-2.92,21.37l-5.49.26c-2.62-3.7-.62-8.06-1.8-12.4-1.56,4.25.75,8.79-2,12.43Z"/><path class="cls-12" d="M455.12,256.09a80.11,80.11,0,0,1,29.29,3.73c.31,1.55-.66,2.5-1.68,3.32-6.22,5-10.79,11-12.34,19a3.15,3.15,0,0,1-1.14,1.56l-13.87-.09a3.69,3.69,0,0,1-1-1.66C453.56,273.31,452.48,264.64,455.12,256.09Z"/><path class="cls-17" d="M348.8,112c-10.39-3.33-20.81-6.6-31.18-10-12-3.91-23.92-7.93-35.87-11.9l-.46-6.29L348.8,106.4Z"/><path class="cls-18" d="M422.51,265.43c2.86.09,6,.9,8.49,0,1.86-.64,2.93-3.49,4.41-5.31,1-1.27,2.17-2.47,3.26-3.7.93.67,2.65,1.33,2.67,2,.18,8.23.12,16.46.12,25.37H422.64C419.81,277.72,420,271.58,422.51,265.43Z"/><path class="cls-17" d="M682.27,146.72c-1.19-.65-2.38-1.87-3.57-1.88q-26.85-.18-53.69,0c-1,0-1.94,1.19-2.91,1.83-4.16-.81-4.24-1-2.81-6.45h65.45C686.18,145.69,686.13,145.81,682.27,146.72Z"/><path class="cls-9" d="M469.25,283.72c.21-9.09,5.44-15.36,11.83-21l3.33-2.93,4.95-1.75v12.54c-.53,2.09-.11,4.2-.17,6.3-.22,2.11-.43,4.22-.69,6.81Z"/><path class="cls-10" d="M176.44,209.56l0-29.09,10.81,0,.06,25c-1.15,1.85-1.52,4.15-3.25,5.67A8.21,8.21,0,0,1,176.44,209.56Z"/><path class="cls-3" d="M326.52,280.6l-17.37,0c-2.3-5.4-2-10.81,0-16.23,6.08-2.06,12.13-2.66,18.09.43l.11,14.75Q326.91,280,326.52,280.6Z"/><path class="cls-19" d="M212.27,280.1V263.92h16.2v16.2Z"/><path class="cls-18" d="M455.12,256.09q.13,13.77.26,27.54H445.6V256.51Z"/><path class="cls-10" d="M187.34,255.51q0,12.28.08,24.59L176.24,280c-2.69-7.08-1.47-14.3-.82-21.5C179,255.9,183,255.22,187.34,255.51Z"/><path class="cls-18" d="M410.75,266.5l8.56-.18a23.36,23.36,0,0,1,.11,18.09H405.23C402.69,275.07,403.68,272,410.75,266.5Z"/><path class="cls-1" d="M399.36,251.57l2.13,4.07v26h-8a5,5,0,0,1-1.64-4c-.22-8.38-.36-16.77.17-25.15a4.14,4.14,0,0,1,1.45-3Z"/><path class="cls-20" d="M309.12,264.66l0,15.91c-.32,1.73-.65,3.46-1,5.18l-1,.47c-.57-.82-1.22-1.59-1.71-2.45-.64-1.14-1.16-2.35-1.73-3.53q.81-11.92,1.63-23.84c-2-2.2-1.43-4.43-.08-6.68-.24-3.2-.47-6.4-.72-9.87l3.18.41,5.72-7.24,1,.57c-1.31,2.4-2.8,4.71-3.87,7.21a60.68,60.68,0,0,0-2.1,6.87,17,17,0,0,1,1.33,8.53C309.82,259,310.28,261.92,309.12,264.66Z"/><path class="cls-6" d="M152.18,280.3l-5.65-.07a4.25,4.25,0,0,1-1.57-3.52c-.06-9.47-.16-18.94,0-28.42a5,5,0,0,1,.77-2.34c3.05-2.29,5.13-.69,6.69,1.9a11.28,11.28,0,0,1,1.38,6.09c.31,6.63.28,13.27.2,19.91C154,276.14,154.25,278.57,152.18,280.3Z"/><path class="cls-21" d="M393.44,249.53l0,32.15c-.78,1.74,1,4.94-2.9,5.43-.44-2.13-.78-3.82-1.12-5.5q0-12.62-.05-25.22c-.79-1.69-.17-3.39-.07-5.1,1.55-6.46-2.18-11.45-5.26-16.62l.86-.46,7.44,7.38a1.32,1.32,0,0,1,2,0Z"/><path class="cls-22" d="M640.41,283.8l.3-15.16a1.44,1.44,0,0,1,1-1.51c1.33-.26,2.68-.35,4-.62a14.43,14.43,0,0,1,2.94-.15,5,5,0,0,1,3,1.06,4.44,4.44,0,0,1,.8,1.54c.55,4,.22,8.08.26,12.13,0,1.64-.14,3.26-1.6,4.38-2.6,0-5.22.23-7.8,0C642.36,285.4,641.4,284.39,640.41,283.8Z"/><path class="cls-20" d="M171.46,280.55v12.6l-1.68.15c-3.22-3.73-.61-8.55-1.46-12.72-2.9-5.22-1.15-10.84-1.41-16.29.07-2.21-.07-4.42.07-6.63.56-4.15-.74-7.75-3-11.22-1.26-1.93-3.31-3.93-1.56-6.81,3.87-.34,4.51,4,7.41,5.1,2.55-.33,3-4.16,6-3.66a1.81,1.81,0,0,1,1,1c.43,2.14-.58,3.91-1.69,5.5a11.09,11.09,0,0,0-1.61,10.28c0,6.22-.9,12.4-.73,18.63A5.6,5.6,0,0,1,171.46,280.55Z"/><path class="cls-22" d="M663.3,268.56l.29,15.09c-.94.64-1.83,1.74-2.81,1.83-2.7.23-5.44,0-8.16,0-1.62-5.22-.27-10.58-.7-15.85.14-1.78,1.44-2.29,2.89-2.63a34.15,34.15,0,0,1,4,.19A5.94,5.94,0,0,1,663.3,268.56Z"/><path class="cls-6" d="M168.26,263.41l.06,17.17-8.63-.42a3.78,3.78,0,0,1-1.74-3.34c0-6-1.13-12.06.83-18,1.64-1.83,3.66-1.76,5.79-1.18C167.19,258.68,166.25,262,168.26,263.41Z"/><path class="cls-20" d="M756.39,244.57c-.78,2-1.25,4.13-2.42,5.82-2,2.88-3.09,5.82-2.45,9.32V296.9c-3.71.67-3.25-1.54-3.25-3.23q0-16.19.08-32.36c1.6-7-4.25-11.35-5.65-17.64l7,8.2,6.72-7.28Z"/><path class="cls-1" d="M59.18,147.56c.15,4.18-2.52,3.12-4.18,3.13-15.83.08-31.65.05-47.48.05H.65L0,149.63c.66-.76,1.18-1.86,2-2.18a10.23,10.23,0,0,1,3.47-.15q24.24,0,48.48,0C55.58,147.31,57.21,147.46,59.18,147.56Z"/><path class="cls-5" d="M230.88,112l-21.19-.13v-7.39l8.86-.48a3.59,3.59,0,0,1,3.61.17h8C230.45,107.13,230.66,109.55,230.88,112Z"/><path class="cls-2" d="M159.47,258.59q.1,10.79.22,21.57l-7.51.14q.15-13.31.29-26.62A11.1,11.1,0,0,1,159.47,258.59Z"/><path class="cls-12" d="M40.43,169.43h-5.6V157.14H47c.24,3.91.47,7.82.73,12.28l-6,.28V161l-.83,0Z"/><path class="cls-4" d="M309.12,264.66l-.57-8c6.18-2.88,12.42-2.45,18.69-.34,0,2.82,0,5.63,0,8.44Z"/><path class="cls-8" d="M63.42,219.59c-.87.66-1.76,1.29-2.6,2-1.56,1.31-2.17.35-2.61-1.06.42-3.1-1.13-6.64,2-9.17-3.39-4.91-1.84-10.44-1.53-15.69.07-1.25,3-2.33,4.54-3.49Q63.31,205.89,63.42,219.59Z"/><path class="cls-21" d="M599.61,265.29c-.74,5.33.59,10.89-1,16.79-1.18-.95-1.85-1.24-1.86-1.55-.14-6.1-.21-12.21-.29-18.31,0-2.68,0-5.35.07-8-.39-2.69-.79-5.38-1.23-8.42l3,1.19,5.05-5.88c-1.54,5.21-2.73,9.24-3.93,13.27Z"/><path class="cls-8" d="M327.24,256.33l-18.69.34,0-9c3.48,3.08,7.36,3.82,11.68,2,2.32.66,5.09-1.47,7.1,1.12Z"/><path class="cls-19" d="M114.39,157.54l-5,0V134l3.86-.64a21.41,21.41,0,0,1,1.08,4.56C114.44,144.42,114.38,151,114.39,157.54Z"/><path class="cls-6" d="M171.46,280.55l.9-24c1.75-1.1,3-.41,4.08,1.08q-.1,11.21-.2,22.41Z"/><path class="cls-3" d="M327.3,152.46l-3.54-.4v-14h7.4V149.3Q329.24,150.89,327.3,152.46Z"/><path class="cls-23" d="M768,212.57h-9.14V202H768Z"/><path class="cls-24" d="M146.52,245.73q0,17.25,0,34.5l-3.2.07q.09-17.83.17-35.65C144.94,243.79,146.23,243.36,146.52,245.73Z"/><path class="cls-20" d="M62.43,246.6l-1,7c1.81,3.1.78,6.49,1,9.75.37,5.44-.64,10.94.62,16.35a.57.57,0,0,0,.31.4l-5.14,2V248l4.18-1.42Z"/><path class="cls-23" d="M784,226V215.73h9.2V226Z"/><path class="cls-15" d="M8.89,172.45H3.72v-16.8l5.17-.3Z"/><path class="cls-15" d="M32.19,155.7v16.62h-5.4V155.7Z"/><path class="cls-21" d="M419.42,284.41q-.06-9-.11-18.09v-7.53h2.29c.33,2.38.62,4.51.91,6.64q.06,9.19.13,18.41l-.85,8.81-1.69,0Q419.76,288.52,419.42,284.41Z"/><path class="cls-23" d="M793.09,212.52h-8.78V201.9h8.78Z"/><path class="cls-23" d="M771.5,215.57h8.77v10.27H771.5Z"/><path class="cls-23" d="M780.3,212.49h-8.77V202h8.77Z"/><path class="cls-12" d="M23.4,169.59h-11a8,8,0,0,0-1-1l.18-6a11.79,11.79,0,0,1,12.64,0l.18,6A8.68,8.68,0,0,0,23.4,169.59Z"/><path class="cls-1" d="M55.31,172.5H50.62V155.66h4.69Z"/><path class="cls-3" d="M336.4,149.51V138h6.81v11.36Z"/><path class="cls-18" d="M24.22,162.62H11.58L11.26,157H24.54Z"/><path class="cls-23" d="M441.45,244.62l-4.21-6.12c.31-.36.58-1,.95-1.05,2.59-.47,5.59-1.74,7.68-.87,1.26.52,1.12,4.42,1.73,7.43Z"/><path class="cls-19" d="M222.16,104.13l-3.61-.17V86.15c5.08,2.36,3.06,5.9,3.38,8.57C222.3,97.82,222.1,101,222.16,104.13Z"/><path class="cls-25" d="M622.18,166.47l60.15.06,1.84,1-1.92,2,0,0c-.75-1.45-2.09-1.42-3.45-1.42q-27.5,0-55,0a9.77,9.77,0,0,0-2.44.48l-2.53-1.15Z"/><path class="cls-23" d="M446.78,225.64c.15,2.9.26,5.26.41,8.2h-7.57v-7.79Z"/><path class="cls-19" d="M621.24,247.69l-.74-1.86c19.46.59,38.92.08,58.38.28,1.8,0,3.66-.47,5.39.47l-1,1c-2.75.89-5.58.4-8.37.41q-24.36.08-48.72,0C624.52,248.05,622.84,248.36,621.24,247.69Z"/><path class="cls-24" d="M622,206.37l60.66,0,.91,1.34c-13.07.7-26.14.21-39.21.27-7.78,0-15.56.4-23.33-.25l-.93-.75Z"/><path class="cls-24" d="M684.27,246.58q-29.24,0-58.48-.07a43.5,43.5,0,0,1-5.29-.68l1.63-.32,60.25.06Z"/><path class="cls-8" d="M294.47,280.53V265.07c2.8-1,4-.24,3.92,2.5-.07,4.31-.07,8.62-.1,12.93Z"/><path class="cls-26" d="M621.4,168.56a15.55,15.55,0,0,1,3.69-.91c17.78-.06,35.57-.08,53.35,0,1.29,0,2.56,1.17,3.84,1.79a28.15,28.15,0,0,0-4.83-.86q-25.46-.09-50.9,0a19,19,0,0,0-4.18,1Z"/><path class="cls-26" d="M621.24,247.69l62-.06-1.17,1-59.78,0Z"/><path class="cls-26" d="M621,207.78l62.54,0-1.33.88-60,.06Z"/><path class="cls-3" d="M327.25,172.42l-3.49-.32V158.2l3.48-.46Q327.24,165.08,327.25,172.42Z"/><path class="cls-23" d="M456.32,236.33v7.76H449.6v-7.76Z"/><path class="cls-23" d="M449.52,226h6.73v7.88h-6.73Z"/><path class="cls-23" d="M434.3,234.52l-4.72-3.9c.15-1.42.3-2.85.5-4.62h6.31C438.11,231.56,437.81,232.71,434.3,234.52Z"/><path class="cls-3" d="M327.31,192.49l-3.78-.43c0-3.81.05-7.43,0-11-.05-2.67,1.39-3.5,3.77-3.32Z"/><path class="cls-3" d="M327.69,216.4c-.73-.65-1.84-1.18-2.1-2-.89-2.78-1.49-5.66-2.19-8.51,0-1.29.15-2.59.12-3.88-.07-2.61,1.33-3.45,3.69-3.25Z"/><path class="cls-26" d="M489.19,276.91c-1.41-2.14-3.58-4.3.17-6.3l1.91.07,4.94,3.13-5.47,3.71Z"/><path class="cls-4" d="M327.3,250.74l-7.1-1.12,6.2-3.19Z"/><path class="cls-27" d="M652.6,268.76l0,16.72h-1.43l.15-17.7C652.4,267.29,652.7,267.77,652.6,268.76Z"/><path class="cls-4" d="M264.36,280.37a.85.85,0,0,1,.08-.73l2.93.91Z"/><path class="cls-18" d="M11.4,168.58l1,1Z"/><path class="cls-18" d="M23.4,169.59l1-1Z"/><path class="cls-12" d="M376.54,116.72l-.6.42.41-.61Z"/><path class="cls-4" d="M326.52,280.6l.81-1.08Z"/><path class="cls-28" d="M354.54,262.58h22.73v15.61H354.54Z"/><path class="cls-28" d="M389.32,251.29c0,1.7,0,3.4.07,5.1q-22.41,0-44.83,0c-2.94,0-5.69-.18-6.42-5h40.23Z"/><path class="cls-28" d="M347.73,236.46H341.9V218.3l5.83-.25Z"/><path class="cls-28" d="M347.77,209.91h-5.85V192h5.85Z"/><path class="cls-28" d="M347.47,183.4h-5.12c-2.17-9.42-.52-15.79,5.12-18.16Z"/><path class="cls-28" d="M358,183.34H352.7v-18H358Z"/><path class="cls-28" d="M379.23,183.3H374V165.23h5.26Z"/><path class="cls-28" d="M363.53,191.83H369v18l-5.46.38Z"/><path class="cls-28" d="M369,183.35h-5.4V165.24H369Z"/><path class="cls-28" d="M352.65,191.55l5.45.25v18h-5.45Z"/><path class="cls-28" d="M358,236.57h-5.27v-18H358Z"/><path class="cls-28" d="M389.71,183.31h-4.94V165.62C390.4,167.3,391.74,172.31,389.71,183.31Z"/><path class="cls-28" d="M379.71,203.67l-6.1,2.92V191.82l6.1-.28Z"/><path class="cls-28" d="M345,262.66c3-1.2,4.08-.36,4.08,2.11,0,4.3,0,8.6,0,13.08-2.12.78-3.92,1.2-4-1.62C344.82,271.64,345,267,345,262.66Z"/><path class="cls-28" d="M390.37,206.08l-6-2.44V191.88l6-.39Z"/><path class="cls-28" d="M386.12,278.18c-3.36.73-3.17-1.52-2.94-3.22.56-4.19-1.74-9,1.55-12.63l1.39.18Z"/><path class="cls-28" d="M369.27,218.73l-5.84,5.69c-.16-1.9-.33-3.8-.58-6.68Z"/><path class="cls-7" d="M146.52,245.73l-3-1.08c-.7-3.42-1.88-6.84-1.95-10.27-.06-2.63,1.29-5.28,2-7.92l2.9-.89c1.89-1.43,1.31-3.6,1.66-5.5.52-2.81,1.05-5.61,4.35-6.58l6.93-3,9.84,2-.08.88,7.27-3.87,7.45,1.05c2.29.39,3,2.1,3.47,4l1.56,8.32,6.14,2.74a11.18,11.18,0,0,1-.69,18.83c-3,.54-5.08,1.77-5.13,5.42,0,1.86-1.23,3.69-1.9,5.54-3.6.87-6.8,3.83-10.9,2.12l-4.08-1.08c-1.86-2.86-.9-5.44.62-8.09,1.28-2.22,2.29-4.59,3.42-6.89h0l-6.56,5.88L163.19,240c.56,6,7,10,5,16.71-.8.91-1.54,1.91-2.93,1.9l-5.75,0-7-4.91L151.11,247Z"/><path class="cls-6" d="M152.48,213.49a11.8,11.8,0,0,0-3.13,9.33c.25,2.1-.85,3-2.88,2.75V88.13h5.86V94.2q0,56.42,0,112.81C152.33,209.17,152.43,211.33,152.48,213.49Z"/><path class="cls-26" d="M101.06,147.59v6H71.23c-2,0-3.7-.46-3.75-2.91s1.49-3.07,3.59-3.07Z"/><path class="cls-26" d="M67.75,171.31V166.9H101v4.41Z"/><path class="cls-26" d="M67.74,180.33V175.9h32.92a4,4,0,0,1,.61,1.35,27,27,0,0,1-.27,3.08Z"/><path class="cls-26" d="M67.78,134.3c-.09-1.46-.17-2.7-.28-4.37H101c.08,1.31.16,2.67.26,4.37Z"/><path class="cls-26" d="M101.09,138.57v4.73H67.93c-.82-2.68-.45-4.66,2.8-4.69C80.65,138.51,90.57,138.57,101.09,138.57Z"/><path class="cls-26" d="M101,189.33H67.93c-.88-2.93-.26-4.71,2.95-4.73,9-.06,17.93,0,26.89,0C101,184.57,101.66,186.28,101,189.33Z"/><path class="cls-26" d="M100.89,157.8c.82,3,.19,4.75-3,4.76q-13.45,0-26.89,0c-3.22,0-3.88-1.74-3-4.76Z"/><path class="cls-26" d="M69,260.08h31C97.48,261.85,76.66,262.43,69,260.08Z"/><path class="cls-26" d="M69,206.09h30.8v1H69Z"/><path class="cls-26" d="M99.8,214.19H68.29C71.87,212.32,94.51,212,99.8,214.19Z"/><path class="cls-26" d="M72,221.73l-2.84-2H99.81l0,1.36C90.62,222.28,81.25,221,72,221.73Z"/><path class="cls-26" d="M73.77,228.51l0-2h26l.07,1.69c-4.19.64-8.48.21-12.72.29C82.71,228.57,78.24,228.51,73.77,228.51Z"/><path class="cls-26" d="M74.51,248.48l2.4-2.19,22.91.5v1.69Z"/><path class="cls-8" d="M63,279.69c-.54-1.4-1.53-2.78-1.56-4.18-.15-7.31-.06-14.61-.06-21.92l2,1.72Z"/><path class="cls-26" d="M81.07,234.74,80,232.8H99.83l0,1.6Z"/><path class="cls-26" d="M81,241.42l.4-1.86H99.85v1.86Z"/><path class="cls-26" d="M71.1,254.49l1.22-1.07H99.24v1.07Z"/><path class="cls-3" d="M323.83,132V118h7.09v14Z"/><path class="cls-3" d="M294.13,138v14h-6.42V138Z"/><path class="cls-3" d="M299.64,192.14v-14h6.45v14Z"/><path class="cls-3" d="M287.63,172.11v-14H294v14Z"/><path class="cls-3" d="M299.69,157.88H306v14.2h-6.35Z"/><path class="cls-3" d="M306.06,152.27h-6.22V138h6.22Z"/><path class="cls-3" d="M311.82,192.11v-14l6.28-.42v14.43Z"/><path class="cls-3" d="M312,117.79h6.11V132H312Z"/><path class="cls-3" d="M318,172.25h-6.13V158.08H318Z"/><path class="cls-3" d="M318.23,137.64v14.48h-6.3v-14Z"/><path class="cls-3" d="M306.11,131.44h-6.4V118h6.4Z"/><path class="cls-3" d="M288,177.9h6v13.89C287.72,191.16,286.18,187.74,288,177.9Z"/><path class="cls-3" d="M294.15,117.83v13.45H288C286.07,123.64,287.81,118.67,294.15,117.83Z"/><path class="cls-3" d="M342.63,131.42h-6V118.09C342.88,119.41,344.4,122.79,342.63,131.42Z"/><path class="cls-3" d="M294.46,203.37l-6.95,5.37c-.3-6.79.67-8.25,6.39-9.05Z"/><path class="cls-3" d="M306.31,205.91l-7-2.91c.12-1,.23-1.95.38-3.23h6.62Z"/><path class="cls-3" d="M318.4,202.76l-6.71.06c.4-4.36.42-4.37,6.38-3.62C318.17,200.33,318.29,201.54,318.4,202.76Z"/><path class="cls-26" d="M187.36,214.66l-3.47-4c.73-2-.67-5.42,3.46-5.13l66.12,0c3-.1,2.91,2,2.77,4.05s1,4.95-2.74,5.17Z"/><path class="cls-19" d="M246.6,199.25h-8.27c.29-2.92.25-5.56.93-8a4.16,4.16,0,0,1,3.17-2.39,4.26,4.26,0,0,1,3.15,2.44C246.28,193.62,246.25,196.14,246.6,199.25Z"/><path class="cls-19" d="M246.31,171.35h-7.83c0-2-.12-4,0-5.88.18-2.36,1.29-4.42,3.82-4.47s3.74,1.95,3.95,4.33C246.44,167.12,246.31,169,246.31,171.35Z"/><path class="cls-19" d="M246.16,185.34h-7.5c0-2.45-.46-4.84.15-6.91.43-1.41,2.36-3.29,3.61-3.28s3.12,1.89,3.59,3.32C246.63,180.4,246.16,182.68,246.16,185.34Z"/><path class="cls-19" d="M239.12,157.63c-1.49-8.51-.49-10.17,6.26-9.73.39,2.77.81,5.74,1.32,9.39Z"/><path class="cls-19" d="M245.71,143.35H238.9c-.4-3.38-1.75-6.76,1.62-9.1a4.23,4.23,0,0,1,4,.18C247.52,136.93,246.48,140.18,245.71,143.35Z"/><path class="cls-19" d="M234.42,199.33h-6.94c0-2.45-.49-4.85.16-6.88.47-1.47,2.46-2.46,3.77-3.66,1,1.27,2.55,2.42,2.89,3.86C234.79,194.75,234.42,197.05,234.42,199.33Z"/><path class="cls-19" d="M223.35,199.37h-6.87c0-2.55-.36-5,.14-7.28.29-1.28,2.22-3.28,3-3.11a5.38,5.38,0,0,1,3.54,3.18C223.79,194.25,223.35,196.63,223.35,199.37Z"/><path class="cls-19" d="M205.44,199.2c0-2.57-.44-4.95.16-7a5.4,5.4,0,0,1,3.54-3.19c.8-.17,2.71,1.82,3,3.1.52,2.14.14,4.5.14,7.12Z"/><path class="cls-19" d="M216.44,185.26c0-2.61-.42-4.83.14-6.78.41-1.44,2.11-2.5,3.23-3.74,1.19,1.17,3,2.16,3.4,3.54.58,2.09.15,4.45.15,7Z"/><path class="cls-19" d="M201.42,185.25h-7.06c0-2.41-.3-4.58.11-6.59.28-1.35,1.59-2.49,2.44-3.72,1.36,1,3.43,1.7,3.91,3C201.58,180,201.25,182.44,201.42,185.25Z"/><path class="cls-19" d="M211.94,185.26h-6.28c0-3.88-1.79-7.77,2.26-10.43C212.88,176.74,212.94,176.88,211.94,185.26Z"/><path class="cls-19" d="M201.42,199.25h-7c0-2.57-.28-4.9.11-7.11.22-1.19,1.49-2.91,2.47-3s3.17,1,3.47,2C201.15,193.47,201.1,196.1,201.42,199.25Z"/><path class="cls-19" d="M227.65,185.26c0-4.26-1.59-8.49,3.75-10.53,4.86,2.46,2.66,6.59,2.76,10.53Z"/><path class="cls-19" d="M201,171.3h-6.24c-.27-3.79-1.71-7.52,1.88-10.39C201.45,162.53,201.74,163.21,201,171.3Z"/><path class="cls-19" d="M223.39,157.33c-1.85.13-2.83.25-3.82.24-.8,0-1.6-.16-3.13-.33,0-2.31-.37-4.64.15-6.75a5,5,0,0,1,3.2-2.81c2-.51,3.51.68,3.59,3C223.45,152.74,223.39,154.84,223.39,157.33Z"/><path class="cls-19" d="M223.39,143.38h-7c0-2.27,0-4.35,0-6.42s1.1-3.35,3.33-3.4,3.53.82,3.61,3.1S223.39,141.1,223.39,143.38Z"/><path class="cls-19" d="M213.18,157.3H205a73.24,73.24,0,0,1,1.63-9.05c.14-.48,3.75-.68,3.91-.28A84,84,0,0,1,213.18,157.3Z"/><path class="cls-19" d="M224.09,171.37h-7c-.62-3.18-1.86-6.45.74-9.18.7-.73,3.84-.57,4-.15A82.06,82.06,0,0,1,224.09,171.37Z"/><path class="cls-19" d="M212.35,171.41H205.4c0-2.41-.36-4.73.14-6.83a5,5,0,0,1,3.13-2.9c2-.54,3.56.57,3.66,2.87C212.42,166.66,212.35,168.78,212.35,171.41Z"/><path class="cls-19" d="M234.41,157.36h-6.84a52.69,52.69,0,0,1,.07-6.78c.25-2,1.6-3.64,3.76-2.88a5.26,5.26,0,0,1,2.89,3.18C234.77,152.73,234.41,154.8,234.41,157.36Z"/><path class="cls-19" d="M234.42,143.35h-6.88c0-2.33-.45-4.57.15-6.48a5.62,5.62,0,0,1,3.54-3.16c2.2-.49,3.2,1.23,3.19,3.4C234.41,139.06,234.42,141,234.42,143.35Z"/><path class="cls-19" d="M212.44,143.29h-7c0-2.45-.32-4.78.13-6.95a4.08,4.08,0,0,1,2.88-2.59c1.1-.09,3.07,1,3.34,2C212.41,138,212.26,140.55,212.44,143.29Z"/><path class="cls-19" d="M234.4,171.29h-6.73c0-2.47-.4-4.85.16-7a4.43,4.43,0,0,1,3.42-2.55c1.08,0,2.71,1.69,3,2.91C234.77,166.67,234.4,168.89,234.4,171.29Z"/><path class="cls-19" d="M201.28,143.37h-6.92c0-2.14,0-4,0-6s.59-4.11,2.84-3.65a6.35,6.35,0,0,1,3.93,3.45C201.81,138.88,201.28,141,201.28,143.37Z"/><path class="cls-19" d="M200.9,157.27h-6.46a44.64,44.64,0,0,1,.11-7.09,3.71,3.71,0,0,1,2.48-2.42c1-.13,2.88.82,3.08,1.61A52.49,52.49,0,0,1,200.9,157.27Z"/><path class="cls-2" d="M172,55.2H165.7V49H172Z"/><path class="cls-2" d="M165.62,124.32V118.1h6.29v6.22Z"/><path class="cls-2" d="M165.56,180v-6.13H172V180Z"/><path class="cls-2" d="M172,194.22h-6.25v-6.49H172Z"/><path class="cls-2" d="M165.6,110.32v-6.26h6.33v6.26Z"/><path class="cls-2" d="M165.5,69V62.84H172V69Z"/><path class="cls-2" d="M165.71,131.89H172v6.23h-6.3Z"/><path class="cls-2" d="M165.73,145.89H172v6.36h-6.25Z"/><path class="cls-2" d="M165.63,166.29v-6.46H172v6.46Z"/><path class="cls-2" d="M165.29,90.67H172v5.74h-6.41C165.53,94.75,165.43,93,165.29,90.67Z"/><path class="cls-2" d="M172.08,76.81v5.67h-6.36V76.81Z"/><path class="cls-2" d="M165.78,201.59H172v5.77h-6.2Z"/><path class="cls-19" d="M245.37,274.16H231a45.61,45.61,0,0,1-.47-4.61c0-14,0-28,0-42,0-3.86,1.15-6.86,4.87-8.44,4.47-1.9,9.92,1,10,5.71C245.5,241.15,245.37,257.44,245.37,274.16Z"/><path class="cls-19" d="M194.37,244.55c5.06-6.11,5.72-12.37.69-18.83.91-5.19,3.29-7.39,7.72-7.14,3.93.21,6.61,3.52,6.62,8.35q0,21.72,0,43.45c0,1.13-.17,2.27-.29,3.77H194.37Z"/><path class="cls-19" d="M223.41,229.24h-6.89c0-2.61-.52-5.17.19-7.35.45-1.38,2.71-2.18,4.15-3.25.85,1.2,2.17,2.31,2.44,3.63C223.72,224.31,223.41,226.49,223.41,229.24Z"/><path class="cls-19" d="M223.42,244.27h-7c0-2.35-.46-4.59.15-6.48.49-1.56,2.09-3.59,3.49-3.85,2.1-.4,3.5,1.31,3.36,3.8C223.32,239.7,223.42,241.68,223.42,244.27Z"/><path class="cls-19" d="M223.4,259.3h-6.72c0-2.55-.4-4.93.17-7.05a4.37,4.37,0,0,1,3.47-2.46c1.08.06,2.61,1.75,3,3C223.77,254.64,223.4,256.72,223.4,259.3Z"/><path class="cls-20" d="M756.41,244.59l.13-.15c.18-.14,0,0-.15.13Z"/><path class="cls-8" d="M305.33,249.72l.08,6.68c-4,0-7.91,0-11.86-.14-2.93-.1-5.58-.8-6.09-4.67l6.22-1.92C297.55,252.66,301.44,251.44,305.33,249.72Z"/><path class="cls-20" d="M394.4,241.63l-2,0,5.61-8.12,1.42,1Z"/><path class="cls-24" d="M673,177v21.26H656.78V177Z"/><path class="cls-24" d="M632.31,183.7l0-1.25c1-1.16,3.06-.88,3.78-2.58-1.08-1.34-2.66-.75-3.95-1.14.29-.69.57-2,.89-2,4.61-.13,9.22-.09,14.14-.09v21.63c-5.09,0-10,0-14.85,0,0,0-.15-.26-.13-.39a1.51,1.51,0,0,1,.22-.44c.84-.8,2-.94,3.27-1.7-.89-1.25-2.64-1-3.48-2.06,0-.73,0-1.45,0-2.17a9.9,9.9,0,0,1,1.68-1c1.41-.48,2.88-.9,2.91-2.83s-1.32-2.46-2.77-3A7.17,7.17,0,0,1,632.31,183.7Z"/><path class="cls-22" d="M632.31,183.7h5.77v7.8h-5.9Q632.24,187.6,632.31,183.7Z"/><path class="cls-22" d="M632.1,178.73l5.88-1.25c.08,5.14.08,5.14-5.71,5Z"/><path class="cls-22" d="M632.16,193.67c1.31,0,2.73-.43,3.88,0s1.84,1.57,2.75,2.41l-.72,1.39h-5.7Z"/><path class="cls-24" d="M657.53,238.41c-.36-.67-1-1.34-1-2-.08-6.28,0-12.57,0-19.31H673v22.77l-15.44-1.4c1.12-1.34,3.22-.82,4.31-2.27C659.59,235.63,659.59,235.63,657.53,238.41Z"/><path class="cls-24" d="M632.24,233.69c.06-.43.13-.86.2-1.29,3.53-2.42,7.71-1.06,11.57-1.83,1.14-1.57,1.1-3.08.13-5-3.9-.15-8.14.74-11.73-1.86,0-.42-.11-.85-.16-1.27.87-.79,2.08-1,3-1.79-.68-1.26-2.3-1-3.13-2,.28-.67.55-1.92.85-1.93,4.77-.12,9.55-.08,14.79-.08v22.51H632.15l.08-1.68c.88-1,2.37-.88,3.28-1.9C634.63,234.53,633.12,234.63,632.24,233.69Z"/><path class="cls-22" d="M632.41,223.73c4.4-.35,8.77,1.08,13.58-.37v9H632.44Z"/><path class="cls-22" d="M632.24,233.69H638c.12,1.19.22,2.22.38,3.8h-6.1C632.23,236.22,632.23,235,632.24,233.69Z"/><path class="cls-22" d="M632.17,218.67h5.7c-.14,4-.14,4-5.62,3.79C632.22,221.2,632.2,219.93,632.17,218.67Z"/><path class="cls-26" d="M536.86,268c-1.26,1.47-2.27,3.54-3.88,4.25-1.32.57-3.62-.06-5-.93a4.29,4.29,0,0,1-1.24-3.83c.39-1.37,1.74-2.33,3.75-1.5,1.59.65,3.49.58,5.25.83C536.13,267.16,536.5,267.55,536.86,268Z"/><path class="cls-26" d="M503.47,272.86c-.85-.47-2-.74-2.48-1.46-.7-1.16-1.53-2.87-1.13-3.87.36-.85,2.41-1.53,3.62-1.4a30.65,30.65,0,0,1,5.82,1.78l.5,1.35-4.48,3.62A1.55,1.55,0,0,1,503.47,272.86Z"/><path class="cls-26" d="M513.83,271.6c4-1.31,6.48-1.06,8,2.12-.89,2.83-3.14,3.65-5.4,2.52C515.22,275.61,514.78,273.37,513.83,271.6Z"/><path class="cls-14" d="M503.47,272.86l1.85,0a49.68,49.68,0,0,1-.05,7.22c-.17,1.3-1.33,2.48-2,3.71l0,0c.12-2.64,1.24-5.53-1.69-7.27Z"/><path class="cls-14" d="M531.54,284l-4.39-8.67,4.5-.66v9.2Z"/><path class="cls-24" d="M663.3,268.56l-5-.2c-2.15-4.61-2.36-9.18.28-13.7h3.74c2.43,4.11,2.24,8.45,1.13,12.87Z"/><path class="cls-26" d="M645.23,267.64h-3.58c-2.76-4.28-2.54-8.6-.13-12.93l3.84,0C647.67,259,647.83,263.34,645.23,267.64Z"/><path class="cls-24" d="M652.6,268.76l-1.26-1v-.13c-2.1-4.37-2.47-8.71.27-13l3.74,0a13,13,0,0,1,0,13.17Z"/><path class="cls-26" d="M663.45,267.54q-.57-6.44-1.13-12.87c2-1.82,3.59-.88,3.85,1.22a46.33,46.33,0,0,1,0,9.78C666.12,266.37,664.4,266.92,663.45,267.54Z"/><path class="cls-26" d="M655.34,267.85q0-6.59,0-13.17l3.22,0q-.14,6.86-.28,13.7Z"/><path class="cls-24" d="M641.52,254.7q.06,6.46.13,12.93l-.94,1c-.76-.86-2.07-1.67-2.17-2.6-.28-2.91,0-5.87-.14-8.82C638.34,254.92,639.58,254.43,641.52,254.7Z"/><path class="cls-24" d="M645.23,267.64l.13-13h3.11c2.22,4.25,2,8.54.18,12.85Z"/><path class="cls-26" d="M648.65,267.54l-.18-12.85,3.15,0-.27,13Z"/><path class="cls-28" d="M38.42,241.66H32.7V218.71l17.46,1L44.7,223l-2.41,5.37c-1.83,1-3.79-1.15-5.79.37-1.79,2.46.21,5.16,0,7.81Z"/><path class="cls-12" d="M36.52,236.58c-3.23-2.81-1.6-6.33-1.88-9.42,3.23-1.56,5.51-.52,7.65,1.24Z"/><path class="cls-20" d="M64.37,243.56l-1.94,3-.08-.07,2.09-2.91Z"/><path class="cls-20" d="M64.44,243.62l.2-1.42.51.26-.78,1.1Z"/><path class="cls-28" d="M26.22,204.55H9.67V182.16H26.22Z"/><path class="cls-28" d="M32.72,182.08H49.8v22.37H32.72Z"/><path class="cls-24" d="M632.13,148.66c.31-.67.6-1.91.92-1.91,4.76-.13,9.52-.09,14.75-.09v16.55q-7.72,0-15.45,0a.63.63,0,0,1-.08-.41c0-.15.19-.26.29-.39,4.5-2.37,4.5-2.37,3.73-6.53-1.21-1-2.79-.82-4.23-1.13.06-.75.11-1.49.16-2.24.86-1,2.39-.85,3.25-2C634.5,149.58,633.06,149.56,632.13,148.66Z"/><path class="cls-24" d="M657.44,162.5c-.48-5-1-10-1.47-15.45h16.88v16c-5.17.46-10.26,1.43-15.37-.47a7.4,7.4,0,0,1,1.11-.82c1.19-.55,2.63-.39,3.76-1.39,1.15-1.91.53-4.11.68-6.21,0-.43,0-.86,0-1.29a7.11,7.11,0,0,0-.35-3c-1.16-1.38-2.09-.61-3,.31-2,3.53,0,7.55-1.39,11.15A8,8,0,0,1,657.44,162.5Z"/><path class="cls-22" d="M632.06,154.73l6-1.69v9.35h-5.48Z"/><path class="cls-22" d="M632.13,148.66h6v3.83h-5.88Z"/><path class="cls-28" d="M9.59,219.28H26.21v22.11H9.59Z"/><path class="cls-2" d="M165.22,258.63c1-.64,1.95-1.27,2.93-1.9,0,2.22.07,4.45.11,6.68C163.89,264,165.85,260.46,165.22,258.63Z"/><path class="cls-20" d="M176.41,241.58l.25-1.4.52.26-.78,1.13Z"/><path class="cls-22" d="M664,191.35h-6.13V184l6.13-.38Z"/><path class="cls-22" d="M665.7,191.34V183.9h5.38v7.44Z"/><path class="cls-22" d="M664.05,177.13v5.77c-2.34-.63-4.26-1.05-6.09-1.74-.25-.09-.26-2.06,0-2.18A61.26,61.26,0,0,1,664.05,177.13Z"/><path class="cls-22" d="M665.39,178h5.74v4.28l-5.23.24C665.73,181,665.59,179.74,665.39,178Z"/><path class="cls-22" d="M664.09,197.4c-2.78-.33-6.09,1.69-6.4-3C663,192.77,663.68,193,664.09,197.4Z"/><path class="cls-22" d="M671.35,197.32H666c-.13-1.08-.25-2.1-.42-3.45C668.27,193.73,671.34,192,671.35,197.32Z"/><path class="cls-22" d="M646.11,183.91v7.42h-5.38v-7.42Z"/><path class="cls-22" d="M640.43,177.92H646c.11,1.39.22,2.61.36,4.26l-5.56.38C640.66,181,640.56,179.63,640.43,177.92Z"/><path class="cls-22" d="M646.26,193.53c-.09,1.66-.14,2.58-.21,3.84-2.46-.35-5.71,1.78-5.51-3.59Z"/><path class="cls-22" d="M658,224l5.89-.33V232H658Z"/><path class="cls-22" d="M665.65,232.45V224l5.37-.34v8.56Z"/><path class="cls-22" d="M657.53,238.41c.1-1.42.19-2.85.31-4.54H664c.7,2.76.23,4.52-3,4.6-1.14,0-2.28,0-3.42,0Z"/><path class="cls-22" d="M657.77,222.23c-.34-5.93,3.8-2.55,6-4.44l.48,4.44Z"/><path class="cls-22" d="M671.41,237.41H666c-.16-1-.3-2.08-.51-3.52l5.37-.34C671,234.81,671.19,235.84,671.41,237.41Z"/><path class="cls-22" d="M665.57,221.72c0-.89.09-1.82.15-2.95h5C671.19,223,670.9,223.16,665.57,221.72Z"/><path class="cls-22" d="M640.82,233.83h5c.77,2.23.75,3.7-2,3.77C641.59,237.66,639.75,237.4,640.82,233.83Z"/><path class="cls-22" d="M640.68,222.1v-3.29h4.94C646.21,222.72,646.21,222.72,640.68,222.1Z"/><path class="cls-12" d="M34.89,221.73h5.24c.55,1.81,1.22,3.56-1.59,3.89C36.18,225.89,34.15,225.52,34.89,221.73Z"/><path class="cls-12" d="M11.41,196.58l.06-6a4.16,4.16,0,0,1,5.86,0c.31,7,.31,7-4.94,7A6,6,0,0,0,11.41,196.58Z"/><path class="cls-12" d="M24.33,190.59l.07,5a6.1,6.1,0,0,0-1,1H18.47v-6A4.16,4.16,0,0,1,24.33,190.59Z"/><path class="cls-12" d="M24.39,198.83l-.19,3.49H18.78l-.37-3.49Z"/><path class="cls-12" d="M11.32,198.63h5.8v3.73l-5.24.24Z"/><path class="cls-18" d="M24.33,190.59H18.47v-3a4.2,4.2,0,0,1,5.85,0Z"/><path class="cls-18" d="M17.33,190.59H11.47v-3a4.19,4.19,0,0,1,5.84,0Z"/><path class="cls-12" d="M24.33,187.56H18.48c-.52-2.43.55-3.22,2.91-3.19S24.89,185.06,24.33,187.56Z"/><path class="cls-12" d="M17.32,187.56H11.48c-.57-2.5.65-3.16,2.93-3.19S17.84,185.13,17.32,187.56Z"/><path class="cls-18" d="M23.41,196.62l1-1Z"/><path class="cls-18" d="M11.41,196.58l1,1Z"/><path class="cls-12" d="M47.38,184.91v12.35H34.86V184.91Z"/><path class="cls-12" d="M35,198.4l5.26.25c.84,2.86.22,4.69-2.66,4.79C34.29,203.56,34.4,201.37,35,198.4Z"/><path class="cls-12" d="M41.43,198.72h5.62c1,2.3.65,4.28-2.09,4.66C41.86,203.81,41.11,201.71,41.43,198.72Z"/><path class="cls-22" d="M646,153.5v8.43l-5.3.54v-8.6Z"/><path class="cls-22" d="M646.05,148.45v3.9l-5.16.29c-.15-1.37-.26-2.41-.42-3.86Z"/><path class="cls-22" d="M664.14,153.76v8.53h-5.63a.88.88,0,0,1-.83-.83c0-3.38-.19-6.78,0-10.16.05-1,1.11-1.92,1.71-2.88,1.64-.38,3.29-.8,4.85.27l-.06,3.73c-1.61,1.29-3.43.4-5,.56C660.66,153.61,662.63,152.29,664.14,153.76Z"/><path class="cls-22" d="M665.61,162.41V148.78l5.51-.24v13.62Z"/><path class="cls-2" d="M664.14,153.76l-4.82-.33,0-.6,4.89-.41C664.16,152.87,664.15,153.31,664.14,153.76Z"/><path class="cls-2" d="M664.24,148.69l-4.85-.27Z"/><path class="cls-2" d="M657.68,161.46l.83.83-1,.25,0,0Z"/><path class="cls-12" d="M17.11,234.62l-5.5-.29V221.85h5.5Z"/><path class="cls-12" d="M24.16,234.32H18.64V221.88h5.52Z"/><path class="cls-12" d="M18.6,239.56v-3.82c2.61,0,5.8-2,5.77,3.55Z"/><path class="cls-12" d="M11.69,239.24v-3.57H17l.27,3.57Z"/></g></g></svg>